<svg xmlns="http://www.w3.org/2000/svg" xmlns:xlink="http://www.w3.org/1999/xlink" viewBox="0 0 570.62 359.69"><style><![CDATA[.AY{enable-background:new}.AZ{fill:#fff}.Aa{fill:#121214}.Ab{fill:#f4ccb0}.Ac{fill:#f0c6b4}.Ad{fill:#ffd1a4}.Ae{opacity:.3}.Af{fill:#ffcb4c}.Ag{fill:#080749}.Ah{fill:#3d3d42}.Ai{fill:#16a89f}.Aj{stroke-miterlimit:10}.Ak{fill:#e9edf2}.Al{fill:#f9b928}.Am{fill:#131616}]]></style><ellipse cx="285.31" cy="304.35" rx="276.83" ry="50" opacity=".4" fill="#7ac9ea"/><path d="M87.2 299.27s.3 1.32-.12 2.67-1.17 2.28-2.05 3.26a16.52 16.52 0 0 1-3.3 2.76c-1 .6-2.55 1.75-2.76 1.95-.8.77-1.97 2.6-1.97 2.6v.55s-1.14 1.42-2.75 2.17c-1.2.56-2.88.95-5.06.3-1.92-.58-2.3-2.57-2.36-2.97s0-1.9 0-1.9" class="Ag"/><path d="M74.87 301.3s3.86-1.24 6.04-2.82c3-2.17 5.2-1.62 5.95-.33.76 1.3 1.06 5.65-5.33 9.42-2.52 1.48-3.63 2.72-4.4 3.94-.6.93-1.73 2.1-3 2.73-1.08.55-2.26.66-3.33.58-4.38-.36-5.3-4.83-3.16-8.22 2.12-3.4 7.25-5.3 7.25-5.3z" fill="#01012b"/><path d="M122.72 322.5v.16c0 .7-.2 1.4-.66 1.94-2 2.38-6.76 3.38-7.74 3.57-.05.02-.1.02-.17.03-2.68.42-5.7.58-7 .72-1.64.18-2.6.46-2.6.46v.3c-.5.13-2.22.54-3.7.62h-.02c-1.42.05-3.13-.16-4-.9-.27-.25-.9-.97-1.1-1.88v-.08l.02-.72v-.33l3.5-.25 1.75-.12 1.6-.1 1.5-.1 18.64-3.32z" class="Ag"/><path d="M107.53 318.76s3.38 1.27 5.82 1.27 7.2-.06 8.43.8c.6.43.96.95.95 1.54-.01 3.3-7.73 5.3-12.38 5.67-4.64.37-4.9.3-7.1.68s-4.5.54-5.87-.15c-2.4-1.2-2.56-4.84-1.1-7.25 1.48-2.4 11.23-2.56 11.23-2.56z" fill="#01012b"/><path d="M97.46 315.73l-.22 4.34c-.05.66-.4 1.25-.3 1.83.16.94 2.35 1.87 5.35 1.54 3-.34 5.45-2.02 6-2.94s-.3-1.2-.43-1.6c-.22-.6 0-6.1-.4-4.23m-39.24-11.4l-.17 3.33s-.44.77-.28 1.44c.2.9 2.75 2.64 6.22.8 3.9-2.07 3.46-5.14 3.5-5.3.2-1.4-.57-.08-.57-1.2" fill="#f1bf9c"/><path d="M186.54 107.98l126.24 16.48V5.35L186.54 17.6z" class="AZ"/><linearGradient id="A" gradientUnits="userSpaceOnUse" x1="208.458" y1="72.11" x2="197.508" y2="89.639"><stop offset="0" stop-color="#0060d2"/><stop offset="1" stop-color="#02f"/></linearGradient><path d="M208.46 66.36v26.7l-2.13 2.22-6.7-2.1-2.12-24.48 2.12-2.23z" fill="url(#A)"/><linearGradient id="B" gradientUnits="userSpaceOnUse" x1="231.31" y1="60.352" x2="220.36" y2="77.882"><stop offset="0" stop-color="#0060d2"/><stop offset="1" stop-color="#02f"/></linearGradient><path d="M231.3 43.14v49.64L229.18 95l-6.7-2.1-2.13-47.42 2.13-2.22z" fill="url(#B)"/><linearGradient id="C" gradientUnits="userSpaceOnUse" x1="242.896" y1="64.436" x2="231.946" y2="81.966"><stop offset="0" stop-color="#0060d2"/><stop offset="1" stop-color="#02f"/></linearGradient><path d="M242.9 51.44v41.2l-2.13 2.23-6.7-2.1-2.12-38.98 2.12-2.23z" fill="url(#C)"/><linearGradient id="D" gradientUnits="userSpaceOnUse" x1="219.764" y1="76.512" x2="208.814" y2="94.041"><stop offset="0" stop-color="#0060d2"/><stop offset="1" stop-color="#02f"/></linearGradient><path d="M219.76 75.3v17.62l-2.12 2.22-8.83-1.04V77.64l2.13-2.22z" fill="url(#D)"/><path d="M206.33 68.6v26.7l-8.82.1V68.7zm22.85-23.24V95l-8.82.1V45.47zm11.6 8.3v41.2l-8.82.1v-41.2zm-23.13 23.87v17.62l-8.83.1v-17.6z" fill="#3fa2ff"/><path d="M246.26 100.13l-50.38.6V30.28l50.38-.6z" fill="none" stroke="#c1c1c1" class="Aj"/><path d="M299.75 28v3.25l-46.4.58v-3.25zm-6.47 8.46v3.25l-39.92.5v-3.25zm3.86 8.34v3.27l-43.78.54v-3.27zm-20.64 8.63v3.25l-23.15.3v-3.25z" class="Aa Ae"/><path d="M299.75 71v3.27l-46.4.6V71.6zm-6.47 8.48v3.27l-39.92.5V80zm3.86 8.35v3.25l-43.78.56v-3.27zm-20.64 8.64v3.25l-23.15.3v-3.27z" class="Aa Ae"/><path d="M150.3 230.57v96.68c0 1.6 3 2.9 6.7 2.9s6.7-1.3 6.7-2.9v-96.68h-13.4zm-85.74-43.4v96.68c0 1.6 3 2.9 6.7 2.9s6.7-1.3 6.7-2.9v-96.68h-13.4zm174.28 0v96.68c0 1.6 3 2.9 6.7 2.9s6.7-1.3 6.7-2.9v-96.68h-13.38z" fill="#47210e"/><g class="Ah"><path d="M287.12 241.82l-13.57-78.24-3.95.5 13.57 78.24s.78 1.24 2.48 1.1c1.94-.15 1.47-1.6 1.47-1.6z"/><path d="M298.43 114.7c-.67 3.1-9.74 12.37-13.73 42.52-1.53 11.54-6.8 22.45-20.8 23.9a40.17 40.17 0 0 1-3.85-.97c-16.3-4.94-28.7-10.63-30.62-28.2 4.95-4.56 7.3-11.44 8.26-18.54.2-1.4 2.5-37.72 13.4-41.6 2.78.7 5.78 1.73 8.98 3.13.66.3 1.3.58 1.9.87l35.14 15.5c0 0 2 .28 1.33 3.37z"/></g><path d="M223.9 246.15l20.34-5.2s.1 1.13 0 1.47c-.1.35-3.68 1.68-4.23 1.97-.16.08-.25.08-.3.04h0l-.47-.12-2.13 1.46c-1.3.85-3.2 2.02-4.96 2.6-.9.3-3.82 1.26-6.23.68-1.92-.46-2.4-2.06-2.02-2.9z" class="Ag"/><path d="M242.5 233.2s1.83.77 1.97 6.82c0 0-.04 1-.67 1.52s-2.8 1.08-4.3 2-5.34 3.95-9.02 4.83-5.8-.08-6.5-.84c-.67-.76-.32-2.4 1.07-3.35 1.38-.96 7.45-6.78 8.38-8.08 1.2-1.7 2.86-2.77 3.02-3.05.16-.3 4.74.8 6.05.15z" class="AZ"/><path d="M242.85 227.96l-.33 5.9c.12 1.27-5.3 2.05-6.76.34l-.3-4.97" class="Ad"/><path d="M203.27 238.23l20.34-5.2s.1 1.13 0 1.47c-.1.35-3.68 1.68-4.23 1.97-.16.08-.25.08-.3.04h0l-.47-.12-2.13 1.46c-1.3.85-3.2 2.02-4.96 2.6-.9.3-3.82 1.26-6.23.68-1.9-.45-2.4-2.06-2.02-2.9z" class="Ag"/><path d="M221.88 225.28s1.83.77 1.97 6.82c0 0-.04 1-.67 1.52s-2.8 1.08-4.3 2-5.34 3.95-9.02 4.83-5.8-.08-6.5-.84c-.67-.76-.32-2.4 1.07-3.35 1.38-.96 7.45-6.78 8.38-8.08 1.2-1.7 2.86-2.77 3.02-3.05.16-.3 4.75.78 6.05.15z" class="AZ"/><path d="M222.23 220.05l-.33 5.9c.12 1.27-5.3 2.05-6.76.34l-.3-4.97" class="Ad"/><g fill="#f4617e"><path d="M271.12 149.65s5.53 9.72.05 20.03c-3.47 6.52-26.88 18.24-26.88 18.24s1.97 6.55 2.14 12.33-2.5 29.44-2.5 29.44-5.3 4.24-10.17.83c0 0-7.57-40.84-6.08-49.4s43.45-31.48 43.45-31.48z"/><path d="M251.08 142.26s5.17 10.36 2.55 17.27-29.5 20.4-29.5 20.4 1.84 6.05 2 11.83-1.83 29.03-1.83 29.03-5.65 6.8-11.3.95c0 0-7.14-40.56-5.65-49.1 1.5-8.53 43.72-30.4 43.72-30.4z"/><path d="M237.32 145.73s.25 2.83-.56 6.12c-.8 3.3 5.52-1.13 5.52-1.13l9.13 14.17s11.12-3.1 12.04-3.6c.9-.5 4.98-4.77 4.98-5.28s-.58-5.3-.58-5.3l-7.55-2.66"/></g><path d="M255.1 109.98s-3.83 7.6-5.4 9.66c-.84 1.1-10.25 5.66-19.28 8.5s-13.67 3.94-13.67 3.94l-1.32-4.2s8.73-4.87 12.88-7.58c4.25-2.77 13.07-7.92 13.07-7.92" class="Ad"/><path d="M237.94 138.38l-.92 7.13c-.14 1.15.47 2.26 1.53 2.73 6.02 2.68 22.02 5.8 27.98 5.78.18 0 .34 0 .5-.01 4.04-.17 5-1.97 5.18-3.2v-.03c0-.38-.01-.77-.04-1.15-.1-1.7-.35-3.5-.85-5.22l-.34-1.33-.42-1.52a8.08 8.08 0 0 1-.19-.74c-.06-.24-.1-.47-.16-.7-1.33-6.56 1-12.6 3.2-18.62.62-1.67 1.23-3.36 1.75-5.06 1.1-3.6 2.16-7.2 3.04-10.85l.28-1.1c.47-1.8.95-3.78.84-5.62a20.09 20.09 0 0 0-.73-1.66c-.37-.8-.73-1.48-1.1-2.08-.86-1.43-1.63-2.35-2.2-2.9l-.03-.03a17.28 17.28 0 0 0-1.04-.88c-.58-.5-1.15-.92-1.7-1.32a32.88 32.88 0 0 0-1.21-.86c-.16-.12-.33-.22-.48-.32-.04-.03-.06-.04-.1-.06-.03-.01-.05-.03-.08-.04-.13-.1-.27-.18-.4-.27-.27-.18-.54-.34-.8-.5s-.56-.33-.85-.5c-.44-.26-.94-.52-1.5-.8-1.2-.6-2.72-1.3-4.9-2.16l-1.43-.54a24.73 24.73 0 0 0-.92-.29c-1.48-.46-3-.83-4.53-1.15-2.37-.5-4.77-.9-7.05-1.34a15.42 15.42 0 0 0-1.19.04c-1.3.08-3.13.45-4.73.82-3.43.8-6.3 3.36-7.16 6.8-.13.5-.2 1.02-.24 1.56-.32 4.9 5.06 32.57 2.96 48.02z" class="AZ"/><path d="M249.72 84.54s-2.83 2.72-.57 4.8l1.32-2.87-1.27-1.16" fill="#e5ae80"/><path d="M261.07 74.4l-.3 11.1s-8.27 6.5-11.6 3.82l.01-9.38 3.14-.64 8.77-4.9z" fill="#f2ba88"/><path d="M243.12 65.88s-.53 5.37.57 10.27c1.1 4.9 1.43 6 3.4 6.9 1.96.87 3.73.97 7.02-1.17s5.1-5.62 5.1-5.62.47.3 1.65-1.03c1.84-2.1 2.2-3.15 2.2-6s-.7-6.43-2.9-10.15c-2.2-3.72-8.94-2.53-12-.95-3.07 1.6-4.45 4.58-5.03 7.76z" class="Ad"/><path d="M242.17 68.16c.02 0 .02.02.05.02 1.76.8 6.67.43 8.54-1.37 1.38-.12 1.46 1.35 1.46 1.35.6 2.63 2.42 2.87 3.3 3.34.85.5 1.06 3.15 1.06 3.15l1.1-.12s-.02-2.53.35-3.8c.42-1.28 2.5-2.25 3.66-.4.96 1.52.07 3.34-.66 4.67l-.02.97c1-.85 2.63-3.1 3.03-8.6-.05-1.96 1.65-3.73-.3-6.8-1.1-1.76-2.93-1.6-3.23-2.14-2.56-4.38-7.05-5.3-10.55-4.02-.9.33-2.34.9-3.22 2.43 0 0-2.72.5-3.37 2.86-5.8 3.15-5.14 7.05-1.22 8.48z" fill="#7a5329"/><path d="M265.9 135.82c-.1.97-.16 3.78 0 5.12.57 4.56 1.43 8.64.63 13.08.18 0 .34 0 .5-.01 4.04-.17 5-1.97 5.18-3.2v-.03c0-.38-.01-.77-.04-1.15-.1-1.7-.35-3.5-.85-5.22-.1-.45-.24-.88-.35-1.32l.01-.01-.42-1.52a8.08 8.08 0 0 1-.19-.74c-.06-.24-.1-.47-.16-.7-1.33-6.56 1-12.6 3.2-18.62l-.72-7.67c0-.7-6.9-8.8-6.9-8.8s1.78 14.78.12 30.78z" class="Ak"/><path d="M283.28 114.7s3.18 15.2 3.18 17.1-5.05 2.84-8.6 1.97c-3.56-.88-7-15.25-7-15.25" class="Ad"/><path d="M264.58 101.95c.01 5 3.76 13.24 6.02 19.1h.01c5.86-1.2 9.47-2.87 11.44-4.05-1.72-6.46-4.28-14.88-5.58-19.13-.44-1.42-1.2-2.7-2.2-3.73-.1-.01-.16-.03-.24-.03-3.68-.08-9.46 2.46-9.44 7.85z" class="AZ"/><path d="M280.46 106.6l-.42-3.06.42 3.06zm-1.13-7.84l.04.24h.01c-.01-.1-.04-.18-.05-.25z" fill="#ea6157"/><path d="M260.8 83.94l1.43.54 4.9 2.16 1.5.8.85.5.8.5.4.26c.03.03.05.04.08.05.03.03.05.04.1.06l.48.32 1.2.86 1.7 1.32a2.69 2.69 0 0 1 .28.22c.02.02.05.04.1.07.03.03.08.05.1.1a1.5 1.5 0 0 1 .23.19c.1.08.2.18.33.3l.03.03c.56.55 1.33 1.47 2.2 2.9.37.6.73 1.3 1.1 2.08l.73 1.66a.35.35 0 0 1 .06.14c-.01-.1-.03-.18-.04-.24.01.08.04.17.05.26v.03c.53 1.3 1.04 2.82 1.52 4.57l.2.7 1 3.6 2 7.65s-.6.6-2.04 1.44c-1.04-3.9-2.4-8.53-3.58-12.5-.77-2.6-1.35-4.98-2-6.6-2.4-6.06-14.68-11.8-15.7-12.35l.04-1.6z" class="Ak"/><path d="M279.38 99c-.01-.1-.04-.18-.05-.26l.04.24h.01z" fill="#ea6157"/><linearGradient id="E" gradientUnits="userSpaceOnUse" x1="218.975" y1="298.368" x2="235.407" y2="262.243"><stop offset="0" stop-color="#0060d2"/><stop offset="1" stop-color="#02f"/></linearGradient><path d="M245.2 232.98l-26.47 64.04s-.64 1.3.5 1.85c.67.33 2.53.66 3.16-.3l26.47-64.04-3.67-1.54z" fill="url(#E)"/><use xlink:href="#R" class="Ab"/><path d="M225.56 286c-.22 2.05-2.24 6.1-2.58 7.54-.34 1.43-1.06 10.7-1.06 10.7h-1.53l-.37-10.47s0 .01-.01.04c-.14.38-1.22 3.5-1.72 5.3-.5 1.8-5 3.53-6.52 3.5-1.52-.05-8.25-4.66-9.77-7.34-1.53-2.68 7.17-1.5 7.17-1.5s-2.4 1.24-1.42 2.38c.98 1.14 3.3.6 4.86-1.5 1.92-2.53 5.1-16.9 10.6-13.23 0-.01 2.62 1.93 2.34 4.56z" fill="#101011"/><use xlink:href="#S" fill="#8592bc"/><use xlink:href="#R" x="-18.4" y="7.18" class="Ab"/><path d="M207.16 293.2c-.22 2.05-2.24 6.1-2.58 7.54-.34 1.43-1.06 10.7-1.06 10.7H202l-.37-10.47s0 .01-.01.04c-.14.38-1.22 3.5-1.72 5.3-.5 1.8-5 3.53-6.52 3.5-1.52-.05-8.25-4.66-9.77-7.34-1.53-2.68 7.17-1.5 7.17-1.5s-2.4 1.24-1.42 2.38c.98 1.14 3.3.6 4.86-1.5 1.92-2.53 5.1-16.9 10.6-13.23 0 0 2.62 1.94 2.34 4.56z" fill="#101011"/><g fill="#8592bc"><use xlink:href="#S" x="-18.4" y="7.19"/><path d="M225.58 258.1s1.15 8.2 9.46 9.8c8.3 1.6 7.97-7.54 7.97-7.54l-17.43-2.26z"/></g><g fill="#0c277b"><path d="M259.14 254.34c-1.86.68-4.46.96-6.94.7-11.47-1.23-26.43-16.03-26.43-16.03s.75 8.35.1 18.67a93.36 93.36 0 0 1-.61 6.65c-.7 5.82-1.43 14.07-1.43 14.07-3.97 2.42-7.4 1.95-9.72 1-2-.8-3.18-2-3.18-2l-3.4-35.5-1.17-15.86c-.46-12.1 6.52-16.26 15-15.8 8.48.46 44.77 24.18 44.77 24.18s.08.36.18.98a19.75 19.75 0 0 1 .21 1.51c.54 4.65.65 14.5-7.38 17.43z"/><path d="M225.87 257.67s-.1-6-1.35-12.5c-1.24-6.42-2.54-9.37-2.54-9.37l3.8 3.2c0-.01.76 8.35.1 18.67z"/><path d="M254.04 252.8c-2.9 6.64-8.74 10.63-20.2 9.4-11.47-1.23-26.7-15.24-26.7-15.24s.76 8.35.1 18.67c-.12 2.15-.32 4.4-.6 6.65-.7 5.82-1.43 14.07-1.43 14.07-7.4 4.5-12.9-1-12.9-1L187.7 234c-.45-12.1 6.53-16.26 15.02-15.8 8.48.46 24.68 7.65 34.84 12.73 5.6 2.8 17.6 9.4 17.6 9.4s1.8 5.86-1.1 12.5z"/><path d="M207.22 265.62s-.1-6-1.35-12.5c-1.24-6.42-2.54-9.37-2.54-9.37l3.8 3.2s.76 8.35.1 18.67z"/></g><path d="M273.48 323.84h0l-9.62-77.98-3.95.5 9.62 78c.03.04.8 1.23 2.48 1.1 1.95-.16 1.47-1.6 1.47-1.6zM211.33 254l-26.47 64.04s-.64 1.3.5 1.85c.67.33 2.53.66 3.16-.3L215 255.54l-3.67-1.54zm28.37 90.6l-9.62-78-3.95.5 9.62 78s.78 1.24 2.48 1.1c1.94-.15 1.47-1.6 1.47-1.6z" class="Ah"/><linearGradient id="F" gradientUnits="userSpaceOnUse" x1="59.422" y1="172.342" x2="258.641" y2="172.342"><stop offset="0" stop-color="#0060d2"/><stop offset="1" stop-color="#02f"/></linearGradient><ellipse cx="159.03" cy="172.34" rx="99.61" ry="58.4" fill="url(#F)"/><ellipse cx="159.03" cy="166.5" rx="99.61" ry="58.4" fill="#8fc3ff"/><g fill="#181a1c"><path d="M184.75 134.84l.85.43 23.95-13.13c.4-.22.92-.2 1.34.06l36.78 23.08v-.14l.7-.05.7.05v1.5h-.01c-.01.22-.1.43-.32.54l-24.6 13.5c-.42.23-.94.2-1.37-.06L185.2 137a.95.95 0 0 1-.44-.75h0v-1.4z"/><path d="M185.2 135.54l37.58 23.58c.43.27.95.3 1.37.07l24.6-13.5c.46-.25.44-.93-.03-1.22l-37.82-23.74c-.42-.26-.93-.3-1.34-.06l-24.4 13.38c-.56.3-.54 1.12.03 1.48z"/></g><g fill="#3a3d3f"><path d="M174.22 105.36l1.43-.8c.18-.14.45-.17.7-.02l37.5 23.37c.4.25.7.62.86 1.06l10.46 29.2a.45.45 0 0 1-.13.51h0c-.01.01-.03.01-.04.02l-1.42.8-.87-.76.67-.73-36.55-22.77a2.8 2.8 0 0 1-1.15-1.43l-9.7-27.06-1.05-.46c-.13-.07-.72-.9-.72-.9z"/><path d="M213.24 129.8L223.7 159c.15.43-.3.78-.68.54l-37.67-23.47a2.8 2.8 0 0 1-1.15-1.43l-10.23-28.55a.6.6 0 0 1 .9-.72l37.5 23.37a2.15 2.15 0 0 1 .86 1.07z"/></g><g class="Ad"><path d="M238.06 125.42l-7.63 2.73c-9.04 2.84-14.3 4.76-14.3 4.76l-1.4-3.94 13.6-8.65 4.2-2.63 5.53 7.73zm6.56 10.13c.9.05 3.24-.37 3.24-.37l2.2 4.83c-1.07.24-1.84 1.7-3.03 1.98s-2.2.37-2.2.37.58.56.12 1.12-2.54.88-3.5 1.03-2.03-.76-2.74-1.68c-.7-.93-1.25-3.47-.92-4.1.34-.64 1.7-2 1.7-2 1.73-1.05 2.96-1.25 2.96-1.25l2.2.08z"/><path d="M233.76 140.74c-1.55.4-2.1-.26-1.85-.57s6.96-3.73 8-4.16c.67-.27 1.42-.34 2.5-.54l.38.12s-1.26 1.27-2.2 3.06l-3.15.72s-2.12 1-3.67 1.37zm50.76-19.94s3.2 13.86 1.66 15.94c-3 4.08-37.66 3.24-37.66 3.24l-3.1-4.16 29.4-7.88"/></g><path d="M190.27 218.1l-35.03-21.76c-.58-.36-.58-1.2 0-1.56l51.6-31.98a1.62 1.62 0 0 1 1.72 0l35.05 21.77a.91.91 0 0 1 0 1.54l-51.6 32a1.68 1.68 0 0 1-1.73 0z" fill="#e8f3f9"/><path d="M164.6 195.38l43.9-27.2m-39.23 30.1l43.9-27.2m-39.24 30.1l43.9-27.2m-39.23 30.1l43.9-27.2m-39.24 30.1l43.9-27.2m-39.24 30.08l43.9-27.2m-39.24 30.08l43.9-27.2" fill="none" stroke="#afafaf" stroke-width=".75" stroke-linecap="round" class="Aj"/><g class="Ab"><path d="M234.47 181.9s-.2-1.6-1.15-2.4c-.4-.32-2.67-.86-2.67-.86s-1.38.88-1.75.93c-.38.04-.97-.1-1.25-.42-.52-.58 2.83-2.2 3.2-2.4s4.26 1.14 4.26 1.14"/><use xlink:href="#T"/><use xlink:href="#T" x="1.33" y="1"/><path d="M237.93 184.53s0-1.6-.86-2.52c-.35-.37-2.56-1.17-2.56-1.17s-1.47.72-1.85.7c-.38 0-.95-.2-1.2-.56-.45-.64 3.07-1.86 3.44-2s2.8 1.03 2.8 1.03"/></g><linearGradient id="G" gradientUnits="userSpaceOnUse" x1="225.641" y1="178.185" x2="240.194" y2="178.185"><stop offset="0" stop-color="#00cbff"/><stop offset=".267" stop-color="#00aef3"/><stop offset="1" stop-color="#0060d2"/></linearGradient><path d="M227.5 181l-1.86-.13 1.4-1.23 12.18-4.24s.7-.24.92.43c.24.66-.46.93-.46.93L227.5 181z" fill="url(#G)"/><path d="M245.53 187l-3.68 3.8-3.73-3.65c-.5-.48-1.08-.88-1.7-1.16-.57-.26-2.15-.23-2.62-.62-.9-.72-2.48-1.72-2.93-2.35-.52-.72-.93-1.45-1.48-2.7l-.28-.6c-.12-.26-.2-.53-.2-.74-.01-.35.15-.6.58-.56a1.17 1.17 0 0 1 .52.19c.2.12.45.34.73.72l.28.43.64.93c.34.43 1.23.87 1.42.94.16.07 1.38.25 1.38.25l-.56-3.1 1.85-.64a16.72 16.72 0 0 1 1.83.88c1.66.95 2.13 3.28 2.78 3.86l5.18 4.12zm13.1-5.18l-11.66 2.52-1.5 1.17s-1.13-5.87-3.22-10.4c-.42-.9-4.45-1.34-5.98-1.44-3.26-.22-5.6-7.44-6.75-11.43-1.18-4.17-1-8.6-1-8.6.66-1.7 11.23-3.9 15.4-2.67 4.17 1.2 8.55 15 9.28 17.6.72 2.6 2.9 8.67 2.9 8.67l2.54 4.56z" class="Ab"/><path d="M266.52 236.9c-5.62 4.2-14.45 7.3-21.63 7.7-7.46.43-13.47-3.76-13.47-3.76l33.82-6.85 1.07 1.4.2 1.5z" class="AY Al"/><path d="M264.26 220.06c-.53 7.54 3.3 14.95 3.3 14.95s-8.14 6.45-20.94 8.16c-9.47 1.28-15.47-2.48-15.47-2.48s1.5-7.56 2.1-13.75c.2-2.04.32-3.92.25-5.36-.12-2.43-.74-7-1.3-11.76-.78-6.47-1.47-13.33-.64-15.86 1.42-4.4 12.2-11.3 12.2-11.3s12.92.88 12.62-2.85c0 0 7-1.04 10.2.5 3.22 1.5 3.75 10.4 2.76 17.88-.96 7.47-4.54 14.3-5.07 21.87z" class="AY Af"/><path d="M243.7 202.46s-2 9.7-4.73 17.67c0 0-1.08.07-2.64 0l-3.08 6.82c.2-2.04.32-3.92.25-5.36-.12-2.43-.74-7-1.3-11.76l.5-1.72 11-5.65z" class="AY Al"/><g class="Ab"><path d="M236.96 214.3S232 224.32 230 227.38c-2.48 3.8-3.77 5.25-8.42 1.85v.01s-17.43-16.15-19.06-16.3c-1.64-.16-1.9.1-3.7-.16-1.8-.26-2.63-1.16-2.63-1.16s3.36-4.75 3.88-7.65c1.33.86 3.8 2.95 5.44 3.92 1.7 1 12.1 6.6 17.6 9.78.44-1.02 2.24-6.4 2.63-7.34.01.03 10.96 4.13 11.22 3.98z"/><path d="M207.7 209.1s-3.26-1.8-4.22-2.88c0 0-4.42-4.83-5.33-5.15-.9-.3-.96 1.88 0 3l-4.28-1.17c-.98-.15-8.5 0-8.82.1s-.48 1 .54 1.28c0 0-1.2-.01-1.47.05s-.54 1.3 1.05 1.76l-.76-.06s-.2-.02-.27.27c-.13.5-.14 1.55 1.46 1.96l1.5.3s-.17.8.47 1.15 5.12.8 6.18.97c1.05.17 3.5 1.7 4.96 2.1s2.48 0 3.46.15 2.58 1.5 2.58 1.5"/></g><path d="M231.55 193.97l-7.14 17.85s6.06 6.34 12.65 6.34c0 0 6.9-13.08 7.28-19.02" class="AY Af"/><path d="M256.33 177.63l.62 2.1s0 2.18-2.4 3.14c-4.1 1.65-10.17.8-11.64.35l.9-2.86c.01.01 8.37 1.24 12.53-2.74z" class="AY Al"/><linearGradient id="H" gradientUnits="userSpaceOnUse" x1="225.641" y1="156.457" x2="253.987" y2="156.457"><stop offset=".035" stop-color="#602213"/><stop offset=".571" stop-color="#6d310e"/><stop offset="1" stop-color="#7a4108"/></linearGradient><path d="M252.17 151.06c-2.93-7.3-11.33-11.04-21.5-5.54-2.13 1.15-6.45 4.83-4.58 8.75.33.7.73 1.18 1.17 1.54.14 2.5 1.5 6.86 9.77 7.95 7.76 4.33 7.8 7.75 11.95 5.6 3.3-1.68 7.45-7.66 3.18-18.3z" fill="url(#H)"/><path d="M244.35 261.56s14.78-5.22 18.65-9.66-7.56-3.88-7.56-3.88l-8.75 5.12-2.34 8.42z" fill="#afe1ff"/><g class="Ah"><path d="M282.4 197.2c0 .02-.01.03-.02.05l-.01.01c-1.13 2.2-2.8 5.9-4.2 10.7-2.15 7.33-3.8 26.6-4.1 30.14-.01.04-.01.08-.01.12 0 .06-.01.13-.02.2-.01.16-.02.25-.02.25l-.1 1.5c-.5 10.37.65 15.38-7.93 20.73-.03.02-.07.05-.1.07l-14.18 8.78c-6.1 3.77-13.73 4.3-20.1 1.06-2.17-1.1-3.7-2.37-4.37-3.56-.26-.46-.84-3.3-1.18-5.35 2.44 1.27 5.16 2.14 7.1 1.44 6.04-2.2 3.9-21.45 4.7-29.46.32-3.2.93-5.9 1.64-8.1 1.43-4.43 4.42-8.18 8.33-10.66 8.05-5.12 30.1-18.9 34.12-20.05 0 0 .02-.01.06-.01.27-.03 1.42-.07.38 2.15z"/><path d="M232.03 271.04c-15-8.02-20.55-14.85-24.1-17.9-1.26-1.08-2.64-1.44-3.6-1.54-.83-.1-1.46-.9-1.3-1.72.44-2.6 3.3-3.6 3.3-3.6 13.87 12.24 22.33 14.6 22.33 14.6l3.37 10.15z"/></g><linearGradient id="I" gradientUnits="userSpaceOnUse" x1="163.44" y1="145.152" x2="114.145" y2="141.524"><stop offset="0" stop-color="#00eaff"/><stop offset=".54" stop-color="#0089e6"/><stop offset="1" stop-color="#003bd2"/></linearGradient><path d="M169.48 140.34l-19.9 30.87c-.33.52-.98.73-1.55.5l-1.5-.58-14.15-22.86-13.33-13.72-5.48-2.28 10.97-17c.4-.62 1.23-.83 1.87-.47l41.47 23.1 1.02-.9s.9 1.57.98 2.04c.06.33-.15.93-.4 1.3z" fill="url(#I)"/><path d="M103.4 147.25l42.55 23.7c.72.4 1.63.17 2.08-.52l20.8-32.24c.4-.6.2-1.44-.44-1.8l-42.63-23.75c-.65-.36-1.46-.16-1.87.47l-20.9 32.4c-.38.6-.2 1.38.42 1.72z" fill="#3380dd" class="AY"/><path d="M105.4 146.92l39.92 22.24c.68.38 1.53.16 1.95-.5l19.5-30.24c.37-.58.18-1.35-.42-1.68l-40-22.28c-.6-.34-1.37-.15-1.75.44L105 145.3c-.36.56-.17 1.3.4 1.62z" fill="none" stroke="#f8fbff" stroke-width=".149" class="Aj"/><path d="M149.42 156.7s.92-1.03 1.1-1.7.3-1.63 1.1-2.63 3.07-4.95 3.53-4.7c.46.27.92 1.4.55 2.95-.36 1.53-1 2.53-1 2.92s2.6.45 4.2-.08c.88-.3 3.46-2.43 4.1-3.13.6-.01-.24 4.67-.6 6.1-.3 1.17-3.98 4.9-3.98 4.9m-53.05-20.53l4.72-4.6c.63-.6 1.36-1.1 2.15-1.47.72-.33 1.63-.8 2.23-1.28 1.12-.9 1.96-2.98 2.4-3.86s2.94-3.28 3.2-3.94.17-1.9-.7-1.8c-.72.07-4.4 3.1-4.58 3.4l1.8-2.78s-3.65.32-5.8 1.46c-2.14 1.13-2.68 4.14-3.5 4.87l-6.5 5.2" class="Ab"/><path d="M120.36 246.33c-1.24 11.13-5.18 29.98-6.54 39.47l-4 31.28s-1.4 2.23-6.47 2.92c-5 .67-7.1-2.37-7.1-2.37s-1.67-30.34-1.32-35.86c.35-5.53 1.95-15.7 1.72-21.12-.16-3.9-.1-13.17-2.02-21.35-.27.87-.56 1.65-.84 2.33-2.9 6.6-8.36 20.76-9.9 26.13-1.46 5.23-5.23 36-5.23 36-.22.47-.75 1.03-1.54 1.6-.97.67-2.34 1.35-3.94 1.8-4.55 1.28-6.14-1.35-6.14-1.35-.54-3.2-.12-38.56 1.4-44.56 1.5-6 3.37-15.42 3.72-21.18.35-5.78 1.05-18.6.35-26.13-.27-2.84.05-5.4.56-7.44.8-3.42 2.13-5.52 2.13-5.52s43.7 2.4 45.18 9.1c.4 1.9.72 4.1.9 6.48.76 9.1.06 20.92-.92 29.76z" fill="#f4617e"/><path d="M106.1 121.57c-1.08.7-2.16 1.06-3.07 1.32 0 0-.06.02-.2.05-.08.02-.16.05-.24.08-.2.06-.5.16-.83.3-.32.16-.54.34-.64.6-.4 1.04 0 7.24 0 7.24l-1.94-.67-11.78-4.1s.16-3.2 0-6.13-.4-18.6 3.47-21.3c3.86-2.7 14.98-1.04 16.24.47l1.13 6.85c.76 4.44.06 13.84-2.15 15.3z" fill="#f1bf9c"/><path d="M99.9 124.44c.57-.5 1.3-.88 1.9-1.12-.32.16-.54.34-.64.6-.4 1.04 0 7.24 0 7.24l-1.94-.67c-.14-1.98-.3-5.17.7-6.04z" class="Ab"/><path d="M99.2 92.62s-5.25-.2-8.7 1c-7.07 2.47-8.7 8.83-8.38 13.27.32 4.5 2.8 7.7 3.42 9.17s.68 4.14 1.16 4.98c.47.85 8.43 2.18 9.27 1.65s2.92-3.5 3.08-4.77-.05-4.4.26-5.5c.32-1.1 1.73-2.54 2.52-2.4.8.16 1.26 1.54 1.58 2.92s1 1.38 1.3 1.06c.32-.32.16-3.76.37-4.82s.63-1.33.53-4.45c-.1-3.13.83-2.3 2.3-4.1 8.03-7.44-8.7-8.02-8.7-8.02z" fill="#39250d"/><g class="Ab"><path d="M114 170.76v.01l.6 1.25 3.7 6.45.02.01 1.7 2.03c3.6 3.36 8.5 2.52 10.77.01v.01s18.97-17.57 20.74-17.75c1.78-.18 2.07.12 4.02-.18 1.95-.28 2.86-1.26 2.86-1.26s-3.66-5.16-4.23-8.32c-1.45.93-4.14 3.2-5.92 4.26-1.84 1.1-13.17 7.2-19.14 10.64l-1.36-3.24c-.01.04-2.2 4.3-6.76 6.03-4.28 1.65-6.72.2-7 .05z"/><path d="M128.18 165.67c-1.07 1.13-3.08 3.05-5.6 4.35 3.48-1.98 5.18-5.28 5.2-5.32l.4.97z"/></g><path d="M94.62 239.28a23.67 23.67 0 0 1-.85 2.34c-2.88 6.6-8.36 20.75-9.88 26.13-1.48 5.24-5.24 36.02-5.24 36.02-.2.45-.75 1.02-1.54 1.58.62-7.4 3.06-31.36 4-35.4 1.14-5 1.62-6.92 3.1-10.28 1.46-3.37 8.44-19.7 4.44-27.68-2.6-5.22-3.7-10.04-4.15-12.75 1.43 6.57 7.58 11.94 7.58 11.94l2.56 8.1z" fill="#d84c6d"/><path d="M129.04 164.7c-.02.02-.32.38-.86.96-1.07 1.13-3.08 3.05-5.6 4.35-.24.15-.5.26-.73.38l-.84.34c-.37.15-.75.26-1.1.36-2.47.7-4.2.36-5.14.02-.13-.04-.24-.1-.34-.13l-.26-.13c-.04-.02-.07-.04-.1-.04-.02-.02-.04-.02-.06-.04l-.04-.02v.02l.62 1.24 3.7 6.45.02.02h0s-.5 6.48 1.53 16c1.1 5.32 1.55 11.63 1.72 15.98h0c.32 5.18.5 13.65-.04 11.3-.24-1.1-2.52-8.3-2.84-8.3-.4.15-1.16 3.56-1.16 3.56-1.06 3.75-3.76 8.27-10.6 8.58-11.77.53-34.8-10.06-35.16-13.1-.04-.3-.04-.66-.04-1.07 0-3.52 1.2-10.1 1.2-10.1.5-3.88 1.57-10.78 3.46-17.25 2.26-7.7 2.07-13.48-2.95-22.28-6.22-10.9-9-26-2.47-32.42 2.02-2 5.87-5.16 12.3-2.7l1.53-1.68s11.25 2.53 19.62 7.86v1.66l.58.28c7.45 3.52 13.4 7.4 16.35 12.82 1.88 3.5 5.2 9.86 7.67 17.06z" class="AZ"/><path d="M104.45 133.76v.8s-8.84-3.83-13.68-5.42c1.07.3 9.14 2.45 13.68 4.62zm14.6 56.2c-.34-1.78-1.77-5.83-4.06-11.05-2.98-6.8-5.96-12.43-8.36-19.3l5.48 9.92 1.9 1.26s.02.02.04.06c.2.4.37.8.58 1.2.97 1.87 3.47 6.07 3.7 6.45l.02.02v.02c0-.02-.34 4.47.7 11.44z" class="Ak"/><linearGradient id="J" gradientUnits="userSpaceOnUse" x1="236.001" y1="167.762" x2="264.743" y2="167.762"><stop offset=".035" stop-color="#602213"/><stop offset=".571" stop-color="#6d310e"/><stop offset="1" stop-color="#7a4108"/></linearGradient><path d="M236 162.1s9.64 6.12 2.53 24.3c-2.27 5.8 12.12 1.73 15.5 4.48 3.37 2.75 10.08-4.22 10.63-8.03.73-5.06-3.77-4.24-5.4-15.8-2.58-18.34-13.73-23.06-13.73-23.06" fill="url(#J)"/><linearGradient id="K" gradientUnits="userSpaceOnUse" x1="283.084" y1="262.408" x2="313.056" y2="262.408"><stop offset="0" stop-color="#0060d2"/><stop offset="1" stop-color="#02f"/></linearGradient><path d="M283.08 246.62l4.12 25.84h.04c.44 3.2 5.1 5.74 10.83 5.74 6 0 10.87-2.8 10.87-6.22l4.12-25.35h-29.98z" fill="url(#K)"/><linearGradient id="L" gradientUnits="userSpaceOnUse" x1="283.09" y1="247.176" x2="284.23" y2="247.176"><stop offset="0" stop-color="#9493e3"/><stop offset=".056" stop-color="#8887d9"/><stop offset=".236" stop-color="#6665bf"/><stop offset=".419" stop-color="#4b4aaa"/><stop offset=".605" stop-color="#38379c"/><stop offset=".796" stop-color="#2d2c93"/><stop offset="1" stop-color="#292890"/></linearGradient><path d="M284.05 246.63a3.89 3.89 0 0 0 .18 1.1l-1.14-1.1h.96z" opacity=".28" fill="url(#L)"/><ellipse cx="298.07" cy="246.62" rx="14.99" ry="8.58" fill="#d0dcfe"/><ellipse cx="298.07" cy="246.62" rx="13.04" ry="6.62" fill="#272c91"/><linearGradient id="M" gradientUnits="userSpaceOnUse" x1="310.94" y1="246.593" x2="284.875" y2="246.593"><stop offset="0" stop-color="#9493e3"/><stop offset=".056" stop-color="#8887d9"/><stop offset=".236" stop-color="#6665bf"/><stop offset=".419" stop-color="#4b4aaa"/><stop offset=".605" stop-color="#38379c"/><stop offset=".796" stop-color="#2d2c93"/><stop offset="1" stop-color="#292890"/></linearGradient><path d="M298.07 254.3c-8.23 0-13.96-4.07-13.96-7.7 0-3.65 5.73-7.7 13.96-7.7s13.96 4.07 13.96 7.7-5.73 7.7-13.96 7.7z" fill="url(#M)"/><linearGradient id="N" gradientUnits="userSpaceOnUse" x1="310.942" y1="246.594" x2="284.875" y2="246.594"><stop offset="0" stop-color="#00cbff"/><stop offset=".267" stop-color="#00aef3"/><stop offset="1" stop-color="#0060d2"/></linearGradient><path d="M312.03 246.6c0 .98-.42 2-1.2 2.95-2.08 2.6-6.76 4.77-12.78 4.77-7.42 0-12.8-3.3-13.8-6.63a3.72 3.72 0 0 1-.16-1.08c0-3.65 5.74-7.7 13.96-7.7 8.23-.01 13.96 4.06 13.96 7.7z" fill="url(#N)"/><linearGradient id="O" gradientUnits="userSpaceOnUse" x1="284.803" y1="248.844" x2="311.339" y2="248.844"><stop offset="0" stop-color="#00cbff"/><stop offset=".267" stop-color="#00aef3"/><stop offset="1" stop-color="#0060d2"/></linearGradient><path d="M311.34 248.84c-.15.24-.3.47-.5.7-2.08 2.6-6.76 4.77-12.78 4.77-6.54 0-11.5-2.57-13.26-5.47 1.76-2.9 6.73-5.46 13.26-5.46 6.55 0 11.52 2.57 13.28 5.46z" fill="url(#O)"/><use xlink:href="#U" fill="#73bdff"/><linearGradient id="P" gradientUnits="userSpaceOnUse" x1="276.823" y1="230.508" x2="313.038" y2="230.508"><stop offset="0" stop-color="#2480c2"/><stop offset="1" stop-color="#2480c2" stop-opacity="0"/></linearGradient><use xlink:href="#U" opacity=".83" fill="url(#P)"/><path d="M457.97 278.12v-14.38h-25.3c-2.58 0-4.6-1.32-4.6-3.02s2.02-3.03 4.6-3.03h25.3v-14.37c0-1.7 2-3.06 4.57-3.06s4.56 1.34 4.56 3.06v14.37h25.3c2.58 0 4.6 1.33 4.6 3.03 0 1.7-2.02 3.02-4.6 3.02h-25.3v14.38c0 1.7-2 3.05-4.56 3.05-2.56 0-4.57-1.34-4.57-3.05zm7.4-18.7v-16.1c0-.54-1.1-1.32-2.84-1.32-1.74 0-2.85.78-2.85 1.32v16.1h-27.03c-1.73 0-2.88.77-2.88 1.3 0 .5 1.15 1.28 2.88 1.28h27.03v16.12c0 .53 1.1 1.3 2.85 1.3 1.7 0 2.84-.8 2.84-1.3V262h27.04c1.73 0 2.88-.77 2.88-1.28s-1.15-1.3-2.88-1.3h-27.04z" class="Aa Ae"/><path d="M458.83 243.3c0-1.2 1.66-2.18 3.7-2.18 2.03 0 3.7.98 3.7 2.18v14.92h29.92v2.5c0 1.17-1.68 2.15-3.74 2.15h-26.18v15.25c0 1.2-1.67 2.2-3.7 2.2-2.04 0-3.7-1-3.7-2.2v-15.25h-26.17c-2.06 0-3.75-.97-3.75-2.15v-2.5h29.92V243.3z"/><path d="M432.66 256.08h26.17v-15.24c0-1.2 1.66-2.2 3.7-2.2 2.03 0 3.7.97 3.7 2.2v15.24h26.18c2.06 0 3.74.97 3.74 2.16 0 1.18-1.68 2.15-3.74 2.15h-26.18v15.25c0 1.2-1.67 2.18-3.7 2.18-2.04 0-3.7-.98-3.7-2.18V260.4h-26.17c-2.06 0-3.75-.97-3.75-2.15 0-1.2 1.68-2.16 3.75-2.16zm27.77-121.88c.38-.22.84-.36 1.32-.44l.78-.05c.75 0 1.5.17 2.05.5 1.15.67 1.15 1.76 0 2.42-1.14.67-3 .67-4.14 0-1.15-.66-1.15-1.75-.01-2.42z" fill="#414042"/><path d="M460.43 136.63c1.15.67 3 .67 4.14 0 .55-.3.83-.72.86-1.13v122.8s0 .65-.86 1.2c-1.1.73-3 .67-4.14 0-.6-.35-.9-.82-.85-1.28l-.01-122.8c.01.44.3.87.86 1.2z" fill="#231f20"/><path d="M541.84 102.96l.1 96.4-2.8 1.63-155.7-186.9 2.8-1.63z" fill="#2f3133"/><path d="M535.67 194.57l-150.35-87.45-.08-87.37L535.6 107.2z" class="AZ"/><path d="M471.22 159.8l-4.17 2.43v-3.14l2.64-1.8z" fill="#1d374e"/><path d="M539.03 104.6L383.4 14.08l.08 96.4L539.12 201l-.1-96.4zm-3.36 89.78l-150.35-87.44-.07-87.18L535.6 107.2l.07 87.18z" fill="#287dbc"/><path d="M467.05 162.22l-14.1-8.2v-3.14l14.1 8.2z" fill="#0f2034"/><g class="Aa"><path d="M454.78 107.16l12.97 7.56c3.2-5.74 2.47-18.9 2.47-18.9l-12.97-7.55s-.13 16.65-2.47 18.9z"/><path d="M462.66 93.2c0 .54.38 1.2.84 1.47.47.27.84.05.84-.5s-.37-1.2-.84-1.47c-.46-.27-.84-.05-.84.5z"/></g><use xlink:href="#V" fill="#ff9d26"/><path d="M434.7 66.74c0 .54.38 1.2.84 1.47s.84.05.84-.5-.37-1.2-.84-1.47c-.47-.26-.84-.05-.84.5z" class="Ai"/><use xlink:href="#V" x="64.45" y="57.84" fill="#ff8400"/><path d="M499.16 124.58c0 .54.38 1.2.84 1.47.46.27.84.05.84-.5s-.37-1.2-.84-1.47c-.47-.27-.84-.05-.84.5z" class="Ai"/><g class="Aa"><path d="M479.45 111.5l12.97 7.56c3.2-5.74 2.47-18.9 2.47-18.9l-12.97-7.55c0-.01-.13 16.66-2.47 18.9z"/><path d="M487.33 97.56c0 .54.38 1.2.84 1.46s.84.05.84-.5-.37-1.2-.84-1.46c-.46-.27-.84-.05-.84.5z"/></g><g fill="#a6cbfe"><path d="M412.95 100.47l12.97 7.55c3.2-5.74 2.47-18.9 2.47-18.9l-12.97-7.55c-.01 0-.13 16.66-2.47 18.9z"/><path d="M420.83 86.5c0 .54.37 1.2.84 1.47.46.27.84.05.84-.5s-.38-1.2-.84-1.47-.84-.05-.84.5z"/></g><g fill="#8fc3ff"><path d="M394.87 74l12.97 7.56c3.2-5.74 2.47-18.9 2.47-18.9l-12.97-7.56c-.01 0-.13 16.67-2.47 18.9z"/><path d="M402.75 60.05c0 .54.37 1.2.84 1.47.47.27.84.05.84-.5s-.38-1.2-.84-1.47-.84-.05-.84.5z"/></g><path d="M432.6 121.93l12.97 7.56c3.2-5.74 2.47-18.9 2.47-18.9l-12.97-7.55c0-.01-.13 16.65-2.47 18.9z" fill="#ff4d75"/><path d="M440.5 107.98c0 .54.37 1.2.84 1.47s.84.05.84-.5-.38-1.2-.84-1.47-.84-.05-.84.5z" class="Ai"/><g fill="#a6cbfe"><path d="M465.4 141.1l12.97 7.56c3.2-5.74 2.47-18.9 2.47-18.9l-12.97-7.55c0-.01-.13 16.65-2.47 18.9z"/><path d="M473.3 127.14c0 .54.38 1.2.84 1.47s.84.05.84-.5-.38-1.2-.84-1.47c-.46-.27-.84-.04-.84.5z"/></g><g class="Aa"><use xlink:href="#V" x="82.81" y="87.2"/><path d="M517.5 153.94c0 .54.38 1.2.84 1.47.46.27.84.05.84-.5s-.38-1.2-.84-1.46c-.46-.28-.84-.06-.84.48z"/></g><path d="M513.36 126.5l12.97 7.56c3.2-5.74 2.47-18.9 2.47-18.9l-12.97-7.56s-.13 16.66-2.47 18.9z" fill="#ff9d26"/><path d="M521.25 112.56c0 .54.37 1.2.84 1.47s.84.05.84-.5-.38-1.2-.84-1.47c-.47-.27-.84-.06-.84.5z" class="Ai"/><path d="M439.76 324.1c11.43 6.66 29.95 6.66 41.38 0s11.43-17.45 0-24.1c-11.43-6.66-29.95-6.66-41.38 0-11.43 6.65-11.43 17.44 0 24.1z" class="Aa Ae"/><path d="M471.7 298.04c2.48-.64 10.34 2.24 6.42 6.42-4.3 4.6-6.7 8.3-7.76 9.28-1.08.98-5.62 1-6.33-.7-.72-1.7 1.36-10.36 1.36-10.36s4.84-4.27 6.3-4.65zm-22.52 8.76c-2.77.01-8.26 2.67-5.5 6.25a575.85 575.85 0 0 0 7.46 9.24c1.63 1.94 4.75 1.73 6.04.86s.03-6.68.03-6.68-6.56-9.5-8.03-9.67z" class="Am"/><path d="M481.18 215.94c4.1 27.53-4.5 32.53-3.87 46.54 1.15 16.8-6.24 28.46-4.16 40.23.78 4.4-7.88 3.4-7.75 0 .6-17.42-3.05-27.08 1.43-38.96-.42-3.57-3.4-23.75-4.16-35.27-1.18 20-4.88 42.22-5.46 44.68 3.63 21.04-1.54 27.12 0 43.3-7.9 1.4-8.62-4.78-8.62-4.78 2.87-17.7-4.45-19.88-1.23-44.17.55-10.57-7.2-25.78-2.7-51.58 1.3-2.66 35.75-2.76 36.5.01z" class="Ah"/><path d="M472.43 228.48l-22.74-1.7 23.48 3.92z" fill="#0f2034"/><path d="M434.57 200.56c4.73 4.6 9.36 8.18 9.36 8.18s2.16-.83 3.2-.6-1.62 6.92-1.62 6.92-4.3 1-5.38-1c-7.47-4.98-11.67-7.42-11.67-7.42l2.15-3.9c.01-.01 3.33-2.04 3.96-2.15z" class="Ac"/><path d="M446.4 165.7l4.95-.38 22.6 1.03 6.14.87c5.6.36 4.06 13.32 4.06 13.32s-4.27 8.83-4.27 18.18c0 9.34 1.83 14.77 2.15 16.95-4.3.44-4.74 12.82-19.38 12.82s-13.24-10.2-18.63-12.93c.25-1.1 3.44-12.06 3.44-17.6s-4.34-14.74-4.34-14.74l3.27-17.52z" class="AY Af"/><g fill="#1e1d1b"><path d="M461.52 130.8c1.22-.72 5.16-2.4 8.18-.94 5.88 2.82 9.4 22.76 9.17 24.77-.5-.58-.77-.8-.77-.8s1.5 9.13-4.3 15.28c-.04-1-.9-1.34-.9-1.34s-3.07 3.3-10.1 3.95c-3-.68-4.24-2.6-4.24-2.6s-.25 1.16.06 1.97c-4.95-1.36-6.3-5.45-6.3-5.45s-.06 1.08.38 2.8c-6.9-5.18-3.97-17.63-3.97-17.63s4.97-23.9 12.8-20z"/><path d="M460.14 137.88c1.56.22 1.38-7.1 1.38-7.1s-2.95 6.88-1.38 7.1z"/></g><path d="M430.8 196.32c1.47.8 3.25 2 3.72 3.64.65 2.28-3.6 7.76-6.46 7.17-3.42-.72-5.44-2.88-5.7-4.45-.07-3.75 4.45-8.53 8.44-6.36z" fill="#88bdb9"/><path d="M446.4 165.7c-.48-.16-6.64-3.1-11.95 10.43-1.08 2.75-14.48 18.36-14.64 20.75s3.34 6.3 3.34 6.3 6.35.54 7.64-5.87l12.35-14.1s5.6-9.55 3.26-17.52z" class="AY Af"/><path d="M493.4 156.55s-4.9-10.24-6.44-11.77c-1.54-1.53-3.88-2.6-4.17-4.15s.85-3.83.85-3.83-.65-10.14.4-10.14c1.15 0 1.65 4.35 1.65 4.35s5.35 1 6.5 2.83c1.15 1.8-.07 7 .07 7.77.8 2.8 7.92 11.62 7.92 11.62l-2.46 3.33h-4.32z" class="Ac"/><path d="M494.6 161.96c-.9-1.4-1.76-3.26-1.4-4.92.5-2.32 6.17-5.12 8.4-3.22 2.67 2.27 3.7 5.04 3.2 6.55-1.73 3.32-7.72 5.42-10.2 1.6z" fill="#88bdb9"/><path d="M479.45 167.15s2.38-1.84 9.5-2.62c2.6-1.12 7.05-2.15 7.05-2.15s2.8-4.9 8.38-3.13c.4.64 4.52 6.8 1.5 9.4s-21.7 11.88-21.7 11.88l-4.2-6.52-.52-6.87z" class="AY Af"/><path d="M378.23 287.88c10.36 6.03 27.17 6.03 37.53 0 10.36-6.04 10.36-15.82 0-21.86-10.36-6.03-27.16-6.03-37.53 0-10.36 6.04-10.36 15.82 0 21.86z" class="Aa Ae"/><path d="M393.87 263.93c1.5.8 1 2.27.5 3.4-1.94 4.35-9.1 7.1-9.1 7.1s-3.4 6.23-6.12 7.58c-2.17 1.08-3.8.38-4.8-1.07-.5-.73-.64-2.1-.6-3.6 3.68-.33 13.1-6.3 20.1-13.42z" fill="#555656"/><path d="M385.18 262.72c1.65-.5 7.18-.65 8.7.14s1 2.26.5 3.4c-1.94 4.34-9.1 7.1-9.1 7.1s-4.2 6.65-6.12 7.58c-2.2 1.07-3.8.38-4.8-1.07-1.5-2.17.3-9.92.3-9.92l10.54-7.23z" class="Am"/><path d="M383.24 255.48s1.94-.3 2.87 2.32c.4 1.1.4 8.62-.15 9.85-2.5 5.76-10.03 4.8-11.92 2.97-1.88-1.84-2.3-9.3-2.15-11.13.1-1.3 1.1-2.28 1.1-2.28l10.24-1.73z" fill="#7ca1bf"/><path d="M384.4 258.58c-3.08 3.5-10.85 3.62-11.56.43-1.36-6.12-2.87-15.7-1.36-30.66-2-9.85-6.17-39.23-6.17-39.23s22.53 9.68 23.3 13c-3.88 32.33-3.1 55.2-4.2 56.47z" fill="#2b5e85"/><path d="M417.7 276.95c2.15 1.36 2.53 5.92-1.35 7.4-1.86.7-7.86 2.28-11.95 2.55-3.45 1.74-8.83 2.04-9.53 1.55-3.33-2.36.95-5 .95-5s18.8-1.08 21.88-6.48z" fill="#555656"/><path d="M407.2 274.35c4.28.72 8.37.23 10.52 1.6s2.53 5.92-1.35 7.4c-1.86.7-7.86 2.28-11.95 2.55-3.45 1.74-8.83 2.04-9.53 1.55-3.33-2.36-1.56-9.64-1.56-9.64s9.6-4.16 13.87-3.44z" class="Am"/><path d="M405.54 263.37s1.15.5 1.6 1.6.44 8.66-.1 9.88c-2.5 5.76-11.84 4.78-13.73 2.93-1.88-1.85-1.48-9.07-1.32-10.9.1-1.3 1.1-2.28 1.1-2.28l12.43-1.22z" fill="#7ca1bf"/><path d="M404.2 188.06c5.8 17.92 2.8 42.8 2.8 42.8s.08 32.18-1.33 34.7c-2.12 3.77-8.9 4.44-11.52 1.96-1.68-1.6-3.27-18.22-.93-30.13-4.2-12.7-9.8-35.48-9.8-35.48s-12.75-5.03-15.55-7.6c-3.1-2.84-3.22-7.58-2.06-13.55.9-1.97 36.78 3.3 38.4 7.3z" fill="#3576ab"/><path d="M355.2 142.44s-2.48 11.08-1.28 13.25c3.12 5.65 15.32 1.88 15.32 1.88l-.68-12.85-13.36-2.28z" class="Ac"/><path d="M365.7 146.1l-3.28 9.22s4.3-4.66 3.28-9.22z" fill="#c7a496"/><path d="M371.22 117.67s-5.94-2.74-9.45-.6c-7.53 4.6-3.54 10.8-6.56 23.9-1.3 5.66 11.66 7.78 12.06 4.92l3.95-28.2z" fill="#6d6b6b"/><path d="M393.72 112.85c-2.04.18-3.08.25-3.4.87-.32.6-.18 7.38.22 9.7-.14.65-3.7 3.15-10.8.18-7.1-2.97-5.45-6.53-5.45-6.53s.82-2.67.75-5.78c1.22-1.12 6.17-3.44 6.17-3.44l8.8.43 3.14 1.56c-.01.01 1.18 2.85.57 3z" class="Ac"/><path d="M402.15 131.76c-7-3.9-10.23-6.7-11.63-8.34-14.82-.18-16.26-6.35-16.26-6.35s-10 .48-12.28 10.26c-1.53 6.62 5.28 26.47 5.06 35S364.78 181 364.78 181s4.5 9.43 21.75 12.83c12.06 2.38 18.52-5.12 18.52-5.12s-1.83-20.42-.7-39.13c.5-3.12-.14-14.24-2.2-17.8z" class="AZ"/><path d="M407.57 121.3c2.88 3.58 15.37 15.2 17.1 19.98s.7 10.8-1.83 11.68c-3.16 1.1-11.8-1.73-11.8-1.73l-3.45-17.46-4.95-7.64 1.26-4.83s1.9-1.08 3.7 0z" class="Ac"/><path d="M415.04 138.22l7.1 5.48s-2.47-5.14-7.1-5.48z" fill="#c7a496"/><path d="M394.12 92.95c2.26 2.08 1.68 7.3 1.68 7.3s1.7 5.94-.55 11.8c-.87 2.28-4.96-.85-4.96-.85s-2.5.9-3.42-1.42l-3.27-4.53 4.34-14.34c0 .01 5.43 1.52 6.18 2.05z" class="Ac"/><path d="M393.33 93.4c.54 4.63-.86 7.96-.5 11.55-.63.6-2.06-.9-3.77.98s-2.1 7.2-2.1 7.2-1.44 1.6-4.96 1.54-5.9-2.35-7-3.37c-2-5.87-3.1-5.07-3.72-11.98 0 0-1.2.07-2.03.33.4-1.38 2.3-3.04 2.3-3.04s-.75-1.7-.32-4.07c.57.8 1.34.72 1.34.72s3.4-5.37 8.13-6.42c-.07.6-.25 1.05-.25 1.05s6.5-2.46 11.02-1.32c-1.3.92-.48 1.8-.48 1.8s4.8 3.1 4.8 4.83c-.97-.6-1.87-.3-2.47.22z" fill="#603913"/><path d="M407.5 121.07c-.93-2.8-.93-5.8-1.26-7.2-.32-1.4-2.53-4.54-4.36-5.4s-7.23-.46-7.54 1.22 4.1 8.02 3.6 8.5c-.5.47-3.73-3.88-4.63-3.17s1.78 5.07 2.47 6.07c.7 1 3.1 2.92 6.82 5.07 1.54-.05 5.78-2.4 4.9-5.07z" class="Ac"/><path d="M392.8 137.87c2.3-7.24 9.96-6.97 13.86-4.65s5.02 3.5 7.82 4.65c4.3 1.8.44 14.38-3.73 13.32l-9.48-2.44c-3.16-.87-10.77-3.64-8.47-10.88z" fill="#6d6b6b"/><defs ><path id="R" d="M222.6 276.92l.2 4c.04.6.36 1.15.27 1.7-.15.86-7.86 16.33-11.62 15.94-2.76-.3-6.73-3.22-2.3-4.75 2.17-1.28 3.74-13.6 3.87-13.95.2-.56 0-5.6.37-3.9"/><path id="S" d="M220.03 293.77s0 .01-.01.04l-1.72 5.3c-.5 1.8-5 3.53-6.52 3.5.74-.1 1.8-1.8 3.2-4.56 2.17-4.23 3.5-5.83 4.2-5.5.7.33.84 1.22.84 1.22z"/><path id="T" d="M235.52 183.13s0-1.6-.86-2.52c-.35-.37-2.56-1.17-2.56-1.17s-1.47.72-1.85.7c-.38 0-.95-.2-1.2-.56-.45-.64 3.07-1.86 3.44-2s4.1 1.63 4.1 1.63"/><path id="U" d="M307.16 236.88c1.1-4.2 2.9-7.6 3.3-13 0 0-3.33 3.24-7.37 7.4-1.95-14.55-11.34-22.58-11.34-22.58 2.3 7.75 2.16 16.75 1.18 22.58-4.04-4.15-10.9-3.16-10.9-3.16 4.68 3.95 5.8 6.8 7.1 11.35-8.37-1.43-11.95 5.3-11.95 5.3 7.73-4.45 14.17 4.37 14.17 4.37.48 1.6 3.08 3.2 6.67 3.2 2.9 0 5.17-1.05 6.18-2.3.24-.3.5-.9.5-.9 3.74-7.58 13.2-13.56 13.2-13.56-4.56-1.26-8.8-.62-10.76 1.3z"/><path id="V" d="M426.82 80.7l12.97 7.55c3.2-5.74 2.47-18.9 2.47-18.9l-12.97-7.56c0 .01-.13 16.67-2.47 18.92z"/></defs></svg>