<svg xmlns="http://www.w3.org/2000/svg" xmlns:xlink="http://www.w3.org/1999/xlink" width="178.083" height="47" viewBox="0 0 178.083 47">
  <defs>
    <filter id="Path_124">
      <feOffset dy="3" input="SourceAlpha"/>
      <feGaussianBlur stdDeviation="3" result="blur"/>
      <feFlood flood-opacity="0.161" result="color"/>
      <feComposite operator="out" in="SourceGraphic" in2="blur"/>
      <feComposite operator="in" in="color"/>
      <feComposite operator="in" in2="SourceGraphic"/>
    </filter>
  </defs>
  <g id="Group_12" data-name="Group 12" transform="translate(-64.61 -205.514)">
    <g id="Group_10" data-name="Group 10" transform="translate(64.61 205.514)">
      <path id="Path_121" data-name="Path 121" d="M22.2-98.108a15.372,15.372,0,0,0,15.356-15.4,15.346,15.346,0,0,0-4.509-10.876,15.346,15.346,0,0,0-10.887-4.481,15.337,15.337,0,0,0-10.864,4.492A15.337,15.337,0,0,0,6.8-113.5a15.38,15.38,0,0,0,4.5,10.891A15.38,15.38,0,0,0,22.2-98.108Zm-.04-24.849A9.241,9.241,0,0,1,31.21-113.5a9.159,9.159,0,0,1-9.014,9.453,9.141,9.141,0,0,1-9.054-9.453A9.183,9.183,0,0,1,22.156-122.957ZM48.4-105.726c2.2,1.4,7.219,7.1,7.219,7.1H62.84L52.27-109.356,62.4-118.769h-7.02l-8.576,8.017v-17.59H41.142v29.715h5.664v-5.584S46.2-107.122,48.4-105.726Zm17.031-22.616v29.715h6.182v-29.715Z" transform="translate(43.454 136.984)" fill="#4a4a4a"/>
      <path id="Path_135" data-name="Path 135" d="M22.2-98.108a15.372,15.372,0,0,0,15.356-15.4,15.346,15.346,0,0,0-4.509-10.876,15.346,15.346,0,0,0-10.887-4.481,15.337,15.337,0,0,0-10.864,4.492A15.337,15.337,0,0,0,6.8-113.5a15.38,15.38,0,0,0,4.5,10.891A15.38,15.38,0,0,0,22.2-98.108Zm-.04-24.849A9.241,9.241,0,0,1,31.21-113.5a9.159,9.159,0,0,1-9.014,9.453,9.141,9.141,0,0,1-9.054-9.453A9.183,9.183,0,0,1,22.156-122.957ZM48.4-105.726c2.2,1.4,7.219,7.1,7.219,7.1H62.84L52.27-109.356,62.4-118.769h-7.02l-8.576,8.017v-17.59H41.142v29.715h5.664v-5.584S46.2-107.122,48.4-105.726ZM65.433-98.626Z" transform="translate(43.454 136.984)" fill="#d84f57"/>
      <g id="_2028572985888">
        <path id="Path_123" data-name="Path 123" d="M6091.677,5352.1a7.6,7.6,0,0,1-1.832,1.255,13.4,13.4,0,0,1-7.482,1.591,15.263,15.263,0,0,1-8.021-3.406c-.225-.208-.209-.211-.455-.273.047-.14.075-.12-.067-.08.041-.127.06-.1-.074-.075.022-.111.044-.083-.07-.076l-.062-.077.062.077c-.005.117-.037.1.07.076-.021.134-.052.117.074.075-.037.145-.072.132.067.08a18.989,18.989,0,0,0,3.333,3.148l1.272.842c.594.542.272.215.676.416a7.321,7.321,0,0,0,1.377.8c.414.16.225.194.659.369.29.117.544.131.826.265a7.505,7.505,0,0,0,1.559.645c.323.08.213.125.406.228l.283.081a2.922,2.922,0,0,0,.875.149c.147,0,.082-.014.2.023.006,0,.15.07.2.087a12.074,12.074,0,0,0,2.043.435,21.1,21.1,0,0,0,3.937.384,22.947,22.947,0,0,0,4.813-.488,7.243,7.243,0,0,0,1.707-.369c.485-.152.177.034.772-.249.47-.223,1.106-.25,1.677-.508l.78-.317c.214-.1.113-.11.322-.2.121-.05.249-.058.395-.1a4.9,4.9,0,0,0,.693-.4,5.427,5.427,0,0,0,1.451-.738l3.1-2.218c.121-.1.158-.167.3-.281a3.315,3.315,0,0,0,.808-.8c.193-.218.4-.281.594-.5a28.563,28.563,0,0,0,1.955-2.345c.164-.253.278-.359.434-.583s.256-.471.409-.687l.824-1.359a22.782,22.782,0,0,0,1.517-3.8,21.033,21.033,0,0,0,.7-3.519c.642-4.987-.953-9.2-5.895-11.186a29.382,29.382,0,0,0-6.881-1.713c-2.933-.318-5.018-.289-7.01,1.2a5.735,5.735,0,0,0-2.051,6.043,11.959,11.959,0,0,0,.655,1.526c.678,1.538,1.435,2.88,1.995,4.417a10.942,10.942,0,0,1-.968,8.771l-.847,1.262A9.257,9.257,0,0,1,6091.677,5352.1Z" transform="translate(-6068.543 -5312.148)" fill="#4a4a4a" fill-rule="evenodd"/>
        <g data-type="innerShadowGroup">
          <path id="Path_124-2" data-name="Path 124" d="M4900.81,5353.041l.062.076c.115-.006.094-.033.072.077.133-.021.115-.052.074.076.141-.04.113-.062.066.079.246.063.231.065.454.273a15.255,15.255,0,0,0,8.022,3.405,13.4,13.4,0,0,0,7.482-1.591,7.613,7.613,0,0,0,1.832-1.255,13.453,13.453,0,0,1-2.523-2.769,10.771,10.771,0,0,1-.891-10.452c.686-1.567,2.261-4.277,2.385-5.55a5.5,5.5,0,0,0-1.062-4.1,5.053,5.053,0,0,0-1.347-1.348,7.371,7.371,0,0,0-1.739-.885c-3.275-1.115-10.4.581-13.1,2.049a8.919,8.919,0,0,0-2.9,2.424,7.763,7.763,0,0,0-1.736,3.511A20.05,20.05,0,0,0,4900.81,5353.041Z" transform="translate(-4895.739 -5314.232)" fill="#d84f57" fill-rule="evenodd"/>
          <g transform="matrix(1, 0, 0, 1, 0, 0)" filter="url(#Path_124)">
            <path id="Path_124-3" data-name="Path 124" d="M4900.81,5353.041l.062.076c.115-.006.094-.033.072.077.133-.021.115-.052.074.076.141-.04.113-.062.066.079.246.063.231.065.454.273a15.255,15.255,0,0,0,8.022,3.405,13.4,13.4,0,0,0,7.482-1.591,7.613,7.613,0,0,0,1.832-1.255,13.453,13.453,0,0,1-2.523-2.769,10.771,10.771,0,0,1-.891-10.452c.686-1.567,2.261-4.277,2.385-5.55a5.5,5.5,0,0,0-1.062-4.1,5.053,5.053,0,0,0-1.347-1.348,7.371,7.371,0,0,0-1.739-.885c-3.275-1.115-10.4.581-13.1,2.049a8.919,8.919,0,0,0-2.9,2.424,7.763,7.763,0,0,0-1.736,3.511A20.05,20.05,0,0,0,4900.81,5353.041Z" transform="translate(-4895.74 -5314.23)" fill="#fff" fill-rule="evenodd"/>
          </g>
        </g>
        <path id="Path_125" data-name="Path 125" d="M6467.316,1963.3a6.089,6.089,0,0,0-5.587,6.675,6.344,6.344,0,0,0,6.778,5.472,6.1,6.1,0,1,0-1.191-12.147Z" transform="translate(-6454.951 -1963.263)" fill="#d84f57" fill-rule="evenodd"/>
        <path id="Path_126" data-name="Path 126" d="M11221.115,1966.289a6.05,6.05,0,0,0-5.248,8.771,6.157,6.157,0,1,0,5.248-8.771Z" transform="translate(-11188.008 -1966.261)" fill="#4a4a4a" fill-rule="evenodd"/>
      </g>
    </g>
    <g id="Group_11" data-name="Group 11" transform="translate(184.34 217.224)">
      <path id="Path_121-2" data-name="Path 121" d="M343.91-97.349c0,5.544,3.749,10.091,9.054,10.091,1.915,0,4.467-.6,5.624-1.875V-87.7h5.624v-20.143h-5.624v10.011c0,3.709-2.353,4.946-4.866,4.946-2.274,0-4.148-2.034-4.148-4.946v-10.011H343.91Zm36.1-5.265v-5.225h-4.786v-6.741l-5.664,4.108v2.633h-3.031v5.225h3.031v6.581c0,5.225,4.308,8.775,10.331,8.775v-5.624c-2.593,0-4.667-1.037-4.667-3.311v-6.422Zm17.031,7.7a4.993,4.993,0,0,1-4.348,2.034,4.61,4.61,0,0,1-1.675-.239l11.248-8.057a10.616,10.616,0,0,0-10.051-7.1,10.478,10.478,0,0,0-7.41,3.1,10.478,10.478,0,0,0-3.041,7.433,10.731,10.731,0,0,0,10.929,10.49c3.59,0,7.14-1.635,8.855-4.188Zm-9.533-2.832a4.7,4.7,0,0,1,4.707-4.866,4.545,4.545,0,0,1,2.792.957l-7.339,5.225A4.586,4.586,0,0,1,387.506-97.748Z" transform="translate(-343.91 114.58)" fill="#4a4a4a"/>
    </g>
  </g>
</svg>
