<?xml version="1.0" encoding="utf-8"?>
<!-- Generator: Adobe Illustrator 24.0.2, SVG Export Plug-In . SVG Version: 6.00 Build 0)  -->
<svg version="1.1" id="Layer_1" xmlns="http://www.w3.org/2000/svg" xmlns:xlink="http://www.w3.org/1999/xlink" x="0px" y="0px"
	 viewBox="0 0 358.9 134.2" style="enable-background:new 0 0 358.9 134.2;" xml:space="preserve">
<style type="text/css">
	.st0{fill:#FAA741;}
	.st1{fill:#843032;}
	.st2{fill:#FFFFFF;}
	.st3{fill:none;stroke:#843032;stroke-width:2.6163;stroke-miterlimit:10;}
</style>
<g>
	<path id="path9" class="st0" d="M228.6,67.1L228.6,67.1c1.5-4.8,2.3-10,2.3-15.3c0-28.6-23.2-51.7-51.7-51.7s-51.7,23.2-51.7,51.7
		c0,5.3,0.8,10.5,2.3,15.4c-0.8-3.6-1.3-7.4-1.3-11.3c0-28,22.7-50.7,50.7-50.7s50.7,22.7,50.7,50.7
		C229.8,59.6,229.4,63.4,228.6,67.1L228.6,67.1z"/>
	<polygon id="polygon11" class="st1" points="127.5,75.3 152.6,68.2 204.8,68.2 231.5,75.3 	"/>
	<polygon id="polygon13" class="st1" points="204.6,44.1 152.8,44.1 152.8,72.7 204.6,72.7 	"/>
	<path id="path15" class="st1" d="M205.6,45.9v-4.4h3.5l2.1-5.5l-31.4-12.5c0,0-0.9-0.4-1.9,0L146.5,36l2.1,5.5h3.5v4.4H205.6z"/>
	<path id="path17" class="st2" d="M207.3,39l-27.5-10.9c0,0-0.6-0.3-1.2,0L151,39H207.3z"/>
	<polygon id="polygon19" class="st2" points="160.4,46.1 155.6,46.1 155.6,71.5 160.4,71.5 	"/>
	<polygon id="polygon21" class="st2" points="170.9,46.1 166,46.1 166,71.5 170.9,71.5 	"/>
	<polygon id="polygon23" class="st2" points="181.3,46.1 176.5,46.1 176.5,71.5 181.3,71.5 	"/>
	<polygon id="polygon25" class="st2" points="191.8,46.1 187,46.1 187,71.5 191.8,71.5 	"/>
	<polygon id="polygon27" class="st2" points="202.2,46.1 197.4,46.1 197.4,71.5 202.2,71.5 	"/>
	<polygon id="polygon29" class="st0" points="175.3,35.4 174.2,36.5 174.5,38 173.1,37.3 171.8,38 172,36.5 170.9,35.4 172.5,35.2 
		173.1,33.8 173.8,35.2 	"/>
	<polygon id="polygon31" class="st0" points="169.3,35.4 168.1,36.5 168.4,38 167,37.3 165.7,38 165.9,36.5 164.8,35.4 166.4,35.2 
		167,33.8 167.7,35.2 	"/>
	<polygon id="polygon33" class="st0" points="187.3,35.4 186.2,36.5 186.5,38 185.1,37.3 183.8,38 184,36.5 182.9,35.4 184.4,35.2 
		185.1,33.8 185.8,35.2 	"/>
	<polygon id="polygon35" class="st0" points="193.4,35.4 192.3,36.5 192.5,38 191.2,37.3 189.8,38 190.1,36.5 189,35.4 190.5,35.2 
		191.2,33.8 191.9,35.2 	"/>
	<polygon id="polygon37" class="st0" points="182.6,33.1 180.8,34.8 181.2,37.2 179.1,36 177,37.2 177.4,34.8 175.7,33.1 
		178.1,32.8 179.1,30.6 180.2,32.8 	"/>
	<path id="path39" class="st0" d="M130.3,81.9v17.5h3.8c2.1,0,3.7-0.7,4.9-2c1.2-1.4,1.8-3.1,1.8-5.2v-3.1c0-2.1-0.6-3.8-1.8-5.2
		c-1.2-1.4-2.8-2-4.9-2L130.3,81.9L130.3,81.9z M134.1,79.5c2.9,0,5.2,0.9,7,2.7c1.8,1.8,2.7,4.1,2.7,6.9v3c0,2.8-0.9,5.1-2.7,6.9
		c-1.8,1.8-4.1,2.7-7,2.7h-9.3v-1.9l2.5-0.4V81.9l-2.5-0.4v-1.9L134.1,79.5L134.1,79.5z"/>
	<path id="path41" class="st0" d="M153.8,87.3c-1,0-1.9,0.4-2.6,1.3c-0.7,0.8-1.1,1.9-1.3,3.2l0,0.1h7.6v-0.4c0-1.2-0.3-2.2-1-3
		C156,87.7,155,87.3,153.8,87.3z M154.2,102c-2.3,0-4.1-0.8-5.5-2.3c-1.4-1.5-2-3.5-2-6v-0.7c0-2.4,0.7-4.3,2.1-5.9
		c1.4-1.6,3.1-2.3,5-2.3c2.2,0,3.9,0.7,5,2c1.1,1.3,1.7,3.1,1.7,5.4v1.9h-10.7l0,0.1c0,1.6,0.4,2.9,1.2,3.9s1.9,1.5,3.2,1.5
		c1,0,1.9-0.1,2.7-0.4s1.4-0.7,2-1.2l1.2,2c-0.6,0.6-1.4,1.1-2.3,1.4C156.8,101.9,155.6,102,154.2,102L154.2,102z"/>
	<polygon id="polygon43" class="st0" points="170.4,96.9 170.7,98.1 170.7,98.1 171,96.9 174.3,87.5 172.3,87.2 172.3,85.2 
		178.7,85.2 178.7,87.2 177.3,87.4 171.8,101.7 169.5,101.7 163.9,87.4 162.6,87.2 162.6,85.2 169,85.2 169,87.2 167,87.5 	"/>
	<path id="path45" class="st0" d="M197.2,90.4c0-2.6-0.6-4.7-1.8-6.3c-1.2-1.6-2.9-2.4-5.1-2.4c-2.1,0-3.7,0.8-4.9,2.5
		c-1.2,1.6-1.8,3.7-1.8,6.3v0.4c0,2.6,0.6,4.7,1.8,6.4c1.2,1.6,2.8,2.4,4.9,2.4c2.2,0,3.9-0.8,5.2-2.4c1.2-1.6,1.8-3.8,1.8-6.4V90.4
		z M200.2,90.8c0,3.2-0.9,5.9-2.8,8.1c-1.9,2.1-4.3,3.2-7.2,3.2c-2.9,0-5.2-1.1-7-3.2s-2.7-4.8-2.7-8.1v-0.3c0-3.2,0.9-5.9,2.7-8.1
		s4.1-3.2,7-3.2c2.9,0,5.3,1.1,7.2,3.2s2.8,4.8,2.8,8.1V90.8z"/>
	<path id="path47" class="st0" d="M215.9,93.8c0-1.9-0.4-3.4-1.1-4.6c-0.7-1.2-1.8-1.8-3.3-1.8c-0.8,0-1.6,0.2-2.2,0.6
		c-0.6,0.4-1.1,0.9-1.5,1.6v8c0.4,0.7,0.9,1.2,1.5,1.6c0.6,0.4,1.4,0.6,2.2,0.6c1.4,0,2.5-0.5,3.2-1.5c0.7-1,1.1-2.4,1.1-4
		L215.9,93.8L215.9,93.8z M202.4,107.5l2.5-0.6V87.6l-2.5-0.4v-1.9h5.1l0.3,2c0.6-0.8,1.2-1.3,2-1.7c0.8-0.4,1.7-0.6,2.7-0.6
		c2,0,3.6,0.8,4.8,2.4c1.1,1.6,1.7,3.8,1.7,6.4v0.3c0,2.4-0.6,4.3-1.7,5.8s-2.7,2.2-4.7,2.2c-1,0-1.9-0.2-2.7-0.5s-1.4-0.8-2-1.5
		v6.9l2.5,0.6v1.9h-8L202.4,107.5L202.4,107.5z"/>
	<path id="path49" class="st0" d="M233.7,90.4h-2.3l-0.5-2c-0.4-0.3-0.8-0.6-1.4-0.8s-1.2-0.3-1.9-0.3c-1.1,0-1.9,0.2-2.4,0.7
		c-0.5,0.5-0.8,1-0.8,1.7c0,0.7,0.2,1.2,0.7,1.5c0.5,0.4,1.4,0.7,2.8,1c2.1,0.4,3.6,1.1,4.6,1.8c1,0.8,1.5,1.8,1.5,3.1
		c0,1.5-0.6,2.7-1.8,3.6c-1.2,0.9-2.7,1.4-4.6,1.4c-1.3,0-2.4-0.1-3.4-0.4c-1-0.3-1.9-0.7-2.7-1.3l0-3.8h2.3l0.6,2.2
		c0.3,0.3,0.8,0.6,1.4,0.7c0.6,0.1,1.2,0.2,1.8,0.2c1.1,0,1.9-0.2,2.5-0.7c0.6-0.4,0.9-1,0.9-1.7c0-0.7-0.3-1.2-0.8-1.6
		s-1.5-0.8-2.9-1.1c-2-0.4-3.5-1-4.5-1.8c-1-0.8-1.5-1.8-1.5-3.1c0-1.3,0.6-2.5,1.7-3.4s2.6-1.4,4.5-1.4c1.3,0,2.4,0.2,3.4,0.5
		s1.8,0.8,2.5,1.4L233.7,90.4L233.7,90.4z"/>
	<polygon id="polygon51" class="st1" points="128.3,106.3 127.5,106.3 127.5,112.1 128.3,112.1 	"/>
	<path id="path53" class="st1" d="M138.4,106.3v5.9H138c-0.1,0-0.1,0-0.2,0s-0.1-0.1-0.1-0.1l-3.4-4.4c0,0.1,0,0.1,0,0.2
		c0,0.1,0,0.1,0,0.2v4.2h-0.7v-5.9h0.4c0,0,0.1,0,0.1,0s0,0,0.1,0c0,0,0,0,0.1,0s0,0,0.1,0.1l3.4,4.4c0-0.1,0-0.1,0-0.2
		c0-0.1,0-0.1,0-0.2v-4.2L138.4,106.3L138.4,106.3z"/>
	<path id="path55" class="st1" d="M146.7,107.2C146.7,107.2,146.7,107.2,146.7,107.2c-0.1,0.1-0.1,0.1-0.2,0.1s-0.1,0-0.2-0.1
		c-0.1,0-0.1-0.1-0.2-0.1c-0.1-0.1-0.2-0.1-0.3-0.1c-0.1,0-0.3-0.1-0.5-0.1s-0.3,0-0.5,0.1c-0.1,0-0.3,0.1-0.3,0.2
		c-0.1,0.1-0.2,0.2-0.2,0.3c0,0.1-0.1,0.2-0.1,0.4c0,0.2,0,0.3,0.1,0.4c0.1,0.1,0.2,0.2,0.3,0.3c0.1,0.1,0.3,0.1,0.4,0.2
		c0.2,0.1,0.3,0.1,0.5,0.2c0.2,0.1,0.3,0.1,0.5,0.2c0.2,0.1,0.3,0.2,0.4,0.3s0.2,0.3,0.3,0.4c0.1,0.2,0.1,0.4,0.1,0.6
		c0,0.3,0,0.5-0.1,0.7c-0.1,0.2-0.2,0.4-0.4,0.6c-0.2,0.2-0.4,0.3-0.6,0.4c-0.2,0.1-0.5,0.1-0.8,0.1c-0.4,0-0.7-0.1-1-0.2
		c-0.3-0.1-0.6-0.3-0.8-0.6l0.2-0.4c0,0,0-0.1,0.1-0.1s0.1,0,0.1,0c0,0,0.1,0,0.1,0s0.1,0.1,0.1,0.1c0.1,0,0.1,0.1,0.2,0.1
		c0.1,0,0.2,0.1,0.3,0.1s0.2,0.1,0.3,0.1c0.1,0,0.3,0,0.4,0c0.2,0,0.4,0,0.5-0.1s0.3-0.1,0.4-0.2c0.1-0.1,0.2-0.2,0.2-0.3
		c0.1-0.1,0.1-0.3,0.1-0.4c0-0.2,0-0.3-0.1-0.4c-0.1-0.1-0.2-0.2-0.3-0.3c-0.1-0.1-0.3-0.1-0.4-0.2c-0.2-0.1-0.3-0.1-0.5-0.2
		c-0.2-0.1-0.3-0.1-0.5-0.2c-0.2-0.1-0.3-0.2-0.4-0.3c-0.1-0.1-0.2-0.3-0.3-0.4c-0.1-0.2-0.1-0.4-0.1-0.7c0-0.2,0-0.4,0.1-0.6
		s0.2-0.4,0.4-0.5c0.1-0.1,0.3-0.3,0.6-0.4c0.2-0.1,0.5-0.1,0.8-0.1c0.3,0,0.6,0.1,0.9,0.2c0.3,0.1,0.5,0.3,0.7,0.4L146.7,107.2
		L146.7,107.2z"/>
	<polygon id="polygon57" class="st1" points="154.1,112.1 153.3,112.1 153.3,106.9 151.4,106.9 151.4,106.3 156,106.3 156,106.9 
		154.1,106.9 	"/>
	<polygon id="polygon59" class="st1" points="161.5,106.3 160.7,106.3 160.7,112.1 161.5,112.1 	"/>
	<polygon id="polygon61" class="st1" points="169,112.1 168.2,112.1 168.2,106.9 166.3,106.9 166.3,106.3 170.9,106.3 170.9,106.9 
		169,106.9 	"/>
	<path id="path63" class="st1" d="M177.9,111.5c0.2,0,0.5,0,0.7-0.1c0.2-0.1,0.4-0.2,0.5-0.3c0.1-0.1,0.2-0.3,0.3-0.5
		c0.1-0.2,0.1-0.4,0.1-0.7v-3.6h0.8v3.6c0,0.3-0.1,0.7-0.2,0.9c-0.1,0.3-0.3,0.5-0.5,0.8c-0.2,0.2-0.4,0.4-0.7,0.5
		c-0.3,0.1-0.6,0.2-1,0.2c-0.4,0-0.7-0.1-1-0.2c-0.3-0.1-0.5-0.3-0.7-0.5c-0.2-0.2-0.4-0.5-0.5-0.8c-0.1-0.3-0.2-0.6-0.2-0.9v-3.6
		h0.8v3.6c0,0.3,0,0.5,0.1,0.7c0.1,0.2,0.2,0.4,0.3,0.5c0.1,0.1,0.3,0.3,0.5,0.3C177.4,111.5,177.6,111.5,177.9,111.5L177.9,111.5z"
		/>
	<polygon id="polygon65" class="st1" points="187.6,112.1 186.8,112.1 186.8,106.9 184.9,106.9 184.9,106.3 189.5,106.3 
		189.5,106.9 187.6,106.9 	"/>
	<polygon id="polygon67" class="st1" points="194.2,112.1 194.2,106.3 197.8,106.3 197.8,106.9 195,106.9 195,108.9 197.3,108.9 
		197.3,109.5 195,109.5 195,111.5 197.8,111.5 197.8,112.1 	"/>
	<path id="path69" class="st1" d="M128.1,121.7c0.2,0,0.4,0,0.6-0.1s0.3-0.1,0.4-0.2s0.2-0.2,0.2-0.4c0.1-0.1,0.1-0.3,0.1-0.4
		c0-0.3-0.1-0.6-0.3-0.8c-0.2-0.2-0.6-0.3-1-0.3h-0.8v2.2H128.1L128.1,121.7z M131.2,125.1h-1.1c-0.2,0-0.4-0.1-0.4-0.2l-1.4-2.1
		c0-0.1-0.1-0.1-0.2-0.2s-0.1,0-0.3,0h-0.5v2.5h-1.2v-6.5h2c0.4,0,0.8,0,1.1,0.1c0.3,0.1,0.6,0.2,0.8,0.4c0.2,0.2,0.4,0.4,0.4,0.6
		c0.1,0.2,0.1,0.5,0.1,0.8c0,0.2,0,0.4-0.1,0.6c-0.1,0.2-0.2,0.4-0.3,0.5s-0.3,0.3-0.4,0.4c-0.2,0.1-0.4,0.2-0.6,0.3
		c0.1,0,0.1,0.1,0.2,0.2s0.1,0.1,0.2,0.2L131.2,125.1L131.2,125.1z"/>
	<polygon id="polygon71" class="st1" points="135.4,121.3 135.4,122.3 133.2,122.3 133.2,124.1 136,124.1 136,125.1 131.9,125.1 
		131.9,118.6 136,118.6 136,119.5 133.2,119.5 133.2,121.3 	"/>
	<path id="path73" class="st1" d="M142.3,121.8v2.6c-0.3,0.2-0.7,0.4-1.1,0.5c-0.4,0.1-0.8,0.2-1.2,0.2c-0.5,0-1-0.1-1.4-0.3
		c-0.4-0.2-0.8-0.4-1.1-0.7c-0.3-0.3-0.5-0.6-0.7-1.1c-0.2-0.4-0.3-0.8-0.3-1.3c0-0.5,0.1-0.9,0.2-1.3c0.2-0.4,0.4-0.8,0.7-1.1
		c0.3-0.3,0.6-0.5,1.1-0.7c0.4-0.2,0.9-0.2,1.4-0.2c0.3,0,0.5,0,0.7,0.1c0.2,0,0.4,0.1,0.6,0.2c0.2,0.1,0.4,0.2,0.5,0.3
		c0.2,0.1,0.3,0.2,0.4,0.3l-0.3,0.6c-0.1,0.1-0.1,0.1-0.2,0.2c-0.1,0-0.2,0-0.3-0.1c-0.1-0.1-0.2-0.1-0.3-0.2
		c-0.1-0.1-0.2-0.1-0.3-0.1c-0.1,0-0.3-0.1-0.4-0.1c-0.1,0-0.3,0-0.5,0c-0.3,0-0.6,0.1-0.9,0.2c-0.3,0.1-0.5,0.3-0.7,0.5
		c-0.2,0.2-0.3,0.4-0.4,0.7c-0.1,0.3-0.1,0.6-0.1,0.9c0,0.4,0.1,0.7,0.2,1c0.1,0.3,0.3,0.5,0.4,0.7c0.2,0.2,0.4,0.4,0.7,0.5
		c0.3,0.1,0.6,0.2,0.9,0.2c0.2,0,0.4,0,0.6-0.1s0.4-0.1,0.6-0.2v-1.2h-0.8c-0.1,0-0.1,0-0.2-0.1c0,0-0.1-0.1-0.1-0.2v-0.7H142.3
		L142.3,121.8z"/>
	<polygon id="polygon75" class="st1" points="144.7,118.6 143.5,118.6 143.5,125.1 144.7,125.1 	"/>
	<path id="path77" class="st1" d="M149.6,119.8c0,0.1-0.1,0.1-0.1,0.1s-0.1,0-0.1,0c-0.1,0-0.1,0-0.2-0.1s-0.2-0.1-0.3-0.1
		c-0.1-0.1-0.2-0.1-0.4-0.1s-0.3-0.1-0.5-0.1c-0.2,0-0.3,0-0.4,0.1c-0.1,0-0.2,0.1-0.3,0.2c-0.1,0.1-0.1,0.2-0.2,0.3
		c0,0.1-0.1,0.2-0.1,0.3c0,0.1,0,0.3,0.1,0.4s0.2,0.2,0.3,0.3c0.1,0.1,0.3,0.1,0.5,0.2c0.2,0.1,0.4,0.1,0.6,0.2s0.4,0.1,0.6,0.2
		c0.2,0.1,0.3,0.2,0.5,0.3c0.1,0.1,0.3,0.3,0.3,0.5c0.1,0.2,0.1,0.4,0.1,0.7c0,0.3,0,0.6-0.1,0.8c-0.1,0.3-0.3,0.5-0.4,0.7
		c-0.2,0.2-0.4,0.3-0.7,0.4c-0.3,0.1-0.6,0.2-1,0.2c-0.2,0-0.4,0-0.6-0.1c-0.2,0-0.4-0.1-0.6-0.2c-0.2-0.1-0.4-0.2-0.5-0.3
		s-0.3-0.2-0.4-0.4l0.4-0.6c0,0,0.1-0.1,0.1-0.1c0,0,0.1,0,0.1,0c0.1,0,0.1,0,0.2,0.1c0.1,0.1,0.2,0.1,0.3,0.2
		c0.1,0.1,0.3,0.1,0.4,0.2s0.4,0.1,0.6,0.1c0.3,0,0.6-0.1,0.8-0.2c0.2-0.2,0.3-0.4,0.3-0.7c0-0.2,0-0.3-0.1-0.4
		c-0.1-0.1-0.2-0.2-0.3-0.3c-0.1-0.1-0.3-0.1-0.5-0.2c-0.2,0-0.4-0.1-0.6-0.2c-0.2-0.1-0.4-0.1-0.6-0.2c-0.2-0.1-0.3-0.2-0.5-0.3
		c-0.1-0.1-0.3-0.3-0.3-0.5c-0.1-0.2-0.1-0.4-0.1-0.7c0-0.2,0-0.5,0.1-0.7c0.1-0.2,0.2-0.4,0.4-0.6c0.2-0.2,0.4-0.3,0.7-0.4
		c0.3-0.1,0.6-0.2,0.9-0.2c0.4,0,0.7,0.1,1.1,0.2c0.3,0.1,0.6,0.3,0.8,0.5L149.6,119.8z"/>
	<polygon id="polygon79" class="st1" points="153.7,125.1 152.5,125.1 152.5,119.6 150.5,119.6 150.5,118.6 155.6,118.6 
		155.6,119.6 153.7,119.6 	"/>
	<polygon id="polygon81" class="st1" points="160,121.3 160,122.3 157.7,122.3 157.7,124.1 160.6,124.1 160.6,125.1 156.5,125.1 
		156.5,118.6 160.6,118.6 160.6,119.5 157.7,119.5 157.7,121.3 	"/>
	<path id="path83" class="st1" d="M163.6,121.7c0.2,0,0.4,0,0.6-0.1s0.3-0.1,0.4-0.2s0.2-0.2,0.2-0.4c0.1-0.1,0.1-0.3,0.1-0.4
		c0-0.3-0.1-0.6-0.3-0.8c-0.2-0.2-0.6-0.3-1-0.3h-0.8v2.2H163.6L163.6,121.7z M166.7,125.1h-1.1c-0.2,0-0.4-0.1-0.4-0.2l-1.4-2.1
		c0-0.1-0.1-0.1-0.2-0.2s-0.1,0-0.3,0h-0.5v2.5h-1.2v-6.5h2c0.4,0,0.8,0,1.1,0.1c0.3,0.1,0.6,0.2,0.8,0.4c0.2,0.2,0.4,0.4,0.4,0.6
		c0.1,0.2,0.1,0.5,0.1,0.8c0,0.2,0,0.4-0.1,0.6c-0.1,0.2-0.2,0.4-0.3,0.5s-0.3,0.3-0.4,0.4c-0.2,0.1-0.4,0.2-0.6,0.3
		c0.1,0,0.1,0.1,0.2,0.2s0.1,0.1,0.2,0.2L166.7,125.1L166.7,125.1z"/>
	<polygon id="polygon85" class="st1" points="170.9,121.3 170.9,122.3 168.6,122.3 168.6,124.1 171.5,124.1 171.5,125.1 
		167.4,125.1 167.4,118.6 171.5,118.6 171.5,119.5 168.6,119.5 168.6,121.3 	"/>
	<path id="path87" class="st1" d="M177.1,121.8c0-0.4,0-0.7-0.1-1c-0.1-0.3-0.2-0.5-0.4-0.7c-0.2-0.2-0.4-0.3-0.6-0.4
		c-0.3-0.1-0.5-0.2-0.8-0.2h-1.3v4.6h1.3c0.3,0,0.6-0.1,0.8-0.2c0.3-0.1,0.5-0.3,0.6-0.4c0.2-0.2,0.3-0.4,0.4-0.7
		S177.1,122.2,177.1,121.8L177.1,121.8z M178.4,121.8c0,0.5-0.1,0.9-0.2,1.3c-0.2,0.4-0.4,0.7-0.7,1c-0.3,0.3-0.6,0.5-1,0.7
		c-0.4,0.2-0.8,0.2-1.4,0.2h-2.5v-6.5h2.5c0.5,0,0.9,0.1,1.4,0.2c0.4,0.2,0.7,0.4,1,0.7c0.3,0.3,0.5,0.6,0.7,1
		C178.3,120.9,178.4,121.3,178.4,121.8z"/>
	<polygon id="polygon89" class="st1" points="185.1,121.3 185.1,122.3 182.8,122.3 182.8,124.1 185.7,124.1 185.7,125.1 
		181.6,125.1 181.6,118.6 185.7,118.6 185.7,119.5 182.8,119.5 182.8,121.3 	"/>
	<path id="path91" class="st1" d="M191.3,121.8c0-0.4,0-0.7-0.1-1c-0.1-0.3-0.2-0.5-0.4-0.7c-0.2-0.2-0.4-0.3-0.6-0.4
		c-0.3-0.1-0.5-0.2-0.8-0.2H188v4.6h1.3c0.3,0,0.6-0.1,0.8-0.2c0.3-0.1,0.5-0.3,0.6-0.4c0.2-0.2,0.3-0.4,0.4-0.7
		S191.3,122.2,191.3,121.8L191.3,121.8z M192.5,121.8c0,0.5-0.1,0.9-0.2,1.3s-0.4,0.7-0.7,1c-0.3,0.3-0.6,0.5-1,0.7
		c-0.4,0.2-0.8,0.2-1.4,0.2h-2.5v-6.5h2.5c0.5,0,0.9,0.1,1.4,0.2c0.4,0.2,0.7,0.4,1,0.7c0.3,0.3,0.5,0.6,0.7,1
		C192.5,120.9,192.5,121.3,192.5,121.8z"/>
	<path id="path93" class="st1" d="M196.2,124.1c0.2,0,0.4,0,0.6-0.1c0.2-0.1,0.3-0.2,0.5-0.3c0.1-0.1,0.2-0.3,0.3-0.5
		c0.1-0.2,0.1-0.4,0.1-0.7v-3.9h1.2v3.9c0,0.4-0.1,0.7-0.2,1.1c-0.1,0.3-0.3,0.6-0.5,0.8c-0.2,0.2-0.5,0.4-0.8,0.6
		c-0.3,0.1-0.7,0.2-1.1,0.2c-0.4,0-0.8-0.1-1.1-0.2c-0.3-0.1-0.6-0.3-0.8-0.6s-0.4-0.5-0.5-0.8s-0.2-0.7-0.2-1.1v-3.9h1.2v3.9
		c0,0.3,0,0.5,0.1,0.7s0.2,0.4,0.3,0.5c0.1,0.1,0.3,0.3,0.5,0.3C195.7,124.1,196,124.1,196.2,124.1L196.2,124.1z"/>
	<path id="path95" class="st1" d="M204.7,123.5c0.1,0,0.1,0,0.2,0.1l0.5,0.5c-0.3,0.3-0.6,0.6-1,0.7c-0.4,0.2-0.8,0.3-1.4,0.3
		c-0.5,0-0.9-0.1-1.3-0.3c-0.4-0.2-0.7-0.4-1-0.7c-0.3-0.3-0.5-0.6-0.6-1.1c-0.1-0.4-0.2-0.8-0.2-1.3c0-0.5,0.1-0.9,0.2-1.3
		c0.1-0.4,0.4-0.8,0.7-1c0.3-0.3,0.6-0.5,1-0.7c0.4-0.2,0.8-0.2,1.3-0.2c0.5,0,0.9,0.1,1.3,0.2c0.4,0.1,0.7,0.4,0.9,0.6l-0.4,0.6
		c0,0-0.1,0.1-0.1,0.1c0,0-0.1,0-0.1,0c0,0-0.1,0-0.1,0s-0.1-0.1-0.2-0.1c-0.1,0-0.1-0.1-0.2-0.1c-0.1,0-0.2-0.1-0.3-0.1
		c-0.1,0-0.2-0.1-0.3-0.1c-0.1,0-0.3,0-0.4,0c-0.3,0-0.6,0-0.8,0.1c-0.2,0.1-0.4,0.3-0.6,0.4c-0.2,0.2-0.3,0.4-0.4,0.7
		c-0.1,0.3-0.1,0.6-0.1,1c0,0.4,0,0.7,0.1,1s0.2,0.5,0.4,0.7c0.2,0.2,0.4,0.3,0.6,0.4c0.2,0.1,0.5,0.1,0.8,0.1c0.2,0,0.3,0,0.4,0
		c0.1,0,0.3,0,0.4-0.1s0.2-0.1,0.3-0.1c0.1-0.1,0.2-0.1,0.3-0.2C204.6,123.6,204.6,123.6,204.7,123.5
		C204.7,123.5,204.7,123.5,204.7,123.5L204.7,123.5z"/>
	<path id="path97" class="st1" d="M209.7,122.6l-0.8-2.2c0-0.1-0.1-0.2-0.1-0.3s-0.1-0.3-0.1-0.4c0,0.1-0.1,0.3-0.1,0.4
		s-0.1,0.3-0.1,0.3l-0.8,2.2H209.7L209.7,122.6z M211.8,125.1h-0.9c-0.1,0-0.2,0-0.3-0.1c-0.1-0.1-0.1-0.1-0.1-0.2l-0.5-1.3h-2.7
		l-0.5,1.3c0,0.1-0.1,0.1-0.1,0.2c-0.1,0.1-0.1,0.1-0.3,0.1h-0.9l2.6-6.5h1.2L211.8,125.1L211.8,125.1z"/>
	<polygon id="polygon99" class="st1" points="214.4,125.1 213.2,125.1 213.2,119.6 211.2,119.6 211.2,118.6 216.4,118.6 
		216.4,119.6 214.4,119.6 	"/>
	<polygon id="polygon101" class="st1" points="218.4,118.6 217.2,118.6 217.2,125.1 218.4,125.1 	"/>
	<path id="path103" class="st1" d="M224.8,121.8c0-0.4,0-0.7-0.1-1c-0.1-0.3-0.2-0.5-0.4-0.7c-0.2-0.2-0.4-0.3-0.6-0.4
		c-0.3-0.1-0.5-0.2-0.8-0.2c-0.3,0-0.6,0.1-0.8,0.2c-0.3,0.1-0.5,0.3-0.6,0.4c-0.2,0.2-0.3,0.4-0.4,0.7c-0.1,0.3-0.1,0.6-0.1,1
		s0,0.7,0.1,1c0.1,0.3,0.2,0.5,0.4,0.7c0.2,0.2,0.4,0.3,0.6,0.4c0.3,0.1,0.5,0.2,0.8,0.2c0.3,0,0.6-0.1,0.8-0.2
		c0.3-0.1,0.5-0.3,0.6-0.4c0.2-0.2,0.3-0.4,0.4-0.7C224.8,122.5,224.8,122.2,224.8,121.8z M226.1,121.8c0,0.5-0.1,0.9-0.2,1.3
		c-0.2,0.4-0.4,0.8-0.7,1.1c-0.3,0.3-0.6,0.5-1,0.7c-0.4,0.2-0.8,0.3-1.3,0.3c-0.5,0-0.9-0.1-1.3-0.3c-0.4-0.2-0.7-0.4-1-0.7
		c-0.3-0.3-0.5-0.6-0.7-1.1c-0.2-0.4-0.2-0.8-0.2-1.3c0-0.5,0.1-0.9,0.2-1.3c0.2-0.4,0.4-0.8,0.7-1.1c0.3-0.3,0.6-0.5,1-0.7
		c0.4-0.2,0.8-0.3,1.3-0.3c0.3,0,0.6,0,0.9,0.1c0.3,0.1,0.6,0.2,0.8,0.3c0.2,0.1,0.5,0.3,0.7,0.5c0.2,0.2,0.4,0.4,0.5,0.7
		s0.2,0.5,0.3,0.8C226.1,121.2,226.1,121.5,226.1,121.8z"/>
	<path id="path105" class="st1" d="M232.6,118.6v6.5H232c-0.1,0-0.2,0-0.2,0s-0.1-0.1-0.2-0.2l-3.4-4.3c0,0.2,0,0.4,0,0.6v4h-1.1
		v-6.5h0.6c0,0,0.1,0,0.1,0s0.1,0,0.1,0s0.1,0,0.1,0.1s0.1,0.1,0.1,0.1l3.4,4.3c0-0.1,0-0.2,0-0.3c0-0.1,0-0.2,0-0.3v-3.9H232.6
		L232.6,118.6z"/>
	<path id="path107" class="st1" d="M162.1,131c0.2,0,0.4,0,0.6-0.1c0.2-0.1,0.3-0.1,0.4-0.2c0.1-0.1,0.2-0.2,0.2-0.4
		c0.1-0.1,0.1-0.3,0.1-0.5c0-0.2,0-0.3-0.1-0.5c-0.1-0.1-0.1-0.3-0.2-0.4c-0.1-0.1-0.2-0.2-0.4-0.2c-0.2-0.1-0.4-0.1-0.6-0.1h-0.9
		v2.3L162.1,131L162.1,131z M162.1,127.7c0.4,0,0.8,0,1.1,0.1c0.3,0.1,0.6,0.2,0.8,0.4c0.2,0.2,0.4,0.4,0.5,0.7
		c0.1,0.3,0.1,0.5,0.1,0.8c0,0.3-0.1,0.6-0.2,0.9c-0.1,0.3-0.3,0.5-0.5,0.7c-0.2,0.2-0.5,0.3-0.8,0.4c-0.3,0.1-0.7,0.2-1.1,0.2h-0.9
		v2.3H160v-6.5L162.1,127.7L162.1,127.7z"/>
	<path id="path109" class="st1" d="M168.6,131.7l-0.8-2.2c0-0.1-0.1-0.2-0.1-0.3c0-0.1-0.1-0.3-0.1-0.4c0,0.1-0.1,0.3-0.1,0.4
		c0,0.1-0.1,0.3-0.1,0.3l-0.8,2.2H168.6L168.6,131.7z M170.7,134.2h-0.9c-0.1,0-0.2,0-0.3-0.1c-0.1-0.1-0.1-0.1-0.1-0.2l-0.5-1.3
		h-2.7l-0.5,1.3c0,0.1-0.1,0.1-0.1,0.2c-0.1,0.1-0.1,0.1-0.3,0.1h-0.9l2.6-6.5h1.2L170.7,134.2L170.7,134.2z"/>
	<path id="path111" class="st1" d="M173.3,130.8c0.2,0,0.4,0,0.6-0.1c0.2-0.1,0.3-0.1,0.4-0.2s0.2-0.2,0.2-0.4
		c0.1-0.1,0.1-0.3,0.1-0.4c0-0.3-0.1-0.6-0.3-0.8s-0.6-0.3-1-0.3h-0.8v2.2H173.3L173.3,130.8z M176.4,134.2h-1.1
		c-0.2,0-0.4-0.1-0.4-0.2l-1.4-2.1c0-0.1-0.1-0.1-0.2-0.2s-0.1,0-0.3,0h-0.5v2.5h-1.2v-6.5h2c0.4,0,0.8,0,1.1,0.1
		c0.3,0.1,0.6,0.2,0.8,0.4c0.2,0.2,0.4,0.4,0.4,0.6c0.1,0.2,0.1,0.5,0.1,0.8c0,0.2,0,0.4-0.1,0.6c-0.1,0.2-0.2,0.4-0.3,0.5
		s-0.3,0.3-0.4,0.4s-0.4,0.2-0.6,0.3c0.1,0,0.1,0.1,0.2,0.2c0.1,0.1,0.1,0.1,0.2,0.2L176.4,134.2L176.4,134.2z"/>
	<polygon id="polygon113" class="st1" points="179.6,134.2 178.3,134.2 178.3,128.7 176.4,128.7 176.4,127.7 181.5,127.7 
		181.5,128.7 179.6,128.7 	"/>
	<path id="path115" class="st1" d="M187.8,127.7v6.5h-0.6c-0.1,0-0.2,0-0.2,0s-0.1-0.1-0.2-0.2l-3.4-4.3c0,0.2,0,0.4,0,0.6v4h-1.1
		v-6.5h0.6c0,0,0.1,0,0.1,0c0,0,0.1,0,0.1,0s0.1,0,0.1,0.1c0,0,0.1,0.1,0.1,0.1l3.4,4.3c0-0.1,0-0.2,0-0.3c0-0.1,0-0.2,0-0.3v-3.9
		H187.8z"/>
	<polygon id="polygon117" class="st1" points="192.8,130.5 192.8,131.4 190.5,131.4 190.5,133.2 193.4,133.2 193.4,134.2 
		189.3,134.2 189.3,127.7 193.4,127.7 193.4,128.7 190.5,128.7 190.5,130.5 	"/>
	<path id="path119" class="st1" d="M196.4,130.8c0.2,0,0.4,0,0.6-0.1c0.2-0.1,0.3-0.1,0.4-0.2s0.2-0.2,0.2-0.4
		c0.1-0.1,0.1-0.3,0.1-0.4c0-0.3-0.1-0.6-0.3-0.8c-0.2-0.2-0.6-0.3-1-0.3h-0.8v2.2H196.4L196.4,130.8z M199.5,134.2h-1.1
		c-0.2,0-0.4-0.1-0.4-0.2l-1.4-2.1c0-0.1-0.1-0.1-0.2-0.2s-0.1,0-0.3,0h-0.5v2.5h-1.2v-6.5h2c0.4,0,0.8,0,1.1,0.1
		c0.3,0.1,0.6,0.2,0.8,0.4c0.2,0.2,0.4,0.4,0.4,0.6c0.1,0.2,0.1,0.5,0.1,0.8c0,0.2,0,0.4-0.1,0.6c-0.1,0.2-0.2,0.4-0.3,0.5
		s-0.3,0.3-0.4,0.4c-0.2,0.1-0.4,0.2-0.6,0.3c0.1,0,0.1,0.1,0.2,0.2s0.1,0.1,0.2,0.2L199.5,134.2L199.5,134.2z"/>
	<line id="line121" class="st3" x1="125.9" y1="115.2" x2="233.1" y2="115.2"/>
</g>
</svg>
