<?xml version="1.0" encoding="UTF-8"?>
<svg xmlns="http://www.w3.org/2000/svg" xmlns:xlink="http://www.w3.org/1999/xlink" width="301pt" height="119pt" viewBox="0 0 301 119" version="1.1">
<g id="surface11">
<path style=" stroke:none;fill-rule:evenodd;fill:rgb(92.941176%,12.54902%,14.117647%);fill-opacity:1;" d="M 42.597656 31.253906 C 42.554688 31.296875 42.011719 31.414062 41.378906 31.511719 C 40.046875 31.730469 39.230469 31.929688 38.65625 32.1875 C 38.425781 32.289062 38.15625 32.375 38.039062 32.375 C 37.925781 32.375 37.726562 32.429688 37.609375 32.488281 C 36.878906 32.875 36.261719 33.148438 36.089844 33.148438 C 35.992188 33.148438 35.90625 33.207031 35.90625 33.261719 C 35.90625 33.335938 35.777344 33.421875 35.617188 33.476562 C 35.460938 33.519531 35.304688 33.605469 35.261719 33.648438 C 35.132812 33.808594 34.355469 34.308594 34.242188 34.308594 C 34.171875 34.308594 34.085938 34.394531 34.042969 34.511719 C 34 34.609375 33.914062 34.710938 33.828125 34.710938 C 33.425781 34.710938 30.84375 37.734375 30.53125 38.582031 C 30.488281 38.683594 30.402344 38.867188 30.328125 38.96875 C 30.257812 39.070312 30.171875 39.253906 30.128906 39.355469 C 30.085938 39.457031 29.972656 39.730469 29.886719 39.945312 C 29.554688 40.71875 29.398438 41.25 29.296875 41.878906 C 29.238281 42.238281 29.125 42.839844 29.023438 43.242188 C 28.722656 44.445312 28.765625 73.421875 29.066406 74.796875 C 29.195312 75.355469 29.296875 76.058594 29.296875 76.359375 C 29.296875 76.660156 29.382812 77.121094 29.496094 77.378906 C 29.597656 77.636719 29.699219 78.007812 29.699219 78.222656 C 29.699219 78.425781 29.785156 78.769531 29.886719 78.96875 C 29.984375 79.171875 30.085938 79.457031 30.085938 79.601562 C 30.085938 79.746094 30.171875 79.972656 30.285156 80.117188 C 30.386719 80.261719 30.472656 80.488281 30.472656 80.632812 C 30.472656 80.777344 30.53125 80.976562 30.617188 81.050781 C 30.773438 81.207031 31.03125 81.636719 31.230469 82.066406 C 31.890625 83.5 35.246094 85.9375 37.726562 86.785156 C 38.972656 87.214844 39.832031 87.402344 42.355469 87.816406 C 43.515625 88.003906 48.332031 87.886719 49.652344 87.644531 C 51.171875 87.359375 52.960938 86.828125 53.390625 86.554688 C 53.535156 86.46875 53.722656 86.382812 53.808594 86.382812 C 54.007812 86.382812 55.714844 85.351562 56.6875 84.660156 C 58.191406 83.574219 60.558594 80.804688 60.558594 80.132812 C 60.558594 80.046875 60.644531 79.886719 60.757812 79.800781 C 60.859375 79.714844 60.960938 79.5 60.960938 79.328125 C 60.960938 79.15625 61.03125 78.882812 61.101562 78.726562 C 61.273438 78.410156 61.574219 76.964844 61.675781 76.058594 C 61.703125 75.746094 61.820312 74.8125 61.933594 73.996094 C 62.078125 72.890625 62.121094 71.558594 62.09375 68.761719 L 62.050781 65.019531 L 55.285156 64.992188 C 49.308594 64.960938 48.488281 64.976562 48.289062 65.164062 C 48.089844 65.351562 48.058594 65.878906 48.003906 71.140625 C 47.929688 77.652344 47.929688 77.722656 46.914062 78.496094 C 46.410156 78.871094 44.546875 79.042969 44.320312 78.726562 C 44.261719 78.65625 44.105469 78.539062 43.976562 78.453125 C 43.832031 78.382812 43.660156 78.195312 43.585938 78.050781 C 43.515625 77.910156 43.386719 77.707031 43.316406 77.609375 C 42.828125 77.007812 42.742188 73.980469 42.785156 58.566406 C 42.84375 42.480469 42.84375 42.351562 43.5 41.261719 C 44.0625 40.332031 46.054688 39.988281 46.984375 40.644531 C 47.988281 41.363281 47.972656 41.191406 48.03125 48.875 C 48.058594 53.867188 48.117188 55.742188 48.230469 55.816406 C 48.316406 55.871094 51.472656 55.914062 55.253906 55.914062 L 62.136719 55.914062 L 62.136719 50.96875 C 62.136719 47.226562 62.09375 45.75 61.949219 44.863281 C 61.847656 44.214844 61.761719 43.429688 61.761719 43.097656 C 61.761719 42.769531 61.675781 42.296875 61.5625 42.035156 C 61.460938 41.777344 61.359375 41.378906 61.359375 41.132812 C 61.359375 40.890625 61.273438 40.53125 61.175781 40.316406 C 61.074219 40.117188 60.972656 39.859375 60.972656 39.757812 C 60.972656 39.414062 59.699219 37.046875 59.527344 37.046875 C 59.46875 37.046875 59.425781 36.992188 59.425781 36.917969 C 59.425781 36.359375 56.15625 33.777344 54.453125 32.992188 C 54.164062 32.859375 53.777344 32.675781 53.578125 32.574219 C 53.378906 32.472656 53.132812 32.386719 53.035156 32.386719 C 52.933594 32.386719 52.6875 32.316406 52.488281 32.230469 C 50.882812 31.554688 43.058594 30.796875 42.597656 31.253906 M 101.191406 31.296875 C 101.136719 31.355469 100.589844 31.457031 99.976562 31.542969 C 98.757812 31.714844 97.925781 31.914062 97.28125 32.1875 C 97.050781 32.289062 96.792969 32.359375 96.707031 32.359375 C 96.621094 32.359375 96.191406 32.53125 95.761719 32.730469 C 95.332031 32.933594 94.886719 33.132812 94.785156 33.191406 C 94.6875 33.234375 94.414062 33.390625 94.199219 33.535156 C 93.984375 33.679688 93.726562 33.835938 93.609375 33.878906 C 93.511719 33.921875 93.210938 34.136719 92.953125 34.339844 C 92.695312 34.539062 92.449219 34.710938 92.40625 34.710938 C 92.261719 34.710938 90.703125 36.34375 90.34375 36.859375 C 90.140625 37.148438 89.882812 37.492188 89.753906 37.621094 C 89.625 37.75 89.3125 38.339844 89.039062 38.898438 C 88.765625 39.472656 88.492188 40.03125 88.4375 40.144531 C 88.378906 40.257812 88.277344 40.574219 88.234375 40.863281 C 88.191406 41.132812 88.09375 41.421875 88.035156 41.492188 C 87.976562 41.5625 87.890625 42.125 87.835938 42.726562 C 87.792969 43.328125 87.675781 43.902344 87.605469 44 C 87.417969 44.246094 87.433594 72.71875 87.648438 73.695312 C 87.734375 74.082031 87.863281 74.925781 87.933594 75.570312 C 88.09375 77.035156 88.335938 78.367188 88.464844 78.539062 C 88.523438 78.613281 88.609375 78.898438 88.652344 79.171875 C 88.695312 79.441406 88.796875 79.773438 88.851562 79.886719 C 88.910156 80.003906 89.097656 80.390625 89.253906 80.746094 C 89.839844 82.109375 90.832031 83.328125 92.308594 84.519531 C 92.652344 84.792969 92.953125 85.050781 92.996094 85.078125 C 93.136719 85.222656 93.625 85.480469 94.671875 85.996094 C 95.273438 86.28125 95.863281 86.570312 95.960938 86.625 C 96.078125 86.683594 96.363281 86.769531 96.605469 86.828125 C 96.851562 86.882812 97.136719 86.96875 97.25 87.027344 C 97.507812 87.15625 99.015625 87.5 100.234375 87.6875 C 101.550781 87.902344 106.871094 87.902344 108.117188 87.6875 C 109.949219 87.371094 113.074219 86.3125 113.535156 85.851562 C 113.5625 85.824219 113.820312 85.679688 114.09375 85.535156 C 114.367188 85.394531 114.695312 85.191406 114.824219 85.078125 C 114.953125 84.964844 115.183594 84.792969 115.339844 84.691406 C 116.789062 83.703125 118.394531 81.894531 119.136719 80.433594 C 119.769531 79.183594 119.914062 78.726562 120.242188 76.820312 C 120.328125 76.359375 120.457031 75.65625 120.527344 75.269531 C 120.6875 74.511719 120.828125 65.78125 120.699219 65.234375 L 120.628906 64.933594 L 113.820312 64.960938 L 107.011719 64.992188 L 106.925781 70.039062 C 106.882812 72.820312 106.8125 75.199219 106.769531 75.328125 C 106.726562 75.472656 106.625 76.003906 106.566406 76.503906 C 106.339844 78.136719 105.59375 78.871094 104.175781 78.871094 C 102.453125 78.871094 101.796875 77.980469 101.695312 75.515625 C 101.667969 74.699219 101.582031 73.910156 101.507812 73.765625 C 101.351562 73.421875 101.453125 46.066406 101.625 43.785156 C 101.824219 41.078125 102.410156 40.316406 104.289062 40.316406 C 106.667969 40.316406 106.8125 40.832031 106.914062 49.707031 L 106.984375 55.871094 L 113.851562 55.84375 L 120.714844 55.816406 L 120.742188 50.453125 C 120.773438 46.796875 120.730469 44.875 120.628906 44.386719 C 120.542969 44 120.441406 43.296875 120.386719 42.839844 C 120.15625 40.71875 119.355469 38.539062 118.234375 37.003906 C 117.761719 36.359375 115.65625 34.308594 115.453125 34.308594 C 115.339844 34.308594 114.566406 33.808594 114.453125 33.648438 C 114.421875 33.605469 114.25 33.535156 114.09375 33.476562 C 113.9375 33.421875 113.808594 33.335938 113.808594 33.261719 C 113.808594 33.191406 113.691406 33.148438 113.5625 33.148438 C 113.417969 33.148438 113.234375 33.0625 113.117188 32.945312 C 113.019531 32.847656 112.816406 32.746094 112.6875 32.746094 C 112.558594 32.746094 112.332031 32.660156 112.203125 32.558594 C 112.058594 32.460938 111.828125 32.375 111.683594 32.359375 C 111.542969 32.359375 111.285156 32.273438 111.097656 32.1875 C 110.910156 32.085938 110.523438 31.972656 110.222656 31.929688 C 109.921875 31.886719 109.578125 31.785156 109.449219 31.714844 C 109.335938 31.640625 108.777344 31.554688 108.230469 31.511719 C 107.6875 31.46875 107.199219 31.382812 107.15625 31.3125 C 107.027344 31.183594 101.324219 31.15625 101.191406 31.296875 M 0.386719 59.558594 L 0.386719 86.742188 L 0.671875 86.8125 C 0.832031 86.855469 6.335938 86.871094 12.914062 86.839844 L 24.855469 86.8125 L 24.882812 81.480469 L 24.910156 76.144531 L 20.007812 76.144531 C 17.144531 76.144531 14.976562 76.089844 14.777344 76.015625 L 14.449219 75.886719 L 14.449219 64.03125 L 14.734375 63.957031 C 14.890625 63.914062 16.898438 63.886719 19.191406 63.871094 L 23.363281 63.871094 L 23.363281 53.679688 L 19.234375 53.679688 C 16.855469 53.679688 14.964844 53.621094 14.777344 53.550781 L 14.449219 53.421875 L 14.503906 43.15625 L 19.222656 43.082031 C 21.816406 43.039062 23.949219 42.996094 23.964844 42.984375 C 23.980469 42.96875 23.992188 40.574219 23.992188 37.664062 L 23.992188 32.375 L 0.386719 32.375 L 0.386719 59.558594 M 267.558594 35.714844 L 267.558594 39.070312 L 267.847656 39.140625 C 268.003906 39.183594 271.128906 39.199219 274.785156 39.167969 L 281.433594 39.140625 L 281.464844 35.757812 L 281.492188 32.375 L 267.53125 32.375 L 267.53125 35.714844 M 286.539062 59.542969 L 286.539062 86.710938 L 286.824219 86.785156 C 287.195312 86.882812 299.9375 86.882812 300.3125 86.785156 L 300.597656 86.710938 L 300.597656 32.359375 L 286.523438 32.359375 L 286.523438 59.542969 M 138.773438 41.363281 C 138.71875 41.421875 138.074219 41.535156 137.355469 41.621094 C 135.9375 41.792969 134.703125 42.035156 134.132812 42.28125 C 133.929688 42.367188 133.660156 42.4375 133.515625 42.4375 C 133.371094 42.4375 133.269531 42.496094 133.269531 42.554688 C 133.269531 42.625 133.140625 42.710938 132.984375 42.753906 C 132.570312 42.867188 131.824219 43.242188 131.621094 43.429688 C 131.523438 43.515625 131.394531 43.585938 131.320312 43.585938 C 130.605469 43.585938 127.078125 47.386719 127.078125 48.160156 C 127.078125 48.257812 126.992188 48.402344 126.894531 48.488281 C 126.792969 48.574219 126.691406 48.789062 126.648438 48.992188 C 126.621094 49.175781 126.519531 49.519531 126.449219 49.734375 C 125.472656 52.574219 125.359375 54.554688 125.429688 66.597656 C 125.488281 74.855469 125.515625 76.332031 125.6875 76.992188 C 125.804688 77.421875 125.890625 77.953125 125.890625 78.167969 C 125.890625 78.398438 125.976562 78.742188 126.089844 78.941406 C 126.191406 79.140625 126.289062 79.441406 126.289062 79.601562 C 126.289062 79.757812 126.347656 79.917969 126.40625 79.960938 C 126.476562 80.003906 126.5625 80.203125 126.605469 80.417969 C 127.023438 82.339844 129.933594 85.4375 131.851562 86.039062 C 132.023438 86.097656 132.226562 86.183594 132.28125 86.226562 C 132.398438 86.3125 132.984375 86.496094 134.804688 87.011719 C 137.570312 87.800781 143.820312 87.757812 146.6875 86.925781 C 148.019531 86.539062 150.042969 85.722656 150.300781 85.449219 C 150.328125 85.421875 150.699219 85.164062 151.101562 84.890625 C 152.464844 83.972656 153.910156 82.253906 154.785156 80.476562 C 155.515625 79.011719 155.773438 78.195312 155.933594 76.992188 C 155.960938 76.703125 156.074219 75.886719 156.175781 75.171875 C 156.460938 73.164062 156.449219 54.609375 156.160156 52.734375 C 155.902344 51.027344 155.515625 49.707031 155.058594 48.890625 C 155 48.789062 154.914062 48.605469 154.855469 48.503906 C 154.742188 48.230469 153.554688 46.480469 153.222656 46.082031 C 152.550781 45.277344 151.214844 44.203125 150.34375 43.714844 C 150.070312 43.570312 149.753906 43.386719 149.65625 43.328125 C 149.554688 43.269531 149.222656 43.113281 148.9375 42.996094 C 148.652344 42.882812 148.25 42.710938 148.050781 42.609375 C 147.847656 42.511719 147.605469 42.425781 147.503906 42.425781 C 147.402344 42.425781 147.160156 42.351562 146.960938 42.265625 C 145.640625 41.722656 139.148438 40.992188 138.773438 41.363281 M 218.226562 41.390625 C 218.125 41.464844 217.652344 41.5625 217.191406 41.605469 C 216.734375 41.648438 216.234375 41.777344 216.089844 41.878906 C 215.945312 41.980469 215.746094 42.050781 215.628906 42.050781 C 215.515625 42.050781 215.171875 42.195312 214.855469 42.367188 C 214.542969 42.539062 214.199219 42.726562 214.097656 42.78125 C 213.996094 42.839844 213.722656 43.039062 213.507812 43.242188 C 213.292969 43.441406 213.078125 43.601562 213.023438 43.601562 C 212.90625 43.601562 212.019531 44.472656 212.019531 44.589844 C 212.019531 44.820312 210.929688 45.921875 210.828125 45.820312 C 210.699219 45.691406 210.773438 44 210.929688 43.054688 C 211.117188 42.007812 211.445312 42.066406 203.933594 42.066406 L 197.296875 42.066406 L 197.296875 86.882812 L 210.65625 86.828125 L 210.730469 69.320312 C 210.800781 49.835938 210.773438 50.425781 211.601562 49.664062 C 212.378906 48.960938 213.851562 49.003906 214.46875 49.765625 C 215.015625 50.425781 215.015625 50.4375 215.101562 69.0625 L 215.171875 86.828125 L 228.472656 86.828125 L 228.503906 69.0625 C 228.53125 56.488281 228.488281 51.039062 228.386719 50.394531 C 228.300781 49.894531 228.199219 49.0625 228.15625 48.519531 C 228.101562 47.988281 228 47.429688 227.914062 47.269531 C 227.828125 47.113281 227.757812 46.867188 227.757812 46.726562 C 227.757812 46.09375 226.480469 44.160156 225.5625 43.398438 C 225.320312 43.199219 225.078125 42.996094 225.046875 42.953125 C 225.019531 42.910156 224.890625 42.839844 224.789062 42.78125 C 224.6875 42.738281 224.34375 42.554688 224.03125 42.367188 C 223.714844 42.195312 223.398438 42.050781 223.34375 42.050781 C 223.269531 42.050781 223.039062 41.964844 222.8125 41.863281 C 221.980469 41.492188 218.613281 41.132812 218.226562 41.390625 M 246.589844 41.363281 C 246.535156 41.421875 245.886719 41.535156 245.171875 41.621094 C 243.609375 41.808594 242.417969 42.066406 242.019531 42.28125 C 241.859375 42.367188 241.644531 42.4375 241.546875 42.4375 C 241.445312 42.4375 241.1875 42.523438 240.988281 42.625 C 240.785156 42.726562 240.226562 42.996094 239.738281 43.242188 C 239.253906 43.472656 238.792969 43.742188 238.722656 43.828125 C 238.648438 43.914062 238.535156 43.988281 238.464844 43.988281 C 238.335938 43.988281 237.675781 44.472656 236.886719 45.148438 C 236.570312 45.421875 235.914062 46.109375 235.136719 46.953125 C 234.851562 47.269531 234.105469 48.734375 234.105469 48.976562 C 234.105469 49.089844 234.019531 49.335938 233.921875 49.519531 C 233.820312 49.707031 233.675781 50.179688 233.589844 50.566406 C 233.445312 51.242188 233.375 51.84375 233.074219 54.566406 C 232.902344 56.203125 232.902344 71.128906 233.074219 72.976562 C 233.402344 76.476562 233.660156 78.152344 233.949219 78.683594 C 234.035156 78.839844 234.09375 79.140625 234.09375 79.34375 C 234.09375 79.542969 234.179688 79.800781 234.292969 79.886719 C 234.394531 79.972656 234.492188 80.175781 234.492188 80.347656 C 234.492188 80.503906 234.578125 80.703125 234.695312 80.804688 C 234.792969 80.890625 234.894531 81.0625 234.894531 81.191406 C 234.894531 81.320312 234.980469 81.492188 235.09375 81.578125 C 235.195312 81.664062 235.296875 81.792969 235.296875 81.867188 C 235.296875 82.082031 236.472656 83.558594 237.085938 84.132812 C 237.960938 84.949219 240.199219 86.355469 240.613281 86.355469 C 240.683594 86.355469 240.914062 86.441406 241.144531 86.527344 C 244.769531 88.089844 252.582031 87.886719 255.921875 86.140625 C 256.109375 86.039062 256.335938 85.953125 256.421875 85.953125 C 256.507812 85.953125 256.582031 85.894531 256.582031 85.835938 C 256.582031 85.765625 256.710938 85.679688 256.867188 85.621094 C 257.871094 85.308594 260.59375 82.640625 261.140625 81.4375 C 261.183594 81.335938 261.339844 81.0625 261.484375 80.847656 C 261.625 80.632812 261.769531 80.375 261.828125 80.261719 C 261.871094 80.160156 262.070312 79.703125 262.285156 79.257812 C 262.488281 78.8125 262.660156 78.355469 262.660156 78.222656 C 262.660156 78.109375 262.746094 77.765625 262.84375 77.480469 C 263.1875 76.503906 263.617188 69.59375 263.390625 68.703125 L 263.304688 68.359375 L 257.5 68.359375 C 251.894531 68.359375 251.691406 68.375 251.5625 68.605469 C 251.476562 68.761719 251.421875 70.167969 251.421875 72.246094 C 251.40625 77.480469 250.960938 79.585938 249.859375 79.585938 C 249.730469 79.585938 249.601562 79.644531 249.558594 79.714844 C 249.457031 79.886719 248.625 79.886719 248.527344 79.714844 C 248.484375 79.644531 248.339844 79.585938 248.226562 79.585938 C 247.980469 79.585938 247.179688 78.828125 247.179688 78.582031 C 247.179688 78.496094 247.09375 78.269531 246.992188 78.066406 C 246.5625 77.207031 246.535156 76.1875 246.535156 64.132812 C 246.535156 50.753906 246.546875 50.46875 247.265625 49.664062 C 247.996094 48.832031 249.441406 48.917969 250.117188 49.835938 C 250.574219 50.453125 250.71875 51.671875 250.789062 55.355469 L 250.863281 58.839844 L 263.390625 58.839844 L 263.433594 57.609375 C 263.53125 54.625 262.671875 49.765625 261.753906 48.171875 C 261.699219 48.074219 261.613281 47.886719 261.554688 47.785156 C 261.238281 47.039062 259.347656 44.949219 258.558594 44.429688 C 258.386719 44.332031 258.1875 44.171875 258.113281 44.101562 C 258.027344 44.03125 257.886719 43.929688 257.769531 43.871094 C 257.671875 43.816406 257.398438 43.671875 257.183594 43.527344 C 256.609375 43.15625 255.160156 42.480469 254.402344 42.222656 C 252.511719 41.679688 246.949219 41.003906 246.589844 41.363281 M 160.847656 42.339844 C 160.71875 42.796875 160.777344 73.921875 160.90625 76.273438 C 161.148438 80.617188 161.234375 81.265625 161.808594 82.597656 C 162.441406 84.058594 162.914062 84.761719 163.773438 85.480469 C 164.976562 86.496094 165.378906 86.683594 167.730469 87.386719 C 168.617188 87.644531 171.726562 87.617188 172.84375 87.316406 C 175.082031 86.726562 177.390625 85.136719 178.207031 83.617188 C 178.480469 83.113281 178.578125 83.515625 178.621094 85.164062 L 178.664062 86.769531 L 192.082031 86.769531 L 192.109375 64.675781 C 192.125 52.53125 192.109375 42.453125 192.082031 42.296875 L 192.007812 42.007812 L 178.738281 42.007812 L 178.695312 60.058594 C 178.652344 79.527344 178.679688 78.625 178.035156 79.269531 C 177.5625 79.730469 176.15625 80.058594 175.957031 79.746094 C 175.914062 79.6875 175.726562 79.601562 175.527344 79.558594 C 174.363281 79.300781 174.351562 78.984375 174.335938 58.957031 C 174.335938 47.871094 174.277344 42.425781 174.191406 42.265625 C 174.0625 42.023438 173.847656 42.023438 167.5 42.023438 L 160.933594 42.023438 L 160.847656 42.339844 M 267.773438 42.28125 C 267.574219 42.496094 267.558594 44.230469 267.558594 64.617188 L 267.558594 86.710938 L 267.847656 86.785156 C 268.234375 86.882812 281.035156 86.882812 281.292969 86.785156 C 281.648438 86.65625 281.59375 42.367188 281.25 42.179688 C 280.746094 41.90625 268.019531 42.007812 267.773438 42.28125 M 142.15625 49.59375 C 142.945312 50.351562 142.945312 50.324219 142.945312 64.605469 C 142.945312 79.703125 143.003906 79.011719 141.671875 79.6875 C 140.625 80.203125 139.507812 79.644531 139.046875 78.382812 C 138.917969 77.996094 138.875 75.183594 138.875 64.402344 L 138.875 50.898438 L 139.207031 50.265625 C 139.777344 49.105469 141.296875 48.761719 142.15625 49.59375 M 65.761719 64.433594 L 65.789062 68.992188 L 83.476562 68.992188 L 83.507812 64.433594 L 83.535156 59.871094 L 65.703125 59.871094 L 65.761719 64.433594 "/>
</g>
</svg>
