<?xml version="1.0" encoding="UTF-8"?>
<svg xmlns="http://www.w3.org/2000/svg" xmlns:xlink="http://www.w3.org/1999/xlink" width="301pt" height="119pt" viewBox="0 0 301 119" version="1.1">
<defs>
<clipPath id="clip1">
  <path d="M 11.980469 68 L 88 68 L 88 84 L 11.980469 84 Z M 11.980469 68 "/>
</clipPath>
<clipPath id="clip2">
  <path d="M 11.980469 10 L 56 10 L 56 26 L 11.980469 26 Z M 11.980469 10 "/>
</clipPath>
<clipPath id="clip3">
  <path d="M 223 9 L 289.039062 9 L 289.039062 85 L 223 85 Z M 223 9 "/>
</clipPath>
<clipPath id="clip4">
  <path d="M 68 0.53125 L 149 0.53125 L 149 118.492188 L 68 118.492188 Z M 68 0.53125 "/>
</clipPath>
</defs>
<g id="surface10">
<g clip-path="url(#clip1)" clip-rule="nonzero">
<path style=" stroke:none;fill-rule:nonzero;fill:rgb(12.941176%,16.862745%,34.117647%);fill-opacity:1;" d="M 79.726562 68.472656 L 19.40625 68.472656 C 15.210938 68.472656 11.878906 71.800781 11.878906 75.996094 C 11.878906 80.191406 15.210938 83.523438 19.40625 83.523438 L 79.726562 83.523438 C 83.921875 83.523438 87.25 80.191406 87.25 75.996094 C 87.128906 71.925781 83.796875 68.472656 79.726562 68.472656 "/>
</g>
<g clip-path="url(#clip2)" clip-rule="nonzero">
<path style=" stroke:none;fill-rule:nonzero;fill:rgb(12.941176%,16.862745%,34.117647%);fill-opacity:1;" d="M 19.433594 25.550781 L 47.929688 25.550781 C 52.121094 25.550781 55.453125 22.21875 55.453125 18.023438 C 55.453125 13.828125 52.121094 10.496094 47.929688 10.496094 L 19.433594 10.496094 C 15.238281 10.496094 11.90625 13.828125 11.90625 18.023438 C 11.90625 22.21875 15.238281 25.550781 19.433594 25.550781 "/>
</g>
<path style=" stroke:none;fill-rule:nonzero;fill:rgb(12.941176%,16.862745%,34.117647%);fill-opacity:1;" d="M 186.574219 16.09375 C 186.574219 14.242188 185.835938 12.390625 183.984375 10.789062 C 182.75 9.675781 181.148438 9.183594 179.542969 9.183594 C 176.953125 9.183594 174.363281 10.417969 172.636719 12.640625 L 147.71875 42.992188 C 146.605469 44.472656 145.988281 46.203125 145.988281 47.929688 C 145.988281 49.65625 146.605469 51.382812 147.71875 52.863281 L 171.277344 81.246094 C 172.882812 83.21875 175.101562 84.207031 177.445312 84.207031 C 179.171875 84.207031 180.898438 83.589844 182.378906 82.476562 C 184.355469 80.875 185.339844 78.652344 185.339844 76.308594 C 185.339844 74.582031 184.722656 72.855469 183.613281 71.375 L 163.382812 47.066406 L 184.355469 21.648438 C 185.835938 19.917969 186.574219 17.945312 186.574219 16.09375 "/>
<path style=" stroke:none;fill-rule:nonzero;fill:rgb(12.941176%,16.862745%,34.117647%);fill-opacity:1;" d="M 204.105469 9.53125 C 199.789062 9.53125 196.332031 12.984375 196.332031 17.304688 L 196.332031 76.285156 C 196.332031 80.605469 199.789062 84.058594 204.105469 84.058594 C 208.421875 84.058594 211.875 80.605469 211.875 76.285156 L 211.875 17.304688 C 211.875 12.984375 208.421875 9.53125 204.105469 9.53125 "/>
<g clip-path="url(#clip3)" clip-rule="nonzero">
<path style=" stroke:none;fill-rule:nonzero;fill:rgb(12.941176%,16.862745%,34.117647%);fill-opacity:1;" d="M 281.394531 9.324219 C 277.199219 9.324219 273.746094 12.777344 273.746094 16.972656 L 273.746094 56.457031 L 241.550781 14.136719 C 239.332031 11.421875 237.234375 9.570312 233.410156 9.570312 L 231.683594 9.570312 C 227.363281 9.570312 223.910156 13.023438 223.910156 17.34375 L 223.910156 76.449219 C 223.910156 80.644531 227.363281 84.097656 231.558594 84.097656 C 235.753906 84.097656 239.207031 80.644531 239.207031 76.449219 L 239.207031 35.480469 L 272.636719 79.285156 C 274.855469 82.125 276.953125 83.851562 280.777344 83.851562 L 281.273438 83.851562 C 285.589844 83.851562 289.042969 80.398438 289.042969 76.078125 L 289.042969 16.972656 C 289.042969 12.777344 285.589844 9.324219 281.394531 9.324219 "/>
</g>
<g clip-path="url(#clip4)" clip-rule="nonzero">
<path style=" stroke:none;fill-rule:nonzero;fill:rgb(12.941176%,16.862745%,34.117647%);fill-opacity:1;" d="M 147.191406 56.511719 L 140.285156 47.503906 L 107.59375 8.511719 C 103.277344 3.207031 96.984375 0.492188 90.695312 0.492188 C 85.882812 0.492188 80.949219 2.09375 76.878906 5.425781 C 74.410156 7.402344 72.4375 9.867188 71.082031 12.582031 C 71.082031 12.707031 70.957031 12.832031 70.957031 12.953125 C 69.96875 15.175781 69.230469 17.640625 68.984375 20.109375 C 68.859375 20.851562 68.859375 21.589844 68.859375 22.332031 C 68.859375 25.785156 69.601562 29.117188 71.203125 32.078125 C 71.699219 32.820312 71.820312 33.558594 72.683594 33.929688 C 71.574219 31.957031 70.957031 29.613281 70.957031 27.144531 C 70.957031 19.371094 77.25 13.078125 85.019531 13.078125 C 88.71875 13.078125 92.050781 14.558594 94.640625 16.777344 C 95.136719 17.148438 95.628906 17.519531 96 18.011719 L 130.785156 59.472656 L 130.785156 59.59375 C 131.15625 60.089844 131.523438 60.707031 131.523438 61.445312 C 131.523438 62.1875 131.277344 62.804688 130.785156 63.296875 L 130.785156 63.421875 L 94.640625 106.113281 C 93.40625 107.472656 92.914062 109.199219 92.914062 110.925781 C 92.914062 113.023438 93.777344 115.246094 95.628906 116.726562 C 96.984375 117.835938 98.710938 118.453125 100.441406 118.453125 C 102.535156 118.453125 104.757812 117.589844 106.238281 115.738281 L 140.285156 75.265625 L 147.191406 66.257812 C 148.300781 64.777344 148.917969 63.050781 148.917969 61.324219 C 148.917969 59.71875 148.425781 57.992188 147.191406 56.511719 "/>
</g>
<path style=" stroke:none;fill-rule:nonzero;fill:rgb(12.941176%,16.862745%,34.117647%);fill-opacity:1;" d="M 89.152344 54.449219 C 93.347656 54.449219 96.675781 51.117188 96.675781 46.921875 C 96.675781 42.726562 93.347656 39.394531 89.152344 39.394531 L 19.703125 39.394531 C 15.507812 39.394531 12.179688 42.726562 12.179688 46.921875 C 12.179688 51.117188 15.507812 54.449219 19.703125 54.449219 L 89.152344 54.449219 "/>
</g>
</svg>
