<?xml version="1.0" encoding="UTF-8"?>
<svg width="78px" height="78px" viewBox="0 0 78 78" version="1.1" xmlns="http://www.w3.org/2000/svg" xmlns:xlink="http://www.w3.org/1999/xlink">
    <!-- Generator: Sketch 63.1 (92452) - https://sketch.com -->
    <title>icon/IT Security &amp; Governance</title>
    <desc>Created with Sketch.</desc>
    <g id="icon/IT-Security-&amp;-Governance" stroke="none" stroke-width="1" fill="none" fill-rule="evenodd">
        <g id="Group-4" transform="translate(2.000000, 8.000000)">
            <rect id="Rectangle" stroke="#000000" stroke-width="3" fill="#FFFFFF" x="0" y="0" width="70" height="36"></rect>
            <g id="Group-2" transform="translate(15.000000, 4.000000)">
                <path d="M12.983871,9.22580645 L10.8870968,9.22580645 L10.8870968,5.12544803 C10.8870968,3.42994982 9.47596774,2.05017921 7.74193548,2.05017921 C6.00790323,2.05017921 4.59677419,3.42994982 4.59677419,5.12544803 L4.59677419,9.22580645 L2.5,9.22580645 L2.5,5.12544803 C2.5,2.29927599 4.85153226,2.39808173e-14 7.74193548,2.39808173e-14 C10.6323387,2.39808173e-14 12.983871,2.29927599 12.983871,5.12544803 L12.983871,9.22580645 Z" id="Path" fill="#000000" fill-rule="nonzero"></path>
                <rect id="Rectangle" fill="#F0BC5E" x="0" y="8.96296296" width="15" height="13.037037" rx="3"></rect>
                <path d="M10.4569892,14.4826762 C10.4569892,12.787178 9.04586022,11.4074074 7.31182796,11.4074074 C5.5777957,11.4074074 4.16666667,12.787178 4.16666667,14.4826762 C4.16666667,15.8173429 5.04626344,16.9449415 6.26344086,17.3693286 L6.26344086,19.6081243 L8.36021505,19.6081243 L8.36021505,17.3693286 C9.57739247,16.9449415 10.4569892,15.8173429 10.4569892,14.4826762 Z M7.31182796,15.5077658 C6.73416667,15.5077658 6.26344086,15.0475006 6.26344086,14.4826762 C6.26344086,13.9178519 6.73416667,13.4575866 7.31182796,13.4575866 C7.88948925,13.4575866 8.36021505,13.9178519 8.36021505,14.4826762 C8.36021505,15.0475006 7.88948925,15.5077658 7.31182796,15.5077658 Z" id="Shape" fill="#000000" fill-rule="nonzero"></path>
            </g>
            <rect id="Rectangle-Copy-9" stroke="#000000" stroke-width="3" fill="#FFFFFF" x="35" y="30" width="38" height="33"></rect>
            <rect id="Rectangle" fill="#000000" x="5" y="12" width="2" height="2"></rect>
            <rect id="Rectangle-Copy" fill="#000000" x="65" y="13" width="2" height="2"></rect>
            <path d="M54.5,34 C47.6079545,34 42,39.6079545 42,46.5 C42,53.3920455 47.6079545,59 54.5,59 C61.3920455,59 67,53.3920455 67,46.5 C67,39.6079545 61.3920455,34 54.5,34 Z M47,46.0871722 C47,42.1726908 50.1726908,39 54.0871722,39 C55.1266241,39 56.1105599,39.2291519 57,39.6307583 L47.6307583,49 C47.2291519,48.1105599 47,47.1266241 47,46.0871722 Z M54.9128278,54 C53.8733759,54 52.8894401,53.7708481 52,53.3692417 L61.3692417,44 C61.7708481,44.8894401 62,45.8733759 62,46.9128278 C62,50.8273092 58.8273092,54 54.9128278,54 Z" id="Shape" fill="#F0BC5E" fill-rule="nonzero"></path>
            <path d="M48.306538,51 L47.6677385,49.5873526 C47.2240086,48.6066452 47,47.5691318 47,46.5026795 C47,42.3654877 50.3654877,39 54.5026795,39 C55.5691318,39 56.6066452,39.2240086 57.5873526,39.6677385 L59,40.306538 L48.306538,51 Z M54.4005401,41 C51.4226823,41 49,43.4226823 49,46.4005401 C49,46.6025203 49.0108011,46.8023402 49.0334833,47 L55,41.0334833 C54.8023402,41.0108011 54.6025203,41 54.4005401,41 Z" id="Shape" fill="#000000" fill-rule="nonzero"></path>
            <path d="M54.4973205,54 C53.4308682,54 52.3933548,53.7759914 51.4126474,53.3322615 L50,52.693462 L60.693462,42 L61.3322615,43.4126474 C61.7759914,44.3933548 62,45.4308682 62,46.4973205 C62,50.6345123 58.6345123,54 54.4973205,54 Z M54,51.9665167 C54.1976598,51.9891989 54.3974797,52 54.5994599,52 C57.5773177,52 60,49.5773177 60,46.5994599 C60,46.3974797 59.9891989,46.1976598 59.9665167,46 L54,51.9665167 Z" id="Shape" fill="#000000" fill-rule="nonzero"></path>
            <g id="Group-3" transform="translate(38.000000, 32.000000)" fill="#000000">
                <rect id="Rectangle" x="0" y="1.88737914e-14" width="2" height="2.45454545"></rect>
                <rect id="Rectangle-Copy-12" x="0" y="3.27454545" width="2" height="2.45454545"></rect>
                <rect id="Rectangle-Copy-13" x="0" y="6.54909091" width="2" height="2.45454545"></rect>
            </g>
            <g id="Group-3-Copy" transform="translate(69.000000, 52.000000)" fill="#000000">
                <rect id="Rectangle" x="0" y="1.88737914e-14" width="2" height="2.45454545"></rect>
                <rect id="Rectangle-Copy-12" x="0" y="3.27454545" width="2" height="2.45454545"></rect>
                <rect id="Rectangle-Copy-13" x="0" y="6.54909091" width="2" height="2.45454545"></rect>
            </g>
            <rect id="Rectangle-Copy-10" fill="#000000" x="5" y="16" width="2" height="2"></rect>
            <rect id="Rectangle-Copy-14" fill="#000000" x="65" y="17" width="2" height="2"></rect>
            <rect id="Rectangle-Copy-11" fill="#000000" x="5" y="20" width="2" height="2"></rect>
            <rect id="Rectangle-Copy-15" fill="#000000" x="65" y="21" width="2" height="2"></rect>
        </g>
        <rect id="Rectangle" fill="#FFFFFF" x="4" y="41" width="31" height="10"></rect>
        <g id="database-3" transform="translate(2.000000, 37.000000)" fill-rule="nonzero">
            <g id="database-2">
                <g id="database" transform="translate(0.000000, 0.000000)">
                    <path d="M0.711362468,6.21819531 C1.19568376,3.13559375 8.11286198,0.690902344 16.5780611,0.690902344 L16.5780611,37.3090977 C8.11293313,37.3090977 1.19575492,34.8642578 0.711362468,31.7818047 L0.68176387,31.7818047 L0.68176387,6.21819531 L0.711362468,6.21819531 Z" id="Path" fill="#FFFFFF"></path>
                    <path d="M32.4447598,31.7818047 L32.4743584,31.7818047 L32.4743584,6.21819531 C32.1316977,25.3155703 32.1218315,33.8367734 32.4447598,31.7818047 Z" id="Path" fill="#F0BC5E"></path>
                    <ellipse id="Oval" fill="#FFFFFF" cx="15.5845159" cy="6.90909766" rx="14.9028231" ry="6.21819531"></ellipse>
                    <path d="M16.5780611,38 C7.8776385,38 0.879064142,35.4752266 0.0970492505,32.0935234 C0.0464612614,31.9980781 0.0194219665,31.890832 0.0194219665,31.7818047 L0.0194219665,6.21819531 C0.0194219665,6.10107812 0.0475996691,5.98589062 0.102243235,5.88354297 C0.909445396,2.51401172 7.89642223,0 16.5780611,0 C25.2597,0 32.2466769,2.51401172 33.0539502,5.88354297 C33.1085226,5.98589062 33.1367714,6.10107812 33.1367714,6.21819531 L33.1367714,31.7818047 C33.1367714,31.8989219 33.1085937,32.0141094 33.0539502,32.116457 C32.2460365,35.4859883 25.2590597,38 16.5780611,38 Z M1.34410366,31.5794102 C1.35328207,31.6089492 1.36039712,31.6392305 1.3654488,31.6698086 C1.74062527,34.0596523 7.94366615,36.6181953 16.5780611,36.6181953 C25.2124561,36.6181953 31.415497,34.0596523 31.7906734,31.6698086 C31.7957963,31.6383398 31.8029113,31.607168 31.8120186,31.5766641 L31.8120186,6.42058984 C31.8028402,6.39075391 31.7957251,6.36032422 31.7906734,6.32952344 C31.4161373,3.94034766 25.213808,1.38180469 16.5780611,1.38180469 C7.94231429,1.38180469 1.73998491,3.94034766 1.3654488,6.32952344 C1.36039712,6.36128906 1.35328207,6.39260938 1.34410366,6.42333594 L1.34410366,31.5794102 Z" id="Shape" fill="#000000"></path>
                    <path d="M16.5780611,39 C7.8776385,39 0.879064142,36.4752266 0.0970492505,33.0935234 C0.0464612614,32.9980781 0.0194219665,32.890832 0.0194219665,32.7818047 L0.0194219665,7.21819531 C0.0194219665,7.10107812 0.0475996691,6.98589062 0.102243235,6.88354297 C0.909445396,3.51401172 7.89642223,1 16.5780611,1 C25.2597,1 32.2466769,3.51401172 33.0539502,6.88354297 C33.1085226,6.98589062 33.1367714,7.10107812 33.1367714,7.21819531 L33.1367714,32.7818047 C33.1367714,32.8989219 33.1085937,33.0141094 33.0539502,33.116457 C32.2460365,36.4859883 25.2590597,39 16.5780611,39 Z M1.34410366,32.5794102 C1.35328207,32.6089492 1.36039712,32.6392305 1.3654488,32.6698086 C1.74062527,35.0596523 7.94366615,37.6181953 16.5780611,37.6181953 C25.2124561,37.6181953 31.415497,35.0596523 31.7906734,32.6698086 C31.7957963,32.6383398 31.8029113,32.607168 31.8120186,32.5766641 L31.8120186,7.42058984 C31.8028402,7.39075391 31.7957251,7.36032422 31.7906734,7.32952344 C31.4161373,4.94034766 25.213808,2.38180469 16.5780611,2.38180469 C7.94231429,2.38180469 1.73998491,4.94034766 1.3654488,7.32952344 C1.36039712,7.36128906 1.35328207,7.39260938 1.34410366,7.42333594 L1.34410366,32.5794102 Z" id="Shape" fill="#000000"></path>
                    <path d="M16.5780611,31.0909023 C7.8776385,31.0909023 0.879064142,28.5661289 0.0970492505,25.1844258 C0.0464612614,25.0889805 0.0194240802,24.9818086 0.0194240802,24.872707 L0.0194240802,15.8909023 C0.0194240802,15.5093438 0.315979268,15.2 0.68176387,15.2 C1.04754847,15.2 1.34410366,15.5093438 1.34410366,15.8909023 C1.34410366,18.5000625 7.85892593,21.4181953 16.5780611,21.4181953 C25.2971963,21.4181953 31.8120186,18.5000625 31.8120186,15.8909023 C31.8120186,15.5093438 32.1085738,15.2 32.4743584,15.2 C32.840143,15.2 33.1367003,15.5093438 33.1367003,15.8909023 L33.1367003,24.872707 C33.1367003,24.9898242 33.1085226,25.1050117 33.053879,25.2073594 C32.2460365,28.5768906 25.2590597,31.0909023 16.5780611,31.0909023 Z M1.34410366,24.6703125 C1.35328207,24.6998516 1.36039712,24.7301328 1.3654488,24.7607109 C1.74062527,27.1505547 7.94366615,29.7090977 16.5780611,29.7090977 C25.2124561,29.7090977 31.415497,27.1505547 31.7906734,24.7607109 C31.7957963,24.7292422 31.8029113,24.6980703 31.8120186,24.6675664 L31.8120186,18.5985508 C29.2829749,21.0659531 23.4065858,22.8 16.5780611,22.8 C9.7495364,22.8 3.87314736,21.0659531 1.34410366,18.5985508 L1.34410366,24.6703125 Z" id="Shape" fill="#000000"></path>
                    <path d="M16.5780611,32.0909023 C7.8776385,32.0909023 0.879064142,29.5661289 0.0970492505,26.1844258 C0.0464612614,26.0889805 0.0194240802,25.9818086 0.0194240802,25.872707 L0.0194240802,16.8909023 C0.0194240802,16.5093438 0.315979268,16.2 0.68176387,16.2 C1.04754847,16.2 1.34410366,16.5093438 1.34410366,16.8909023 C1.34410366,19.5000625 7.85892593,22.4181953 16.5780611,22.4181953 C25.2971963,22.4181953 31.8120186,19.5000625 31.8120186,16.8909023 C31.8120186,16.5093438 32.1085738,16.2 32.4743584,16.2 C32.840143,16.2 33.1367003,16.5093438 33.1367003,16.8909023 L33.1367003,25.872707 C33.1367003,25.9898242 33.1085226,26.1050117 33.053879,26.2073594 C32.2460365,29.5768906 25.2590597,32.0909023 16.5780611,32.0909023 Z M1.34410366,25.6703125 C1.35328207,25.6998516 1.36039712,25.7301328 1.3654488,25.7607109 C1.74062527,28.1505547 7.94366615,30.7090977 16.5780611,30.7090977 C25.2124561,30.7090977 31.415497,28.1505547 31.7906734,25.7607109 C31.7957963,25.7292422 31.8029113,25.6980703 31.8120186,25.6675664 L31.8120186,19.5985508 C29.2829749,22.0659531 23.4065858,23.8 16.5780611,23.8 C9.7495364,23.8 3.87314736,22.0659531 1.34410366,19.5985508 L1.34410366,25.6703125 Z" id="Shape" fill="#000000"></path>
                    <path d="M16.5780611,22.8 C7.8776385,22.8 0.879064142,20.2752266 0.0970492505,16.8935234 C0.0464612614,16.7980781 0.0194240802,16.6909063 0.0194240802,16.5818047 L0.0194240802,7.6 C0.0194240802,7.21844141 0.315979268,6.90909766 0.68176387,6.90909766 C1.04754847,6.90909766 1.34410366,7.21844141 1.34410366,7.6 C1.34410366,10.2091602 7.85892593,13.127293 16.5780611,13.127293 C25.2971963,13.127293 31.8120186,10.2091602 31.8120186,7.6 C31.8120186,7.21844141 32.1085738,6.90909766 32.4743584,6.90909766 C32.840143,6.90909766 33.1367003,7.21844141 33.1367003,7.6 L33.1367003,16.5818047 C33.1367003,16.6989219 33.1085226,16.8141094 33.053879,16.916457 C32.2460365,20.2859883 25.2590597,22.8 16.5780611,22.8 Z M1.34410366,16.3794102 C1.35328207,16.4089492 1.36039712,16.4392305 1.3654488,16.4698086 C1.74062527,18.8596523 7.94366615,21.4181953 16.5780611,21.4181953 C25.2124561,21.4181953 31.415497,18.8596523 31.7906734,16.4698086 C31.7957963,16.4383398 31.8029113,16.407168 31.8120186,16.3766641 L31.8120186,10.3076484 C29.2829749,12.7750508 23.4065858,14.5090977 16.5780611,14.5090977 C9.7495364,14.5090977 3.87314736,12.7750508 1.34410366,10.3076484 L1.34410366,16.3794102 Z" id="Shape" fill="#000000"></path>
                    <path d="M16.5780611,23.8 C7.8776385,23.8 0.879064142,21.2752266 0.0970492505,17.8935234 C0.0464612614,17.7980781 0.0194240802,17.6909062 0.0194240802,17.5818047 L0.0194240802,8.6 C0.0194240802,8.21844141 0.315979268,7.90909766 0.68176387,7.90909766 C1.04754847,7.90909766 1.34410366,8.21844141 1.34410366,8.6 C1.34410366,11.2091602 7.85892593,14.127293 16.5780611,14.127293 C25.2971963,14.127293 31.8120186,11.2091602 31.8120186,8.6 C31.8120186,8.21844141 32.1085738,7.90909766 32.4743584,7.90909766 C32.840143,7.90909766 33.1367003,8.21844141 33.1367003,8.6 L33.1367003,17.5818047 C33.1367003,17.6989219 33.1085226,17.8141094 33.053879,17.916457 C32.2460365,21.2859883 25.2590597,23.8 16.5780611,23.8 Z M1.34410366,17.3794102 C1.35328207,17.4089492 1.36039712,17.4392305 1.3654488,17.4698086 C1.74062527,19.8596523 7.94366615,22.4181953 16.5780611,22.4181953 C25.2124561,22.4181953 31.415497,19.8596523 31.7906734,17.4698086 C31.7957963,17.4383398 31.8029113,17.407168 31.8120186,17.3766641 L31.8120186,11.3076484 C29.2829749,13.7750508 23.4065858,15.5090977 16.5780611,15.5090977 C9.7495364,15.5090977 3.87314736,13.7750508 1.34410366,11.3076484 L1.34410366,17.3794102 Z" id="Shape" fill="#000000"></path>
                </g>
            </g>
        </g>
    </g>
</svg>