<?xml version="1.0" encoding="UTF-8"?>
<svg xmlns="http://www.w3.org/2000/svg" xmlns:xlink="http://www.w3.org/1999/xlink" width="301pt" height="119pt" viewBox="0 0 301 119" version="1.1">
<g id="surface10">
<path style=" stroke:none;fill-rule:nonzero;fill:rgb(36.862745%,11.372549%,37.647059%);fill-opacity:1;" d="M 301 117.265625 L 0 117.265625 L 0 1.734375 L 301 1.734375 Z M 1.648438 115.617188 L 299.351562 115.617188 L 299.351562 3.382812 L 1.648438 3.382812 Z M 1.648438 115.617188 "/>
<path style=" stroke:none;fill-rule:nonzero;fill:rgb(36.862745%,11.372549%,37.647059%);fill-opacity:1;" d="M 20.195312 76.101562 L 280.804688 76.101562 L 280.804688 77.75 L 20.195312 77.75 Z M 20.195312 76.101562 "/>
<path style=" stroke:none;fill-rule:nonzero;fill:rgb(36.862745%,11.372549%,37.647059%);fill-opacity:1;" d="M 142.445312 21.519531 L 146.042969 21.519531 L 146.042969 43.886719 L 142.445312 43.886719 Z M 142.445312 21.519531 "/>
<path style=" stroke:none;fill-rule:nonzero;fill:rgb(36.862745%,11.372549%,37.647059%);fill-opacity:1;" d="M 162.324219 43.871094 L 158.742188 43.871094 L 158.742188 24.816406 L 148.421875 24.816406 L 148.421875 21.507812 L 172.644531 21.507812 L 172.644531 24.816406 L 162.324219 24.816406 Z M 162.324219 43.871094 "/>
<path style=" stroke:none;fill-rule:nonzero;fill:rgb(36.862745%,11.372549%,37.647059%);fill-opacity:1;" d="M 175.023438 21.519531 L 178.621094 21.519531 L 178.621094 43.886719 L 175.023438 43.886719 Z M 175.023438 21.519531 "/>
<path style=" stroke:none;fill-rule:nonzero;fill:rgb(36.862745%,11.372549%,37.647059%);fill-opacity:1;" d="M 203.632812 43.871094 L 183.195312 43.871094 L 183.195312 21.507812 L 186.777344 21.507812 L 186.777344 40.574219 L 203.632812 40.574219 Z M 203.632812 43.871094 "/>
<path style=" stroke:none;fill-rule:nonzero;fill:rgb(36.862745%,11.372549%,37.647059%);fill-opacity:1;" d="M 207.933594 23.457031 C 207.933594 24.832031 206.816406 25.9375 205.410156 25.9375 C 204.007812 25.9375 202.875 24.832031 202.875 23.457031 C 202.875 22.078125 204.007812 20.988281 205.425781 20.988281 C 206.816406 20.988281 207.933594 22.078125 207.933594 23.457031 Z M 203.503906 23.457031 C 203.503906 24.558594 204.335938 25.421875 205.425781 25.421875 C 206.484375 25.433594 207.304688 24.546875 207.304688 23.46875 C 207.304688 22.367188 206.484375 21.492188 205.398438 21.492188 C 204.335938 21.492188 203.503906 22.378906 203.503906 23.457031 Z M 205.023438 24.730469 L 204.449219 24.730469 L 204.449219 22.265625 C 204.679688 22.238281 204.996094 22.195312 205.398438 22.195312 C 205.871094 22.195312 206.070312 22.265625 206.242188 22.394531 C 206.386719 22.496094 206.5 22.683594 206.5 22.925781 C 206.5 23.226562 206.269531 23.425781 205.984375 23.511719 L 205.984375 23.542969 C 206.226562 23.613281 206.34375 23.8125 206.414062 24.144531 C 206.484375 24.515625 206.542969 24.660156 206.601562 24.746094 L 206 24.746094 C 205.925781 24.660156 205.882812 24.445312 205.796875 24.144531 C 205.753906 23.886719 205.597656 23.769531 205.28125 23.769531 L 205.007812 23.769531 L 205.007812 24.730469 Z M 205.039062 23.355469 L 205.3125 23.355469 C 205.625 23.355469 205.882812 23.253906 205.882812 22.996094 C 205.882812 22.769531 205.710938 22.625 205.355469 22.625 C 205.195312 22.625 205.09375 22.640625 205.039062 22.652344 Z M 205.039062 23.355469 "/>
<path style=" stroke:none;fill-rule:evenodd;fill:rgb(29.803922%,14.117647%,19.607843%);fill-opacity:1;" d="M 112.53125 46.652344 C 118.09375 48.761719 124.125 46.625 127.496094 42.480469 C 124.6875 45.347656 120.113281 46.855469 115.957031 45.175781 C 109.707031 42.667969 107.515625 37.605469 109.292969 32.058594 C 111.070312 26.507812 116.515625 23.125 122.40625 25.019531 C 126.679688 26.378906 129.617188 29.949219 130.234375 33.90625 C 129.886719 28.574219 126.117188 23.628906 120.472656 21.820312 C 113.21875 19.5 105.449219 23.183594 103.257812 30.023438 C 101.078125 36.859375 105.421875 43.945312 112.53125 46.652344 "/>
<path style=" stroke:none;fill-rule:evenodd;fill:rgb(36.862745%,11.372549%,37.647059%);fill-opacity:1;" d="M 125.332031 32.902344 C 125.761719 39.15625 121.003906 44.589844 114.765625 45.019531 C 110.253906 45.320312 105.980469 42.652344 103.902344 38.925781 C 106.238281 44.117188 111.785156 47.859375 117.792969 47.441406 C 125.488281 46.925781 131.320312 40.214844 130.804688 32.53125 C 130.277344 24.847656 124.914062 26.667969 125.332031 32.902344 "/>
<path style=" stroke:none;fill-rule:evenodd;fill:rgb(29.803922%,14.117647%,19.607843%);fill-opacity:1;" d="M 111.898438 52.058594 C 119.839844 51.714844 126.421875 46.351562 128.726562 39.183594 C 126.550781 44.386719 121.503906 48.144531 115.511719 48.417969 C 107.242188 48.777344 100.203125 42.339844 99.832031 34.066406 C 99.472656 25.792969 105.921875 18.753906 114.195312 18.394531 C 120.183594 18.136719 125.53125 21.449219 128.15625 26.4375 C 125.230469 19.5 118.207031 14.738281 110.265625 15.097656 C 100.074219 15.542969 92.132812 24.214844 92.578125 34.394531 C 93.050781 44.574219 101.722656 52.519531 111.898438 52.058594 "/>
<path style=" stroke:none;fill-rule:evenodd;fill:rgb(55.294118%,40.392157%,57.647059%);fill-opacity:1;" d="M 132.238281 31.285156 C 132.097656 27.859375 130.933594 25.507812 129.789062 23.296875 C 129.242188 24.085938 128.726562 24.789062 128.253906 25.40625 C 125.53125 21.5625 120.914062 19.183594 115.898438 19.527344 C 109.90625 19.941406 105.019531 24.101562 103.414062 29.5625 C 104.976562 25.59375 108.703125 22.652344 113.234375 22.351562 C 126.691406 22.351562 125.503906 34.925781 122.046875 40.359375 C 119.109375 45.164062 114.238281 48.761719 108.847656 49.003906 C 102.355469 49.292969 96.648438 45.707031 93.796875 40.171875 C 96.75 47.785156 104.488281 53.046875 113.105469 52.675781 C 124.125 52.171875 132.726562 42.566406 132.238281 31.285156 "/>
<path style=" stroke:none;fill-rule:evenodd;fill:rgb(36.862745%,11.372549%,37.647059%);fill-opacity:1;" d="M 132.984375 38.652344 C 133.171875 37.304688 133.355469 35.871094 133.429688 34.394531 C 133.429688 23.070312 124.253906 13.894531 112.933594 13.894531 C 103.101562 13.894531 94.785156 20.804688 92.921875 30.050781 C 95.257812 22.839844 101.496094 17.664062 108.863281 17.664062 C 118.222656 17.664062 125.789062 25.992188 125.789062 36.289062 C 125.789062 38.28125 124.65625 53.261719 138.386719 51.871094 C 137.5 51.570312 130.933594 51.628906 132.984375 38.652344 "/>
<path style=" stroke:none;fill-rule:nonzero;fill:rgb(36.862745%,11.372549%,37.647059%);fill-opacity:1;" d="M 112.1875 94.941406 C 112.1875 93.707031 112.472656 92.75 113.03125 92.046875 C 113.589844 91.359375 114.367188 91.011719 115.367188 91.011719 C 116.359375 91.011719 117.132812 91.359375 117.707031 92.046875 C 118.265625 92.734375 118.550781 93.707031 118.550781 94.941406 C 118.550781 96.175781 118.265625 97.136719 117.707031 97.824219 C 117.144531 98.527344 116.359375 98.871094 115.367188 98.871094 C 114.378906 98.871094 113.605469 98.527344 113.046875 97.824219 C 112.472656 97.136719 112.1875 96.160156 112.1875 94.941406 Z M 113.648438 94.941406 C 113.648438 95.800781 113.792969 96.460938 114.078125 96.90625 C 114.367188 97.351562 114.796875 97.578125 115.355469 97.578125 C 115.914062 97.578125 116.34375 97.351562 116.628906 96.90625 C 116.917969 96.460938 117.058594 95.800781 117.058594 94.941406 C 117.058594 94.066406 116.917969 93.40625 116.628906 92.949219 C 116.34375 92.492188 115.914062 92.273438 115.355469 92.273438 C 114.796875 92.273438 114.367188 92.503906 114.078125 92.949219 C 113.792969 93.40625 113.648438 94.066406 113.648438 94.941406 Z M 113.648438 94.941406 "/>
<path style=" stroke:none;fill-rule:nonzero;fill:rgb(36.862745%,11.372549%,37.647059%);fill-opacity:1;" d="M 119.46875 98.742188 L 119.46875 91.097656 L 121.003906 91.097656 L 123.195312 94.941406 C 123.367188 95.242188 123.523438 95.542969 123.667969 95.84375 C 123.8125 96.144531 123.941406 96.460938 124.070312 96.761719 C 124.027344 96.535156 123.996094 96.289062 123.984375 96.03125 C 123.96875 95.773438 123.953125 95.5 123.953125 95.199219 L 123.953125 91.085938 L 125.289062 91.085938 L 125.289062 98.726562 L 123.953125 98.726562 L 121.5625 94.785156 C 121.433594 94.554688 121.289062 94.296875 121.144531 93.980469 C 121.003906 93.664062 120.84375 93.320312 120.699219 92.949219 C 120.730469 93.164062 120.757812 93.394531 120.773438 93.636719 C 120.785156 93.882812 120.800781 94.183594 120.800781 94.511719 L 120.800781 98.742188 Z M 119.46875 98.742188 "/>
<path style=" stroke:none;fill-rule:nonzero;fill:rgb(36.862745%,11.372549%,37.647059%);fill-opacity:1;" d="M 129.53125 98.742188 L 129.53125 91.097656 L 132.296875 91.097656 C 133.128906 91.097656 133.773438 91.273438 134.203125 91.617188 C 134.648438 91.960938 134.863281 92.460938 134.863281 93.121094 C 134.863281 93.492188 134.777344 93.808594 134.589844 94.066406 C 134.402344 94.324219 134.132812 94.554688 133.746094 94.742188 C 134.175781 94.882812 134.503906 95.113281 134.71875 95.429688 C 134.933594 95.746094 135.046875 96.132812 135.046875 96.605469 C 135.046875 97.320312 134.820312 97.867188 134.347656 98.226562 C 133.886719 98.582031 133.171875 98.753906 132.226562 98.753906 L 129.53125 98.753906 Z M 130.933594 94.152344 L 132.109375 94.152344 C 132.554688 94.152344 132.898438 94.082031 133.113281 93.925781 C 133.34375 93.765625 133.441406 93.535156 133.441406 93.222656 C 133.441406 92.890625 133.328125 92.648438 133.113281 92.503906 C 132.882812 92.359375 132.527344 92.273438 132.023438 92.273438 L 130.933594 92.273438 Z M 130.933594 97.566406 L 132.109375 97.566406 C 132.625 97.566406 133.011719 97.480469 133.242188 97.292969 C 133.488281 97.105469 133.601562 96.820312 133.601562 96.417969 C 133.601562 96.046875 133.488281 95.773438 133.242188 95.585938 C 133.011719 95.402344 132.65625 95.316406 132.167969 95.316406 L 130.921875 95.316406 L 130.921875 97.566406 Z M 130.933594 97.566406 "/>
<path style=" stroke:none;fill-rule:nonzero;fill:rgb(36.862745%,11.372549%,37.647059%);fill-opacity:1;" d="M 136.265625 98.742188 L 136.265625 91.097656 L 141.226562 91.097656 L 141.226562 92.347656 L 137.699219 92.347656 L 137.699219 94.152344 L 140.265625 94.152344 L 140.265625 95.371094 L 137.699219 95.371094 L 137.699219 97.4375 L 141.382812 97.4375 L 141.382812 98.742188 Z M 136.265625 98.742188 "/>
<path style=" stroke:none;fill-rule:nonzero;fill:rgb(36.862745%,11.372549%,37.647059%);fill-opacity:1;" d="M 142.257812 98.742188 L 142.257812 91.097656 L 143.691406 91.097656 L 143.691406 94.125 L 146.601562 94.125 L 146.601562 91.097656 L 148.035156 91.097656 L 148.035156 98.742188 L 146.601562 98.742188 L 146.601562 95.414062 L 143.691406 95.414062 L 143.691406 98.742188 Z M 142.257812 98.742188 "/>
<path style=" stroke:none;fill-rule:nonzero;fill:rgb(36.862745%,11.372549%,37.647059%);fill-opacity:1;" d="M 148.652344 98.742188 L 150.957031 91.097656 L 152.75 91.097656 L 155.042969 98.742188 L 153.609375 98.742188 L 153.136719 97.0625 L 150.5 97.0625 L 150.011719 98.742188 Z M 150.84375 95.84375 L 152.792969 95.84375 L 151.820312 92.433594 Z M 150.84375 95.84375 "/>
<path style=" stroke:none;fill-rule:nonzero;fill:rgb(36.862745%,11.372549%,37.647059%);fill-opacity:1;" d="M 155.644531 98.742188 L 155.644531 91.097656 L 157.109375 91.097656 L 157.109375 97.4375 L 160.332031 97.4375 L 160.332031 98.742188 Z M 155.644531 98.742188 "/>
<path style=" stroke:none;fill-rule:nonzero;fill:rgb(36.862745%,11.372549%,37.647059%);fill-opacity:1;" d="M 161.105469 98.742188 L 161.105469 91.097656 L 165.9375 91.097656 L 165.9375 92.347656 L 162.570312 92.347656 L 162.570312 94.140625 L 165.121094 94.140625 L 165.121094 95.386719 L 162.570312 95.386719 L 162.570312 98.753906 L 161.105469 98.753906 Z M 161.105469 98.742188 "/>
<path style=" stroke:none;fill-rule:nonzero;fill:rgb(36.862745%,11.372549%,37.647059%);fill-opacity:1;" d="M 169.175781 94.941406 C 169.175781 93.707031 169.464844 92.75 170.023438 92.046875 C 170.582031 91.359375 171.355469 91.011719 172.359375 91.011719 C 173.347656 91.011719 174.121094 91.359375 174.695312 92.046875 C 175.253906 92.734375 175.539062 93.707031 175.539062 94.941406 C 175.539062 96.175781 175.253906 97.136719 174.695312 97.824219 C 174.136719 98.527344 173.347656 98.871094 172.359375 98.871094 C 171.371094 98.871094 170.59375 98.527344 170.035156 97.824219 C 169.464844 97.136719 169.175781 96.160156 169.175781 94.941406 Z M 170.636719 94.941406 C 170.636719 95.800781 170.78125 96.460938 171.066406 96.90625 C 171.355469 97.351562 171.785156 97.578125 172.34375 97.578125 C 172.902344 97.578125 173.332031 97.351562 173.621094 96.90625 C 173.90625 96.460938 174.050781 95.800781 174.050781 94.941406 C 174.050781 94.066406 173.90625 93.40625 173.621094 92.949219 C 173.332031 92.492188 172.902344 92.273438 172.34375 92.273438 C 171.785156 92.273438 171.355469 92.503906 171.066406 92.949219 C 170.78125 93.40625 170.636719 94.066406 170.636719 94.941406 Z M 170.636719 94.941406 "/>
<path style=" stroke:none;fill-rule:nonzero;fill:rgb(36.862745%,11.372549%,37.647059%);fill-opacity:1;" d="M 176.472656 98.742188 L 176.472656 91.097656 L 181.300781 91.097656 L 181.300781 92.347656 L 177.933594 92.347656 L 177.933594 94.140625 L 180.484375 94.140625 L 180.484375 95.386719 L 177.933594 95.386719 L 177.933594 98.753906 L 176.472656 98.753906 Z M 176.472656 98.742188 "/>
<path style=" stroke:none;fill-rule:evenodd;fill:rgb(42.352941%,13.333333%,23.921569%);fill-opacity:1;" d="M 199.003906 101.09375 C 201.554688 102.066406 204.335938 101.078125 205.898438 99.171875 C 204.609375 100.492188 202.5 101.179688 200.582031 100.417969 C 197.699219 99.257812 196.695312 96.933594 197.511719 94.367188 C 198.332031 91.816406 200.839844 90.253906 203.546875 91.128906 C 205.511719 91.757812 206.871094 93.394531 207.160156 95.230469 C 207.003906 92.777344 205.269531 90.496094 202.660156 89.664062 C 199.320312 88.589844 195.734375 90.296875 194.734375 93.4375 C 193.730469 96.589844 195.734375 99.84375 199.003906 101.09375 "/>
<path style=" stroke:none;fill-rule:evenodd;fill:rgb(77.647059%,11.764706%,14.117647%);fill-opacity:1;" d="M 204.910156 94.769531 C 205.109375 97.652344 202.917969 100.144531 200.035156 100.347656 C 197.957031 100.492188 195.992188 99.257812 195.035156 97.535156 C 196.109375 99.929688 198.660156 101.652344 201.425781 101.464844 C 204.964844 101.222656 207.660156 98.140625 207.417969 94.597656 C 207.1875 91.054688 204.707031 91.886719 204.910156 94.769531 "/>
<path style=" stroke:none;fill-rule:evenodd;fill:rgb(42.352941%,13.333333%,23.921569%);fill-opacity:1;" d="M 198.71875 103.585938 C 202.371094 103.429688 205.410156 100.964844 206.457031 97.667969 C 205.453125 100.058594 203.132812 101.796875 200.378906 101.910156 C 196.566406 102.082031 193.328125 99.113281 193.15625 95.300781 C 192.984375 91.488281 195.964844 88.246094 199.761719 88.089844 C 202.515625 87.972656 204.980469 89.492188 206.199219 91.789062 C 204.851562 88.589844 201.628906 86.398438 197.957031 86.570312 C 193.269531 86.769531 189.617188 90.769531 189.816406 95.457031 C 190.03125 100.132812 194.03125 103.789062 198.71875 103.585938 "/>
<path style=" stroke:none;fill-rule:evenodd;fill:rgb(55.294118%,34.117647%,38.823529%);fill-opacity:1;" d="M 208.078125 94.023438 C 208.003906 92.445312 207.476562 91.359375 206.945312 90.339844 C 206.6875 90.699219 206.457031 91.027344 206.242188 91.316406 C 204.980469 89.550781 202.859375 88.445312 200.550781 88.605469 C 197.785156 88.792969 195.550781 90.710938 194.804688 93.222656 C 195.519531 91.386719 197.242188 90.039062 199.320312 89.894531 C 205.511719 89.894531 204.964844 95.6875 203.375 98.183594 C 202.027344 100.40625 199.777344 102.054688 197.296875 102.167969 C 194.300781 102.296875 191.679688 100.648438 190.375 98.097656 C 191.738281 101.59375 195.292969 104.03125 199.261719 103.84375 C 204.351562 103.644531 208.304688 99.214844 208.078125 94.023438 "/>
<path style=" stroke:none;fill-rule:evenodd;fill:rgb(77.647059%,11.764706%,14.117647%);fill-opacity:1;" d="M 208.421875 97.40625 C 208.507812 96.792969 208.59375 96.132812 208.621094 95.445312 C 208.621094 90.226562 204.394531 85.996094 199.175781 85.996094 C 194.648438 85.996094 190.820312 89.179688 189.960938 93.4375 C 191.035156 90.109375 193.902344 87.730469 197.296875 87.730469 C 201.597656 87.730469 205.09375 91.574219 205.09375 96.304688 C 205.09375 97.222656 204.578125 104.117188 210.902344 103.472656 C 210.5 103.359375 207.488281 103.386719 208.421875 97.40625 "/>
<path style=" stroke:none;fill-rule:nonzero;fill:rgb(42.352941%,13.333333%,23.921569%);fill-opacity:1;" d="M 229.992188 90.839844 L 229.191406 89.222656 L 226.753906 92.71875 L 224.332031 89.222656 L 222.308594 89.222656 L 225.722656 94.011719 L 223.328125 97.363281 L 224.128906 98.984375 L 226.710938 95.285156 L 229.277344 98.972656 L 231.296875 98.972656 L 227.757812 93.980469 Z M 229.992188 90.839844 "/>
<path style=" stroke:none;fill-rule:nonzero;fill:rgb(42.352941%,13.333333%,23.921569%);fill-opacity:1;" d="M 218.410156 89.207031 L 216.761719 89.207031 L 211.746094 98.972656 L 213.480469 98.972656 L 214.699219 96.535156 L 220.476562 96.535156 L 221.679688 98.972656 L 223.429688 98.972656 Z M 219.757812 95.128906 L 215.414062 95.128906 L 217.578125 90.785156 Z M 219.757812 95.128906 "/>
<path style=" stroke:none;fill-rule:nonzero;fill:rgb(42.352941%,13.333333%,23.921569%);fill-opacity:1;" d="M 233.390625 97.550781 L 233.390625 94.625 L 239.394531 94.625 L 239.394531 93.191406 L 233.390625 93.191406 L 233.390625 90.640625 L 240.585938 90.640625 L 240.585938 89.207031 L 231.828125 89.207031 L 231.828125 98.984375 L 240.742188 98.984375 L 240.742188 97.550781 Z M 233.390625 97.550781 "/>
<path style=" stroke:none;fill-rule:nonzero;fill:rgb(42.352941%,13.333333%,23.921569%);fill-opacity:1;" d="M 242.835938 97.566406 L 242.835938 89.207031 L 241.289062 89.207031 L 241.289062 98.984375 L 250.21875 98.984375 L 250.21875 97.566406 Z M 242.835938 97.566406 "/>
<path style=" stroke:none;fill-rule:nonzero;fill:rgb(42.352941%,13.333333%,23.921569%);fill-opacity:1;" d="M 255.175781 88.976562 C 251.78125 88.976562 249.484375 91.054688 249.484375 94.152344 C 249.484375 97.621094 252.4375 99.214844 255.175781 99.214844 C 257.914062 99.214844 260.867188 97.636719 260.867188 94.152344 C 260.867188 91.054688 258.585938 88.976562 255.175781 88.976562 M 255.175781 97.796875 C 252.597656 97.796875 251.0625 96.359375 251.0625 93.953125 C 251.0625 91.832031 252.753906 90.355469 255.175781 90.355469 C 257.597656 90.355469 259.289062 91.832031 259.289062 93.953125 C 259.289062 96.777344 257.167969 97.796875 255.175781 97.796875 "/>
<path style=" stroke:none;fill-rule:nonzero;fill:rgb(42.352941%,13.333333%,23.921569%);fill-opacity:1;" d="M 265.96875 93.191406 C 263.917969 93.007812 262.6875 92.820312 262.6875 91.800781 C 262.6875 90.527344 264.566406 90.339844 265.683594 90.339844 C 268.003906 90.339844 268.878906 91.34375 269.292969 91.832031 L 269.496094 92.058594 L 270.628906 91.140625 L 270.511719 90.984375 C 270.183594 90.511719 268.835938 88.976562 265.710938 88.976562 C 262.746094 88.976562 261.109375 90.054688 261.109375 91.988281 C 261.109375 94.210938 263.605469 94.453125 265.8125 94.667969 C 267.589844 94.839844 269.25 95 269.25 96.132812 C 269.25 97.351562 267.53125 97.78125 266.054688 97.78125 C 263.347656 97.78125 262.488281 96.648438 261.984375 95.960938 L 261.855469 95.789062 L 260.808594 96.675781 L 260.652344 96.820312 L 260.796875 96.976562 C 261.582031 97.867188 262.789062 99.199219 265.925781 99.199219 C 269.539062 99.199219 270.828125 97.421875 270.828125 95.929688 C 270.84375 93.449219 268.25 93.40625 265.96875 93.191406 "/>
<path style=" stroke:none;fill-rule:nonzero;fill:rgb(0%,0%,0%);fill-opacity:1;" d="M 39.546875 91.070312 C 39.546875 91.488281 39.460938 91.917969 39.289062 92.347656 C 39.117188 92.777344 38.871094 93.164062 38.558594 93.507812 C 38.242188 93.851562 37.839844 94.125 37.367188 94.339844 C 36.894531 94.554688 36.363281 94.667969 35.761719 94.667969 L 32.59375 94.667969 L 32.59375 99.574219 L 31.058594 99.574219 L 31.058594 87.386719 L 35.519531 87.386719 C 36.019531 87.386719 36.507812 87.457031 36.996094 87.601562 C 37.480469 87.746094 37.910156 87.960938 38.285156 88.261719 C 38.65625 88.5625 38.957031 88.933594 39.1875 89.40625 C 39.429688 89.851562 39.546875 90.410156 39.546875 91.070312 Z M 37.941406 91.011719 C 37.941406 90.269531 37.710938 89.707031 37.265625 89.335938 C 36.824219 88.964844 36.25 88.792969 35.5625 88.792969 L 32.609375 88.792969 L 32.609375 93.234375 L 35.632812 93.234375 C 36.019531 93.234375 36.347656 93.164062 36.648438 93.035156 C 36.9375 92.90625 37.179688 92.734375 37.382812 92.519531 C 37.566406 92.304688 37.710938 92.074219 37.8125 91.816406 C 37.898438 91.542969 37.941406 91.285156 37.941406 91.011719 Z M 37.941406 91.011719 "/>
<path style=" stroke:none;fill-rule:nonzero;fill:rgb(0%,0%,0%);fill-opacity:1;" d="M 41.496094 95.703125 L 41.496094 95.84375 C 41.496094 96.1875 41.539062 96.503906 41.636719 96.820312 C 41.722656 97.121094 41.867188 97.394531 42.054688 97.621094 C 42.242188 97.851562 42.46875 98.023438 42.757812 98.152344 C 43.042969 98.28125 43.359375 98.355469 43.730469 98.355469 C 44.019531 98.355469 44.332031 98.28125 44.707031 98.140625 C 45.078125 97.996094 45.40625 97.796875 45.695312 97.523438 L 46.625 98.554688 C 46.210938 98.941406 45.753906 99.230469 45.25 99.402344 C 44.734375 99.574219 44.21875 99.660156 43.671875 99.660156 C 43.230469 99.660156 42.785156 99.601562 42.355469 99.472656 C 41.910156 99.34375 41.523438 99.128906 41.179688 98.796875 C 40.835938 98.46875 40.550781 98.023438 40.335938 97.449219 C 40.117188 96.878906 40.003906 96.144531 40.003906 95.242188 C 40.003906 94.398438 40.117188 93.679688 40.335938 93.09375 C 40.550781 92.519531 40.835938 92.058594 41.195312 91.714844 C 41.539062 91.371094 41.9375 91.128906 42.371094 90.984375 C 42.800781 90.839844 43.214844 90.769531 43.628906 90.769531 C 44.105469 90.769531 44.5625 90.855469 44.976562 91.027344 C 45.394531 91.199219 45.765625 91.445312 46.082031 91.773438 C 46.398438 92.101562 46.640625 92.503906 46.828125 92.976562 C 47.011719 93.449219 47.097656 93.996094 47.097656 94.597656 L 47.097656 95.714844 L 41.496094 95.714844 Z M 43.542969 92.132812 C 42.957031 92.132812 42.46875 92.332031 42.113281 92.75 C 41.753906 93.164062 41.550781 93.738281 41.496094 94.496094 L 45.566406 94.496094 C 45.535156 93.707031 45.335938 93.121094 44.976562 92.734375 C 44.621094 92.332031 44.132812 92.132812 43.542969 92.132812 Z M 43.542969 92.132812 "/>
<path style=" stroke:none;fill-rule:nonzero;fill:rgb(0%,0%,0%);fill-opacity:1;" d="M 51.871094 90.8125 C 52.503906 90.8125 53.0625 90.941406 53.550781 91.183594 C 54.035156 91.445312 54.4375 91.800781 54.738281 92.261719 C 54.941406 92.578125 55.082031 92.964844 55.183594 93.40625 C 55.285156 93.851562 55.328125 94.367188 55.328125 94.925781 C 55.328125 95.671875 55.285156 96.304688 55.199219 96.804688 C 55.113281 97.308594 54.984375 97.738281 54.78125 98.082031 C 54.480469 98.597656 54.050781 98.984375 53.519531 99.257812 C 52.976562 99.53125 52.359375 99.671875 51.6875 99.671875 C 51.054688 99.671875 50.496094 99.558594 50.007812 99.34375 C 49.523438 99.128906 49.121094 98.796875 48.820312 98.355469 C 48.589844 97.996094 48.417969 97.566406 48.316406 97.0625 C 48.21875 96.5625 48.175781 95.960938 48.175781 95.257812 C 48.175781 94.769531 48.203125 94.3125 48.273438 93.894531 C 48.332031 93.480469 48.445312 93.105469 48.617188 92.761719 C 48.90625 92.132812 49.335938 91.644531 49.894531 91.316406 C 50.46875 90.96875 51.128906 90.8125 51.871094 90.8125 Z M 51.828125 92.117188 C 51.398438 92.117188 51.011719 92.230469 50.683594 92.445312 C 50.351562 92.664062 50.09375 92.964844 49.921875 93.351562 C 49.792969 93.621094 49.707031 93.910156 49.679688 94.226562 C 49.652344 94.539062 49.621094 94.898438 49.609375 95.285156 C 49.609375 95.671875 49.621094 96.015625 49.652344 96.316406 C 49.679688 96.632812 49.75 96.90625 49.867188 97.164062 C 50.023438 97.535156 50.265625 97.824219 50.582031 98.039062 C 50.898438 98.253906 51.269531 98.355469 51.699219 98.355469 C 52.171875 98.355469 52.589844 98.226562 52.949219 97.980469 C 53.320312 97.738281 53.578125 97.351562 53.75 96.804688 C 53.808594 96.589844 53.851562 96.359375 53.863281 96.074219 C 53.878906 95.800781 53.894531 95.429688 53.894531 94.96875 C 53.894531 94.625 53.878906 94.339844 53.851562 94.066406 C 53.820312 93.808594 53.765625 93.566406 53.664062 93.363281 C 53.507812 92.933594 53.25 92.621094 52.933594 92.417969 C 52.617188 92.21875 52.246094 92.117188 51.828125 92.117188 Z M 51.828125 92.117188 "/>
<path style=" stroke:none;fill-rule:nonzero;fill:rgb(0%,0%,0%);fill-opacity:1;" d="M 57.992188 90.871094 L 57.992188 91.832031 L 58.050781 91.84375 C 58.394531 91.457031 58.753906 91.183594 59.167969 91.027344 C 59.570312 90.871094 59.984375 90.785156 60.414062 90.785156 C 61.03125 90.785156 61.546875 90.914062 61.949219 91.15625 C 62.351562 91.414062 62.664062 91.746094 62.910156 92.160156 C 63.136719 92.578125 63.296875 93.035156 63.394531 93.566406 C 63.480469 94.082031 63.523438 94.613281 63.523438 95.144531 C 63.523438 95.703125 63.480469 96.261719 63.382812 96.792969 C 63.28125 97.335938 63.109375 97.808594 62.851562 98.238281 C 62.59375 98.65625 62.25 99 61.804688 99.257812 C 61.359375 99.515625 60.816406 99.644531 60.128906 99.644531 C 59.699219 99.644531 59.296875 99.574219 58.953125 99.445312 C 58.59375 99.300781 58.292969 99.085938 58.035156 98.785156 L 58.007812 98.785156 L 58.007812 103.015625 L 56.574219 103.015625 L 56.574219 90.871094 Z M 57.992188 95.242188 C 57.992188 95.574219 58.007812 95.917969 58.050781 96.273438 C 58.09375 96.632812 58.179688 96.964844 58.308594 97.25 C 58.4375 97.535156 58.636719 97.78125 58.894531 97.96875 C 59.152344 98.152344 59.496094 98.253906 59.941406 98.253906 C 60.402344 98.253906 60.757812 98.167969 61.03125 97.980469 C 61.304688 97.796875 61.503906 97.566406 61.648438 97.277344 C 61.789062 96.992188 61.878906 96.675781 61.933594 96.316406 C 61.976562 95.960938 62.007812 95.601562 62.007812 95.257812 C 62.007812 94.914062 61.992188 94.570312 61.949219 94.210938 C 61.921875 93.851562 61.835938 93.523438 61.703125 93.222656 C 61.574219 92.921875 61.375 92.675781 61.117188 92.492188 C 60.859375 92.304688 60.5 92.203125 60.042969 92.203125 C 59.597656 92.203125 59.238281 92.304688 58.980469 92.503906 C 58.710938 92.707031 58.507812 92.949219 58.367188 93.25 C 58.222656 93.550781 58.121094 93.882812 58.078125 94.238281 C 58.019531 94.597656 57.992188 94.925781 57.992188 95.242188 Z M 57.992188 95.242188 "/>
<path style=" stroke:none;fill-rule:nonzero;fill:rgb(0%,0%,0%);fill-opacity:1;" d="M 66.9375 99.558594 C 66.304688 99.558594 65.789062 99.414062 65.402344 99.113281 C 65 98.8125 64.800781 98.296875 64.800781 97.550781 L 64.800781 86.855469 L 66.234375 86.855469 L 66.234375 97.421875 C 66.234375 97.96875 66.535156 98.238281 67.121094 98.238281 L 67.539062 98.238281 L 67.539062 99.558594 Z M 66.9375 99.558594 "/>
<path style=" stroke:none;fill-rule:nonzero;fill:rgb(0%,0%,0%);fill-opacity:1;" d="M 69.617188 95.703125 L 69.617188 95.84375 C 69.617188 96.1875 69.660156 96.503906 69.761719 96.820312 C 69.847656 97.121094 69.988281 97.394531 70.175781 97.621094 C 70.363281 97.851562 70.589844 98.023438 70.878906 98.152344 C 71.164062 98.28125 71.480469 98.355469 71.851562 98.355469 C 72.140625 98.355469 72.453125 98.28125 72.828125 98.140625 C 73.199219 97.996094 73.53125 97.796875 73.816406 97.523438 L 74.75 98.554688 C 74.332031 98.941406 73.875 99.230469 73.371094 99.402344 C 72.855469 99.574219 72.339844 99.660156 71.796875 99.660156 C 71.351562 99.660156 70.90625 99.601562 70.476562 99.472656 C 70.03125 99.34375 69.644531 99.128906 69.300781 98.796875 C 68.957031 98.46875 68.671875 98.023438 68.457031 97.449219 C 68.242188 96.878906 68.125 96.144531 68.125 95.242188 C 68.125 94.398438 68.242188 93.679688 68.457031 93.09375 C 68.671875 92.519531 68.957031 92.058594 69.316406 91.714844 C 69.660156 91.371094 70.0625 91.128906 70.492188 90.984375 C 70.921875 90.839844 71.335938 90.769531 71.753906 90.769531 C 72.226562 90.769531 72.683594 90.855469 73.101562 91.027344 C 73.515625 91.199219 73.886719 91.445312 74.203125 91.773438 C 74.519531 92.101562 74.761719 92.503906 74.949219 92.976562 C 75.136719 93.449219 75.222656 93.996094 75.222656 94.597656 L 75.222656 95.714844 L 69.617188 95.714844 Z M 71.667969 92.132812 C 71.078125 92.132812 70.589844 92.332031 70.234375 92.75 C 69.875 93.164062 69.675781 93.738281 69.617188 94.496094 L 73.6875 94.496094 C 73.660156 93.707031 73.457031 93.121094 73.101562 92.734375 C 72.742188 92.332031 72.253906 92.132812 71.667969 92.132812 Z M 71.667969 92.132812 "/>
<path style=" stroke:none;fill-rule:nonzero;fill:rgb(94.117647%,29.019608%,17.254902%);fill-opacity:1;" d="M 85.097656 97.078125 C 84.796875 97.894531 84.292969 98.527344 83.605469 98.984375 C 82.917969 99.445312 82.074219 99.671875 81.082031 99.671875 C 80.351562 99.671875 79.722656 99.542969 79.191406 99.300781 C 78.648438 99.058594 78.1875 98.726562 77.828125 98.324219 C 77.457031 97.925781 77.199219 97.4375 77.011719 96.890625 C 76.839844 96.347656 76.742188 95.757812 76.742188 95.15625 L 76.742188 91.800781 C 76.742188 91.199219 76.828125 90.640625 77.011719 90.097656 C 77.183594 89.550781 77.457031 89.078125 77.828125 88.664062 C 78.1875 88.246094 78.648438 87.917969 79.191406 87.671875 C 79.738281 87.429688 80.367188 87.300781 81.082031 87.300781 C 82.074219 87.300781 82.902344 87.53125 83.59375 88.003906 C 84.265625 88.476562 84.765625 89.09375 85.082031 89.878906 L 83.648438 90.527344 C 83.449219 89.996094 83.132812 89.578125 82.703125 89.265625 C 82.273438 88.949219 81.742188 88.792969 81.113281 88.792969 C 80.640625 88.792969 80.222656 88.878906 79.867188 89.050781 C 79.519531 89.222656 79.21875 89.449219 78.992188 89.738281 C 78.761719 90.023438 78.574219 90.355469 78.460938 90.726562 C 78.347656 91.097656 78.289062 91.472656 78.289062 91.859375 L 78.289062 95.027344 C 78.289062 95.429688 78.347656 95.832031 78.460938 96.203125 C 78.574219 96.578125 78.746094 96.921875 78.992188 97.207031 C 79.21875 97.492188 79.519531 97.738281 79.867188 97.910156 C 80.210938 98.097656 80.625 98.183594 81.113281 98.183594 C 81.742188 98.183594 82.273438 98.011719 82.71875 97.679688 C 83.160156 97.351562 83.476562 96.90625 83.679688 96.359375 Z M 85.097656 97.078125 "/>
<path style=" stroke:none;fill-rule:nonzero;fill:rgb(94.117647%,29.019608%,17.254902%);fill-opacity:1;" d="M 87.105469 95.703125 L 87.105469 95.84375 C 87.105469 96.1875 87.148438 96.503906 87.246094 96.820312 C 87.332031 97.121094 87.476562 97.394531 87.664062 97.621094 C 87.847656 97.851562 88.078125 98.023438 88.363281 98.152344 C 88.652344 98.28125 88.96875 98.355469 89.339844 98.355469 C 89.625 98.355469 89.941406 98.28125 90.3125 98.140625 C 90.6875 97.996094 91.015625 97.796875 91.304688 97.523438 L 92.234375 98.554688 C 91.820312 98.941406 91.359375 99.230469 90.859375 99.402344 C 90.34375 99.574219 89.828125 99.660156 89.28125 99.660156 C 88.839844 99.660156 88.394531 99.601562 87.964844 99.472656 C 87.519531 99.34375 87.132812 99.128906 86.789062 98.796875 C 86.445312 98.46875 86.15625 98.023438 85.941406 97.449219 C 85.726562 96.878906 85.613281 96.144531 85.613281 95.242188 C 85.613281 94.398438 85.726562 93.679688 85.941406 93.09375 C 86.15625 92.519531 86.445312 92.058594 86.800781 91.714844 C 87.148438 91.371094 87.546875 91.128906 87.976562 90.984375 C 88.40625 90.839844 88.824219 90.769531 89.238281 90.769531 C 89.710938 90.769531 90.171875 90.855469 90.585938 91.027344 C 91.003906 91.199219 91.375 91.445312 91.691406 91.773438 C 92.003906 92.101562 92.25 92.503906 92.4375 92.976562 C 92.621094 93.449219 92.707031 93.996094 92.707031 94.597656 L 92.707031 95.714844 L 87.105469 95.714844 Z M 89.140625 92.132812 C 88.550781 92.132812 88.0625 92.332031 87.707031 92.75 C 87.347656 93.164062 87.148438 93.738281 87.089844 94.496094 L 91.160156 94.496094 C 91.132812 93.707031 90.929688 93.121094 90.574219 92.734375 C 90.214844 92.332031 89.742188 92.132812 89.140625 92.132812 Z M 89.140625 92.132812 "/>
<path style=" stroke:none;fill-rule:nonzero;fill:rgb(94.117647%,29.019608%,17.254902%);fill-opacity:1;" d="M 98.457031 92.535156 C 98.113281 92.316406 97.710938 92.203125 97.238281 92.203125 C 96.664062 92.203125 96.191406 92.375 95.816406 92.734375 C 95.445312 93.078125 95.257812 93.609375 95.257812 94.3125 L 95.257812 99.558594 L 93.824219 99.558594 L 93.824219 90.871094 L 95.257812 90.871094 L 95.257812 91.972656 L 95.332031 91.972656 C 95.632812 91.53125 95.976562 91.230469 96.347656 91.042969 C 96.722656 90.871094 97.136719 90.785156 97.609375 90.785156 C 97.910156 90.785156 98.199219 90.8125 98.457031 90.882812 C 98.714844 90.941406 98.929688 91.042969 99.085938 91.15625 Z M 98.457031 92.535156 "/>
<path style=" stroke:none;fill-rule:nonzero;fill:rgb(94.117647%,29.019608%,17.254902%);fill-opacity:1;" d="M 102.667969 99.558594 C 102.066406 99.558594 101.59375 99.386719 101.222656 99.042969 C 100.847656 98.699219 100.664062 98.195312 100.664062 97.523438 L 100.664062 92.117188 L 99.632812 92.117188 L 99.632812 90.871094 L 100.664062 90.871094 L 100.664062 88.71875 L 102.097656 88.71875 L 102.097656 90.871094 L 103.429688 90.871094 L 103.429688 92.117188 L 102.097656 92.117188 L 102.097656 97.164062 C 102.097656 97.4375 102.152344 97.679688 102.253906 97.910156 C 102.355469 98.140625 102.597656 98.253906 102.957031 98.253906 L 103.714844 98.253906 L 103.714844 99.574219 L 102.667969 99.574219 Z M 102.667969 99.558594 "/>
<path style=" stroke:none;fill-rule:nonzero;fill:rgb(36.862745%,11.372549%,37.647059%);fill-opacity:1;" d="M 57.046875 61.75 L 58.839844 61.75 L 61.144531 69.394531 L 59.699219 69.394531 L 59.226562 67.714844 L 56.589844 67.714844 L 56.101562 69.394531 L 54.753906 69.394531 Z M 58.894531 66.511719 L 57.90625 63.085938 L 56.933594 66.496094 L 58.894531 66.496094 Z M 58.894531 66.511719 "/>
<path style=" stroke:none;fill-rule:nonzero;fill:rgb(36.862745%,11.372549%,37.647059%);fill-opacity:1;" d="M 67.410156 67.484375 C 67.035156 68.804688 66.046875 69.523438 64.585938 69.523438 C 62.609375 69.523438 61.574219 68.203125 61.574219 65.609375 C 61.574219 63.054688 62.707031 61.652344 64.671875 61.652344 C 66.046875 61.652344 66.949219 62.351562 67.253906 63.644531 L 65.933594 63.972656 C 65.746094 63.242188 65.289062 62.855469 64.601562 62.855469 C 63.554688 62.855469 63.050781 63.773438 63.050781 65.609375 C 63.050781 67.371094 63.539062 68.230469 64.628906 68.230469 C 65.332031 68.230469 65.890625 67.800781 66.089844 67.097656 Z M 67.410156 67.484375 "/>
<path style=" stroke:none;fill-rule:nonzero;fill:rgb(36.862745%,11.372549%,37.647059%);fill-opacity:1;" d="M 73.902344 67.484375 C 73.53125 68.804688 72.539062 69.523438 71.078125 69.523438 C 69.101562 69.523438 68.070312 68.203125 68.070312 65.609375 C 68.070312 63.054688 69.203125 61.652344 71.164062 61.652344 C 72.539062 61.652344 73.445312 62.351562 73.746094 63.644531 L 72.425781 63.972656 C 72.238281 63.242188 71.78125 62.855469 71.09375 62.855469 C 70.046875 62.855469 69.546875 63.773438 69.546875 65.609375 C 69.546875 67.371094 70.03125 68.230469 71.121094 68.230469 C 71.824219 68.230469 72.382812 67.800781 72.585938 67.097656 Z M 73.902344 67.484375 "/>
<path style=" stroke:none;fill-rule:nonzero;fill:rgb(36.862745%,11.372549%,37.647059%);fill-opacity:1;" d="M 75.035156 61.75 L 77.628906 61.75 C 79.550781 61.75 80.496094 62.480469 80.496094 64.03125 C 80.496094 65.035156 79.996094 65.707031 79.089844 65.964844 L 80.78125 69.394531 L 79.234375 69.394531 L 77.757812 66.296875 L 76.441406 66.296875 L 76.441406 69.394531 L 75.035156 69.394531 Z M 77.699219 65.089844 C 78.617188 65.089844 79.046875 64.761719 79.046875 64.03125 C 79.046875 63.285156 78.605469 62.96875 77.699219 62.96875 L 76.453125 62.96875 L 76.453125 65.089844 Z M 77.699219 65.089844 "/>
<path style=" stroke:none;fill-rule:nonzero;fill:rgb(36.862745%,11.372549%,37.647059%);fill-opacity:1;" d="M 82.085938 61.75 L 87.046875 61.75 L 87.046875 63 L 83.507812 63 L 83.507812 64.804688 L 86.085938 64.804688 L 86.085938 66.023438 L 83.507812 66.023438 L 83.507812 68.101562 L 87.203125 68.101562 L 87.203125 69.40625 L 82.085938 69.40625 Z M 82.085938 61.75 "/>
<path style=" stroke:none;fill-rule:nonzero;fill:rgb(36.862745%,11.372549%,37.647059%);fill-opacity:1;" d="M 88.378906 61.75 L 90.714844 61.75 C 93.082031 61.75 94.300781 63.042969 94.300781 65.550781 C 94.300781 68.101562 93.082031 69.40625 90.660156 69.40625 L 88.378906 69.40625 Z M 90.617188 68.132812 C 92.191406 68.132812 92.851562 67.355469 92.851562 65.535156 C 92.851562 63.800781 92.148438 63.011719 90.601562 63.011719 L 89.828125 63.011719 L 89.828125 68.132812 Z M 90.617188 68.132812 "/>
<path style=" stroke:none;fill-rule:nonzero;fill:rgb(36.862745%,11.372549%,37.647059%);fill-opacity:1;" d="M 95.730469 61.75 L 97.179688 61.75 L 97.179688 69.394531 L 95.730469 69.394531 Z M 95.730469 61.75 "/>
<path style=" stroke:none;fill-rule:nonzero;fill:rgb(36.862745%,11.372549%,37.647059%);fill-opacity:1;" d="M 100.40625 63.011719 L 98.398438 63.011719 L 98.398438 61.75 L 103.875 61.75 L 103.875 63.011719 L 101.867188 63.011719 L 101.867188 69.394531 L 100.417969 69.394531 L 100.417969 63.011719 Z M 100.40625 63.011719 "/>
<path style=" stroke:none;fill-rule:nonzero;fill:rgb(36.862745%,11.372549%,37.647059%);fill-opacity:1;" d="M 104.964844 61.75 L 109.921875 61.75 L 109.921875 63 L 106.382812 63 L 106.382812 64.804688 L 108.960938 64.804688 L 108.960938 66.023438 L 106.382812 66.023438 L 106.382812 68.101562 L 110.078125 68.101562 L 110.078125 69.40625 L 104.964844 69.40625 Z M 104.964844 61.75 "/>
<path style=" stroke:none;fill-rule:nonzero;fill:rgb(36.862745%,11.372549%,37.647059%);fill-opacity:1;" d="M 111.253906 61.75 L 113.589844 61.75 C 115.957031 61.75 117.175781 63.042969 117.175781 65.550781 C 117.175781 68.101562 115.957031 69.40625 113.535156 69.40625 L 111.253906 69.40625 Z M 113.492188 68.132812 C 115.066406 68.132812 115.726562 67.355469 115.726562 65.535156 C 115.726562 63.800781 115.023438 63.011719 113.476562 63.011719 L 112.703125 63.011719 L 112.703125 68.132812 Z M 113.492188 68.132812 "/>
<path style=" stroke:none;fill-rule:nonzero;fill:rgb(36.862745%,11.372549%,37.647059%);fill-opacity:1;" d="M 122.996094 63.011719 L 120.988281 63.011719 L 120.988281 61.75 L 126.464844 61.75 L 126.464844 63.011719 L 124.457031 63.011719 L 124.457031 69.394531 L 123.007812 69.394531 L 123.007812 63.011719 Z M 122.996094 63.011719 "/>
<path style=" stroke:none;fill-rule:nonzero;fill:rgb(36.862745%,11.372549%,37.647059%);fill-opacity:1;" d="M 127.507812 61.75 L 130.105469 61.75 C 132.023438 61.75 132.96875 62.480469 132.96875 64.03125 C 132.96875 65.035156 132.46875 65.707031 131.566406 65.964844 L 133.257812 69.394531 L 131.710938 69.394531 L 130.234375 66.296875 L 128.914062 66.296875 L 128.914062 69.394531 L 127.507812 69.394531 Z M 130.175781 65.089844 C 131.09375 65.089844 131.523438 64.761719 131.523438 64.03125 C 131.523438 63.285156 131.078125 62.96875 130.175781 62.96875 L 128.929688 62.96875 L 128.929688 65.089844 Z M 130.175781 65.089844 "/>
<path style=" stroke:none;fill-rule:nonzero;fill:rgb(36.862745%,11.372549%,37.647059%);fill-opacity:1;" d="M 136.007812 61.75 L 137.800781 61.75 L 140.109375 69.394531 L 138.660156 69.394531 L 138.1875 67.714844 L 135.550781 67.714844 L 135.0625 69.394531 L 133.703125 69.394531 Z M 137.859375 66.511719 L 136.882812 63.085938 L 135.910156 66.496094 L 137.859375 66.496094 Z M 137.859375 66.511719 "/>
<path style=" stroke:none;fill-rule:nonzero;fill:rgb(36.862745%,11.372549%,37.647059%);fill-opacity:1;" d="M 141.15625 61.75 L 142.601562 61.75 L 142.601562 69.394531 L 141.15625 69.394531 Z M 141.15625 61.75 "/>
<path style=" stroke:none;fill-rule:nonzero;fill:rgb(36.862745%,11.372549%,37.647059%);fill-opacity:1;" d="M 144.4375 61.75 L 145.96875 61.75 L 148.164062 65.59375 C 148.480469 66.152344 148.78125 66.753906 149.023438 67.429688 C 148.953125 66.957031 148.921875 66.4375 148.921875 65.867188 L 148.921875 61.75 L 150.257812 61.75 L 150.257812 69.394531 L 148.921875 69.394531 L 146.53125 65.449219 C 146.285156 65.035156 146 64.433594 145.667969 63.613281 C 145.742188 64.089844 145.769531 64.605469 145.769531 65.175781 L 145.769531 69.40625 L 144.4375 69.40625 Z M 144.4375 61.75 "/>
<path style=" stroke:none;fill-rule:nonzero;fill:rgb(36.862745%,11.372549%,37.647059%);fill-opacity:1;" d="M 152.089844 61.75 L 153.539062 61.75 L 153.539062 69.394531 L 152.089844 69.394531 Z M 152.089844 61.75 "/>
<path style=" stroke:none;fill-rule:nonzero;fill:rgb(36.862745%,11.372549%,37.647059%);fill-opacity:1;" d="M 155.375 61.75 L 156.90625 61.75 L 159.101562 65.59375 C 159.414062 66.152344 159.714844 66.753906 159.960938 67.429688 C 159.886719 66.957031 159.859375 66.4375 159.859375 65.867188 L 159.859375 61.75 L 161.191406 61.75 L 161.191406 69.394531 L 159.859375 69.394531 L 157.464844 65.449219 C 157.222656 65.035156 156.9375 64.433594 156.605469 63.613281 C 156.675781 64.089844 156.707031 64.605469 156.707031 65.175781 L 156.707031 69.40625 L 155.375 69.40625 Z M 155.375 61.75 "/>
<path style=" stroke:none;fill-rule:nonzero;fill:rgb(36.862745%,11.372549%,37.647059%);fill-opacity:1;" d="M 167.355469 68.605469 C 166.867188 69.234375 166.222656 69.535156 165.335938 69.535156 C 163.542969 69.535156 162.425781 68.058594 162.425781 65.507812 C 162.425781 63.070312 163.613281 61.664062 165.59375 61.664062 C 166.953125 61.664062 167.902344 62.351562 168.289062 63.601562 L 166.984375 63.929688 C 166.683594 63.214844 166.222656 62.871094 165.5625 62.871094 C 164.476562 62.871094 163.886719 63.800781 163.886719 65.59375 C 163.886719 67.355469 164.488281 68.273438 165.519531 68.273438 C 166.339844 68.273438 166.910156 67.699219 167.039062 66.726562 L 165.605469 66.726562 L 165.605469 65.523438 L 168.460938 65.523438 L 168.460938 69.40625 L 167.441406 69.40625 Z M 167.355469 68.605469 "/>
<path style=" stroke:none;fill-rule:nonzero;fill:rgb(36.862745%,11.372549%,37.647059%);fill-opacity:1;" d="M 175.796875 61.652344 C 177.761719 61.652344 178.980469 63.097656 178.980469 65.578125 C 178.980469 68.058594 177.761719 69.507812 175.796875 69.507812 C 173.835938 69.507812 172.617188 68.058594 172.617188 65.578125 C 172.628906 63.097656 173.835938 61.652344 175.796875 61.652344 Z M 175.796875 68.230469 C 176.917969 68.230469 177.519531 67.34375 177.519531 65.59375 C 177.519531 63.828125 176.917969 62.925781 175.796875 62.925781 C 174.679688 62.925781 174.078125 63.828125 174.078125 65.59375 C 174.09375 67.34375 174.695312 68.230469 175.796875 68.230469 Z M 175.796875 68.230469 "/>
<path style=" stroke:none;fill-rule:nonzero;fill:rgb(36.862745%,11.372549%,37.647059%);fill-opacity:1;" d="M 180.214844 61.75 L 182.808594 61.75 C 184.726562 61.75 185.675781 62.480469 185.675781 64.03125 C 185.675781 65.035156 185.171875 65.707031 184.269531 65.964844 L 185.960938 69.394531 L 184.414062 69.394531 L 182.9375 66.296875 L 181.617188 66.296875 L 181.617188 69.394531 L 180.214844 69.394531 Z M 182.878906 65.089844 C 183.796875 65.089844 184.226562 64.761719 184.226562 64.03125 C 184.226562 63.285156 183.78125 62.96875 182.878906 62.96875 L 181.632812 62.96875 L 181.632812 65.089844 Z M 182.878906 65.089844 "/>
<path style=" stroke:none;fill-rule:nonzero;fill:rgb(36.862745%,11.372549%,37.647059%);fill-opacity:1;" d="M 191.695312 68.605469 C 191.207031 69.234375 190.5625 69.535156 189.671875 69.535156 C 187.882812 69.535156 186.761719 68.058594 186.761719 65.507812 C 186.761719 63.070312 187.953125 61.664062 189.929688 61.664062 C 191.292969 61.664062 192.238281 62.351562 192.625 63.601562 L 191.320312 63.929688 C 191.019531 63.214844 190.5625 62.871094 189.902344 62.871094 C 188.8125 62.871094 188.226562 63.800781 188.226562 65.59375 C 188.226562 67.355469 188.828125 68.273438 189.859375 68.273438 C 190.675781 68.273438 191.25 67.699219 191.378906 66.726562 L 189.945312 66.726562 L 189.945312 65.523438 L 192.796875 65.523438 L 192.796875 69.40625 L 191.78125 69.40625 Z M 191.695312 68.605469 "/>
<path style=" stroke:none;fill-rule:nonzero;fill:rgb(36.862745%,11.372549%,37.647059%);fill-opacity:1;" d="M 195.75 61.75 L 197.542969 61.75 L 199.851562 69.394531 L 198.402344 69.394531 L 197.929688 67.714844 L 195.292969 67.714844 L 194.804688 69.394531 L 193.441406 69.394531 Z M 197.597656 66.511719 L 196.609375 63.085938 L 195.636719 66.496094 L 197.597656 66.496094 Z M 197.597656 66.511719 "/>
<path style=" stroke:none;fill-rule:nonzero;fill:rgb(36.862745%,11.372549%,37.647059%);fill-opacity:1;" d="M 200.722656 61.75 L 202.257812 61.75 L 204.449219 65.59375 C 204.765625 66.152344 205.066406 66.753906 205.3125 67.429688 C 205.238281 66.957031 205.210938 66.4375 205.210938 65.867188 L 205.210938 61.75 L 206.542969 61.75 L 206.542969 69.394531 L 205.210938 69.394531 L 202.816406 65.449219 C 202.574219 65.035156 202.285156 64.433594 201.957031 63.613281 C 202.027344 64.089844 202.058594 64.605469 202.058594 65.175781 L 202.058594 69.40625 L 200.722656 69.40625 Z M 200.722656 61.75 "/>
<path style=" stroke:none;fill-rule:nonzero;fill:rgb(36.862745%,11.372549%,37.647059%);fill-opacity:1;" d="M 208.390625 61.75 L 209.839844 61.75 L 209.839844 69.394531 L 208.390625 69.394531 Z M 208.390625 61.75 "/>
<path style=" stroke:none;fill-rule:nonzero;fill:rgb(36.862745%,11.372549%,37.647059%);fill-opacity:1;" d="M 210.988281 68.132812 L 214.683594 62.984375 L 211.230469 62.984375 L 211.230469 61.738281 L 216.277344 61.738281 L 216.277344 62.941406 L 212.519531 68.132812 L 216.332031 68.132812 L 216.332031 69.394531 L 210.988281 69.394531 Z M 210.988281 68.132812 "/>
<path style=" stroke:none;fill-rule:nonzero;fill:rgb(36.862745%,11.372549%,37.647059%);fill-opacity:1;" d="M 218.925781 61.75 L 220.734375 61.75 L 223.039062 69.394531 L 221.59375 69.394531 L 221.121094 67.714844 L 218.484375 67.714844 L 217.996094 69.394531 L 216.632812 69.394531 Z M 220.777344 66.511719 L 219.789062 63.085938 L 218.8125 66.496094 L 220.777344 66.496094 Z M 220.777344 66.511719 "/>
<path style=" stroke:none;fill-rule:nonzero;fill:rgb(36.862745%,11.372549%,37.647059%);fill-opacity:1;" d="M 224.558594 63.011719 L 222.554688 63.011719 L 222.554688 61.75 L 228.027344 61.75 L 228.027344 63.011719 L 226.023438 63.011719 L 226.023438 69.394531 L 224.574219 69.394531 L 224.574219 63.011719 Z M 224.558594 63.011719 "/>
<path style=" stroke:none;fill-rule:nonzero;fill:rgb(36.862745%,11.372549%,37.647059%);fill-opacity:1;" d="M 229.21875 61.75 L 230.667969 61.75 L 230.667969 69.394531 L 229.21875 69.394531 Z M 229.21875 61.75 "/>
<path style=" stroke:none;fill-rule:nonzero;fill:rgb(36.862745%,11.372549%,37.647059%);fill-opacity:1;" d="M 235.238281 61.652344 C 237.203125 61.652344 238.421875 63.097656 238.421875 65.578125 C 238.421875 68.058594 237.203125 69.507812 235.238281 69.507812 C 233.289062 69.507812 232.058594 68.058594 232.058594 65.578125 C 232.058594 63.097656 233.273438 61.652344 235.238281 61.652344 Z M 235.238281 68.230469 C 236.355469 68.230469 236.957031 67.34375 236.957031 65.59375 C 236.957031 63.828125 236.355469 62.925781 235.238281 62.925781 C 234.121094 62.925781 233.519531 63.828125 233.519531 65.59375 C 233.519531 67.34375 234.121094 68.230469 235.238281 68.230469 Z M 235.238281 68.230469 "/>
<path style=" stroke:none;fill-rule:nonzero;fill:rgb(36.862745%,11.372549%,37.647059%);fill-opacity:1;" d="M 239.625 61.75 L 241.160156 61.75 L 243.351562 65.59375 C 243.667969 66.152344 243.96875 66.753906 244.210938 67.429688 C 244.140625 66.957031 244.109375 66.4375 244.109375 65.867188 L 244.109375 61.75 L 245.445312 61.75 L 245.445312 69.394531 L 244.109375 69.394531 L 241.71875 65.449219 C 241.472656 65.035156 241.1875 64.433594 240.855469 63.613281 C 240.929688 64.089844 240.957031 64.605469 240.957031 65.175781 L 240.957031 69.40625 L 239.625 69.40625 Z M 239.625 61.75 "/>
</g>
</svg>
