<?xml version="1.0" encoding="utf-8"?>
<!-- Generator: Adobe Illustrator 24.1.0, SVG Export Plug-In . SVG Version: 6.00 Build 0)  -->
<svg version="1.1" id="Layer_1" xmlns="http://www.w3.org/2000/svg" xmlns:xlink="http://www.w3.org/1999/xlink" x="0px" y="0px"
	 viewBox="0 0 83 83" style="enable-background:new 0 0 83 83;" xml:space="preserve">
<style type="text/css">
	.st0{fill:#04BEDE;}
	.st1{fill:#FE600E;}
	.st2{fill:#4F16A7;}
	.st3{fill:#5018A8;}
	.st4{fill:#5118A8;}
	.st5{fill:none;stroke:#000000;stroke-width:0.599;stroke-miterlimit:10;}
	.st6{fill:none;stroke:#B9B9B9;stroke-width:0.2396;stroke-miterlimit:10;enable-background:new    ;}
</style>
<g>
	<g>
		<path class="st0" d="M33.7,42.2c2.2,0,4.4,0,6.5,0c0.5,0,0.7,0.1,0.7,0.7c0,0.8,0,1.6,0,2.4c0,0.3-0.1,0.5-0.5,0.6
			c-1.9,0.3-3.1,1.7-3.1,3.5c0,1.8,1.3,3.3,3.1,3.5c0.3,0,0.5,0.1,0.5,0.5c0,0.9,0,1.8,0,2.7c0,0.4-0.1,0.5-0.5,0.5
			c-4.5,0-8.9,0-13.4,0c-0.4,0-0.5-0.1-0.5-0.5c0-0.8,0-1.7,0-2.5c0-0.4,0.1-0.5,0.5-0.6c1.8-0.2,3.1-1.7,3.1-3.5
			c0-1.8-1.3-3.3-3.1-3.6c-0.4-0.1-0.5-0.2-0.5-0.6c0-0.8,0-1.5,0-2.3c0-0.6,0.1-0.8,0.7-0.8C29.4,42.2,31.6,42.2,33.7,42.2z"/>
		<path class="st1" d="M49.3,32.8c0.5-2.6,1.9-4.5,4.4-5.6c0.7-0.3,1.5-0.4,2.2-0.5c0.4-0.1,0.5,0.1,0.5,0.5c0,4.4,0,8.9,0,13.3
			c0,0.5-0.1,0.6-0.6,0.5c-3.3-0.3-5.9-2.6-6.5-5.8c0-0.1,0-0.2-0.1-0.3c-0.2,0.1-0.2,0.3-0.2,0.5c-0.7,3.1-3.3,5.4-6.5,5.6
			c-0.5,0-0.6-0.1-0.6-0.5c0-4.4,0-8.8,0-13.2c0-0.5,0.2-0.6,0.6-0.5c3.3,0.4,5.7,2.5,6.4,5.8C49.2,32.6,49.2,32.7,49.3,32.8z"/>
		<path class="st2" d="M44.4,42.2c1.1,0,2.3,0,3.5,0c0.3,0,0.5,0.1,0.7,0.3c2.5,2.5,5,5,7.6,7.6c0.2,0.2,0.3,0.3,0.3,0.6
			c0,1.2,0,2.5,0,3.6C52.4,50.2,48.4,46.2,44.4,42.2z"/>
		<path class="st2" d="M42.1,44.4c4.1,4.1,8.1,8.1,12.1,12.1c-1,0-1.9,0-2.9,0c-0.8,0.1-1.3-0.2-1.9-0.8c-2.3-2.3-4.6-4.6-6.9-6.9
			c-0.3-0.3-0.5-0.6-0.5-1.1C42.1,46.7,42.1,45.6,42.1,44.4z"/>
		<path class="st3" d="M56.5,46.1c-1.3-1.3-2.6-2.6-4-4c1.3,0,2.5,0,3.7,0c0.3,0,0.3,0.2,0.3,0.4C56.5,43.7,56.5,44.9,56.5,46.1z"/>
		<path class="st4" d="M45.9,56.5c-1.1,0-2.2,0-3.3,0c-0.3,0-0.5-0.1-0.5-0.4c0-1.1,0-2.3,0-3.4C43.4,54,44.6,55.3,45.9,56.5z"/>
		<path d="M35.9,26.6c-2.9,0-5.9,0-8.8,0c-0.5,0-0.6,0.1-0.6,0.6c0,2.2,0,4.4,0,6.6c0,2.2,0,4.4,0,6.5c0,0.6,0.2,0.7,0.7,0.7
			c0.5,0,0.9,0,1.4,0c0.5,0,0.7-0.1,0.7-0.7c-0.1-1,0-2.1,0-3.1c0-0.5,0.1-0.7,0.7-0.7c2,0,4,0,6,0c2.8,0,5-2.2,5-5
			C40.9,28.8,38.7,26.7,35.9,26.6z M35.9,33.8c-2,0-4.1,0-6.1,0c-0.4,0-0.5-0.1-0.5-0.5c0-1.2,0-2.4,0-3.5c0-0.4,0.2-0.5,0.5-0.5
			c1,0,2.1,0,3.1,0c1,0,2,0,3,0c1.3,0,2.3,1,2.3,2.2C38.2,32.8,37.2,33.8,35.9,33.8z"/>
	</g>
	<ellipse class="st5" cx="41.5" cy="41.5" rx="39.8" ry="39.8"/>
	<ellipse class="st6" cx="41.5" cy="41.5" rx="27.2" ry="27.2"/>
	<g>
		<path d="M7.4,33.8l0.3-1.1c0.2-0.7,0.6-1.2,1.4-1c0.8,0.2,0.9,0.9,0.8,1.5l-0.1,0.4l1.1,0.3l-0.2,0.7L7.4,33.8z M9.3,33.1
			c0.1-0.4,0-0.6-0.4-0.7c-0.3-0.1-0.5,0.1-0.6,0.5l-0.1,0.4l1,0.3L9.3,33.1z"/>
		<path d="M8.3,30.7l0.4-1.1c0.2-0.7,0.7-1.1,1.4-0.9c0.7,0.3,0.8,0.9,0.6,1.6l-0.1,0.4l1.1,0.4l-0.3,0.7L8.3,30.7z M10.1,30.1
			c0.1-0.4,0-0.6-0.3-0.7c-0.3-0.1-0.5,0-0.6,0.4l-0.1,0.3l0.9,0.3L10.1,30.1z M10.2,29.7l2.1-0.4L12,30.1l-1.6,0.2L10.2,29.7z"/>
		<path d="M10.9,28.4c-1-0.5-1.3-1.2-1-1.9c0.3-0.7,1.1-0.9,2.1-0.5c1,0.5,1.3,1.2,1,2C12.7,28.7,11.9,28.9,10.9,28.4z M11.7,26.7
			c-0.6-0.3-1.1-0.3-1.2,0.1c-0.1,0.3,0.1,0.7,0.7,1c0.6,0.3,1.1,0.3,1.2,0C12.6,27.4,12.4,27,11.7,26.7z"/>
		<path d="M13.3,26.2l-0.2-0.6c0.3,0,0.5-0.2,0.6-0.4c0.2-0.3,0.1-0.5-0.3-0.7l-1.3-0.8l-0.7,1.1L11,24.5l1.1-1.8l1.9,1.1
			c0.6,0.3,0.9,0.9,0.4,1.7C14.1,25.8,13.8,26.1,13.3,26.2z"/>
		<path d="M12.7,21.7L14,20l0.5,0.4l-0.9,1.2l0.5,0.4l0.7-1l0.5,0.4l-0.7,1l0.6,0.5l0.9-1.2l0.5,0.4l-1.3,1.8L12.7,21.7z"/>
		<path d="M15.8,20.4c-0.8-0.7-0.8-1.7-0.3-2.3c0.3-0.3,0.7-0.4,1-0.5l0.1,0.6c-0.2,0-0.4,0.1-0.6,0.3c-0.3,0.4-0.2,0.9,0.3,1.3
			c0.5,0.5,1,0.5,1.4,0.1c0.2-0.2,0.2-0.4,0.2-0.6l0.6,0c0.1,0.4-0.1,0.8-0.4,1.1C17.5,21,16.6,21.2,15.8,20.4z"/>
		<path d="M17.8,16.7l-0.7,0.7l-0.4-0.5l2-1.9l0.4,0.5l-0.7,0.7l1.8,2l-0.6,0.5L17.8,16.7z"/>
		<path d="M21.8,12.7l0.7-0.4l0.9,0.8l0.3,0.3l0,0L23.6,13l-0.4-1.2l0.7-0.4l1.8,2.8l-0.5,0.3l-0.6-0.9c-0.2-0.3-0.6-1-0.7-1.4l0,0
			l0.3,0.9l0.2,0.8L24,14.2l-0.6-0.5L22.7,13l0,0c0.2,0.3,0.7,0.9,0.9,1.2l0.5,0.9l-0.5,0.3L21.8,12.7z"/>
		<path d="M25.3,10.6l0.8-0.4l2.4,2.5l-0.7,0.4l-1.1-1.3c-0.2-0.3-0.5-0.6-0.7-0.8l0,0c0.1,0.3,0.2,0.7,0.3,1.1l0.4,1.7L25.9,14
			L25.3,10.6z M25.8,12.5l1.4-0.7l0.3,0.5L26.1,13L25.8,12.5z"/>
		<path d="M27.6,9.5l0.7-0.3l1.3,1.3l0.5,0.6l0,0c-0.2-0.3-0.4-0.7-0.5-1.1l-0.4-1.1l0.7-0.3l1.2,3.1L30.3,12L29,10.7l-0.5-0.6l0,0
			c0.2,0.3,0.4,0.7,0.5,1.1l0.4,1.1l-0.7,0.3L27.6,9.5z"/>
		<path d="M31.3,8.1l0.9-0.2l1.9,2.9L33.4,11l-0.9-1.5c-0.2-0.3-0.4-0.6-0.6-1l0,0c0,0.4,0,0.8,0.1,1.1l0.1,1.7l-0.7,0.2L31.3,8.1z
			 M31.5,10.1l1.5-0.4l0.2,0.6l-1.5,0.4L31.5,10.1z"/>
		<path d="M34,9.1c-0.2-1.1,0.3-1.8,1.2-2c0.4-0.1,0.8,0.1,1,0.2l-0.3,0.5c-0.2-0.1-0.3-0.2-0.6-0.1c-0.4,0.1-0.7,0.5-0.5,1.2
			c0.1,0.7,0.5,1,1,0.9c0.1,0,0.2-0.1,0.3-0.2l-0.1-0.6l-0.5,0.1l-0.1-0.6l1.1-0.2l0.3,1.5c-0.2,0.2-0.5,0.5-0.9,0.6
			C35,10.7,34.2,10.2,34,9.1z"/>
		<path d="M37.2,6.9l2.2-0.2l0.1,0.6L38,7.4L38,8.1L39.3,8l0.1,0.6l-1.2,0.1l0.1,0.8l1.5-0.1l0.1,0.6l-2.2,0.2L37.2,6.9z"/>
		<path d="M40.3,6.6l0.8,0l0.3,1.2l0.1,0.5h0l0.1-0.5l0.3-1.2l0.8,0l0,3.3l-0.6,0l0-1c0-0.4,0.1-1.2,0.1-1.5l0,0l-0.3,0.9l-0.3,0.8
			h-0.4L41,8.3l-0.2-0.9h0c0,0.4,0.1,1.2,0.1,1.5l0,1h-0.6L40.3,6.6z"/>
		<path d="M43.7,6.7l2.2,0.2l-0.1,0.6l-1.4-0.1L44.3,8l1.2,0.1l-0.1,0.6l-1.2-0.1l-0.1,0.8l1.5,0.1l-0.1,0.6L43.4,10L43.7,6.7z"/>
		<path d="M46.9,7l0.8,0.1L48,8.9l0.1,0.8l0,0c0-0.3,0.1-0.8,0.1-1.2l0.2-1.1l0.7,0.1l-0.6,3.2l-0.8-0.1l-0.4-1.8l-0.1-0.8l0,0
			c0,0.4-0.1,0.8-0.1,1.2l-0.2,1.2l-0.7-0.1L46.9,7z"/>
		<path d="M50.7,8.5l-1-0.3l0.2-0.6l2.6,0.8L52.3,9l-1-0.3l-0.7,2.6l-0.7-0.2L50.7,8.5z"/>
		<path d="M55,12.3l0.7,0.3l0.9-1.8L56,10.4l0.3-0.6l2.1,1L58,11.5l-0.7-0.4L56.4,13l0.7,0.3l-0.3,0.6l-2.1-1L55,12.3z"/>
		<path d="M59.1,11.4l0.6,0.4l-0.3,1.8l-0.1,0.8l0,0c0.2-0.3,0.3-0.7,0.6-1.1l0.6-1l0.6,0.4l-1.8,2.8L58.7,15l0.3-1.8l0.1-0.8l0,0
			c-0.2,0.3-0.3,0.7-0.6,1.1l-0.6,1l-0.6-0.4L59.1,11.4z"/>
		<path d="M60.1,15.4l0.7-0.1c0.1,0.3,0.2,0.6,0.5,0.8c0.3,0.2,0.4,0.2,0.5,0.1c0.1-0.2,0-0.4-0.1-0.7l-0.2-0.4
			c-0.2-0.3-0.3-0.8,0-1.1c0.3-0.4,1-0.5,1.6,0c0.3,0.2,0.5,0.6,0.6,1L63,15.1c-0.1-0.3-0.2-0.5-0.4-0.7c-0.2-0.2-0.4-0.2-0.5,0
			c-0.1,0.2,0,0.4,0.2,0.6l0.2,0.4c0.2,0.4,0.3,0.8,0,1.1c-0.3,0.4-1,0.5-1.6,0C60.4,16.3,60.1,15.9,60.1,15.4z"/>
		<path d="M64.6,16.2l-0.7-0.7l0.4-0.5l2,1.9l-0.4,0.5l-0.7-0.7l-1.8,2l-0.6-0.5L64.6,16.2z"/>
		<path d="M64.8,19.3l0.5,0.6l1.5-1.4l-0.5-0.6l0.5-0.4l1.5,1.7l-0.5,0.4l-0.5-0.6l-1.5,1.4l0.5,0.6l-0.5,0.4l-1.5-1.7L64.8,19.3z"
			/>
		<path d="M68.9,21l-0.6-0.8l0.5-0.4l1.6,2.2L70,22.4l-0.6-0.8l-2.2,1.6l-0.4-0.6L68.9,21z"/>
		<path d="M69.1,23.6l1.7-1l0.4,0.6l-1.8,1.1c-0.3,0.2-0.5,0.4-0.3,0.7c0.2,0.3,0.4,0.3,0.8,0.1l1.8-1.1l0.4,0.6l-1.7,1
			c-0.7,0.4-1.3,0.4-1.8-0.3C68.2,24.7,68.4,24.1,69.1,23.6z"/>
		<path d="M72.3,26.5l-0.4-0.9l0.6-0.3l1.2,2.5l-0.6,0.3l-0.4-0.9l-2.4,1.2l-0.3-0.7L72.3,26.5z"/>
		<path d="M73.9,28.5l0.8,2.1l-0.6,0.2l-0.5-1.4L73,29.7l0.4,1.2l-0.6,0.2l-0.4-1.2l-0.7,0.3l0.5,1.4l-0.6,0.2l-0.8-2.1L73.9,28.5z"
			/>
	</g>
	<g>
		<path d="M11.2,53.3l0.3,0.8l-2.7,2.2l-0.3-0.7l1.4-1c0.3-0.2,0.6-0.4,0.9-0.6l0,0c-0.4,0.1-0.8,0.1-1.1,0.2L8,54.3l-0.3-0.7
			L11.2,53.3z M9.3,53.7l0.6,1.5l-0.5,0.2l-0.6-1.5L9.3,53.7z"/>
		<path d="M10.3,56.4l1.8-0.9l0.3,0.7l-1.9,1c-0.4,0.2-0.5,0.4-0.3,0.7c0.1,0.3,0.4,0.3,0.8,0.1l1.9-1l0.3,0.6l-1.8,0.9
			c-0.8,0.4-1.4,0.3-1.7-0.4C9.3,57.3,9.5,56.8,10.3,56.4z"/>
		<path d="M13.5,59.1l-0.5-0.8l0.5-0.3l1.5,2.3l-0.5,0.3l-0.5-0.8l-2.3,1.5l-0.4-0.6L13.5,59.1z"/>
		<path d="M15.2,60.6l0.5,0.6l-1,0.8l0.6,0.7l1-0.8l0.5,0.6l-2.6,2.1l-0.5-0.6l1.1-0.9l-0.6-0.7L13,63.2l-0.5-0.6L15.2,60.6z"/>
		<path d="M15.8,64c0.8-0.8,1.6-0.8,2.2-0.2c0.5,0.6,0.5,1.4-0.3,2.1c-0.8,0.8-1.6,0.8-2.2,0.2C14.9,65.6,15,64.8,15.8,64z
			 M17.1,65.4c0.5-0.5,0.6-0.9,0.4-1.1c-0.2-0.2-0.7-0.2-1.2,0.3c-0.5,0.5-0.6,0.9-0.4,1.2C16.2,66,16.6,65.9,17.1,65.4z"/>
		<path d="M19.2,65.1l0.9,0.8c0.5,0.5,0.8,1,0.3,1.6c-0.5,0.6-1.2,0.4-1.7,0l-0.3-0.3l-0.8,0.9L17,67.6L19.2,65.1z M19.4,67.3
			L19,69.4l-0.6-0.6l0.4-1.5L19.4,67.3z M19,67c0.3,0.3,0.6,0.3,0.8,0c0.2-0.2,0.1-0.5-0.2-0.7l-0.3-0.2l-0.6,0.7L19,67z"/>
		<path d="M19.9,69.3l0.6,0.5l1.2-1.7l-0.6-0.5l0.4-0.5l1.9,1.3L23,69l-0.6-0.5l-1.2,1.7l0.6,0.5l-0.4,0.5l-1.9-1.3L19.9,69.3z"/>
		<path d="M22.5,71.3l2.5-1.1l-1.2-0.7l0.3-0.5l2,1.2l-0.2,0.4l-2.5,1.1l1.3,0.8l-0.3,0.5l-2.1-1.3L22.5,71.3z"/>
		<path d="M26.7,70.4l2,0.9l-0.3,0.6l-1.3-0.6l-0.3,0.6l1.1,0.5L27.7,73l-1.1-0.5l-0.3,0.7l1.4,0.6l-0.3,0.6l-2-1L26.7,70.4z"/>
		<path d="M29.3,71.6l0.9,0.3c0.9,0.3,1.3,1,0.9,2.1c-0.4,1.1-1.2,1.4-2,1l-0.9-0.3L29.3,71.6z M29.2,74.5c0.5,0.2,0.9,0,1.2-0.7
			c0.3-0.7,0-1.1-0.5-1.3l-0.1,0l-0.7,2L29.2,74.5z"/>
		<path d="M35.8,74.1l-1-0.2l0.1-0.6l2.7,0.4l-0.1,0.6l-1-0.2l-0.4,2.7l-0.7-0.1L35.8,74.1z"/>
		<path d="M38.1,73.8l1.2,0.1c0.7,0,1.3,0.3,1.2,1.1c-0.1,0.8-0.7,1-1.4,1l-0.4,0l-0.1,1.2l-0.8-0.1L38.1,73.8z M39.1,75.4
			c0.4,0,0.6-0.1,0.6-0.5c0-0.3-0.2-0.5-0.6-0.5l-0.4,0l-0.1,0.9L39.1,75.4z M39.6,75.4l0.9,1.9l-0.8-0.1L39,75.8L39.6,75.4z"/>
		<path d="M41.9,74l0.9,0l1.1,3.3l-0.8,0l-0.5-1.7c-0.1-0.3-0.2-0.7-0.3-1.1l0,0c-0.1,0.4-0.2,0.7-0.2,1.1l-0.4,1.7l-0.8,0L41.9,74z
			 M41.6,75.9l1.6,0l0,0.6l-1.6,0L41.6,75.9z"/>
		<path d="M44.5,76.5l0.8-0.1l-0.2-2l-0.8,0.1l-0.1-0.6l2.3-0.3l0.1,0.6l-0.8,0.1l0.2,2l0.8-0.1l0.1,0.6l-2.3,0.3L44.5,76.5z"/>
		<path d="M47.2,73.5l0.8-0.2l1,1.5l0.4,0.7l0,0c-0.1-0.3-0.3-0.8-0.4-1.2l-0.2-1.1l0.7-0.2l0.7,3.2l-0.8,0.2l-1-1.5L48,74.3l0,0
			c0.1,0.4,0.3,0.8,0.4,1.2l0.2,1.1l-0.7,0.2L47.2,73.5z"/>
		<path d="M51,75.4l0.7-0.2l-0.6-2l-0.7,0.2l-0.2-0.6l2.2-0.7l0.2,0.6l-0.7,0.2l0.6,2l0.7-0.2l0.2,0.6L51.1,76L51,75.4z"/>
		<path d="M53,71.9l0.7-0.3l1.3,1.2l0.5,0.6l0,0c-0.2-0.3-0.4-0.7-0.6-1.1l-0.5-1.1l0.7-0.3l1.3,3.1l-0.7,0.3l-1.3-1.3l-0.5-0.6l0,0
			c0.2,0.3,0.4,0.7,0.6,1.1l0.5,1.1l-0.7,0.3L53,71.9z"/>
		<path d="M56.4,72.2c-0.5-1-0.2-1.8,0.5-2.2c0.4-0.2,0.8-0.2,1.1-0.1l-0.1,0.6c-0.2-0.1-0.4-0.1-0.6,0c-0.4,0.2-0.5,0.7-0.2,1.3
			c0.3,0.6,0.7,0.8,1.2,0.6c0.1-0.1,0.2-0.1,0.2-0.2l-0.3-0.5l-0.4,0.2l-0.3-0.5l1-0.5l0.7,1.3c-0.1,0.3-0.4,0.6-0.7,0.8
			C57.8,73.4,56.9,73.2,56.4,72.2z"/>
		<path d="M60.9,67.5l0.9-0.7c0.6-0.5,1.2-0.6,1.7,0c0.5,0.6,0.2,1.2-0.3,1.7l-0.3,0.3l0.7,0.9L63,70.1L60.9,67.5z M62.8,68.1
			c0.3-0.3,0.4-0.5,0.1-0.8c-0.2-0.3-0.5-0.2-0.8,0l-0.3,0.2l0.6,0.8L62.8,68.1z"/>
		<path d="M63.8,65.1l0.6-0.6l3.1,1.7l-0.6,0.6l-1.5-0.9c-0.3-0.2-0.6-0.4-0.9-0.6l0,0c0.2,0.3,0.4,0.7,0.6,0.9l0.9,1.5l-0.6,0.5
			L63.8,65.1z M64.9,66.8l1.1-1.1l0.4,0.4l-1.1,1.1L64.9,66.8z"/>
		<path d="M65.4,63.5l0.8-0.9c0.5-0.5,1-0.8,1.6-0.3c0.6,0.5,0.5,1.2,0,1.7l-0.3,0.3l0.9,0.8l-0.5,0.6L65.4,63.5z M67.3,63.7
			c0.3-0.3,0.3-0.6,0-0.8c-0.3-0.2-0.5-0.1-0.7,0.2l-0.2,0.3l0.7,0.6L67.3,63.7z M67.5,63.3l2.1,0.4l-0.5,0.6L67.5,64L67.5,63.3z"/>
		<path d="M68.3,60.9l-0.6,0.8l-0.5-0.4l1.6-2.2l0.5,0.4l-0.6,0.8l2.2,1.5l-0.4,0.6L68.3,60.9z"/>
		<path d="M69.1,58.7l0.4-0.7l1.8,0.2l0.8,0.1l0,0c-0.3-0.1-0.8-0.3-1.1-0.5l-1-0.6l0.4-0.6l2.9,1.7L72.7,59L71,58.8l-0.8-0.1l0,0
			c0.3,0.2,0.8,0.3,1.1,0.5l1,0.6l-0.4,0.6L69.1,58.7z"/>
		<path d="M70.6,56l0.9-2l0.6,0.3l-0.6,1.3l0.6,0.3l0.5-1.1l0.6,0.3l-0.5,1.1l0.7,0.3l0.6-1.4l0.6,0.3l-0.9,2L70.6,56z"/>
		<path d="M71.8,53.3l0.4-1.1c0.2-0.7,0.7-1.1,1.4-0.9c0.7,0.2,0.8,0.9,0.6,1.6L74,53.3l1.1,0.4l-0.2,0.7L71.8,53.3z M73.6,52.8
			c0.1-0.4,0-0.6-0.3-0.7c-0.3-0.1-0.5,0.1-0.6,0.4l-0.1,0.3l0.9,0.3L73.6,52.8z M73.7,52.3l2.1-0.4l-0.3,0.8L73.9,53L73.7,52.3z"/>
	</g>
	<g>
		<path d="M60.8,40.1v-0.4c0.2-0.4,0.5-0.8,0.9-1.2l0.2-0.2c0.3-0.3,0.5-0.6,0.5-0.9c0-0.2-0.1-0.4-0.2-0.5
			c-0.1-0.1-0.3-0.2-0.5-0.2c-0.2,0-0.5,0.1-0.8,0.3v-0.4c0.3-0.1,0.6-0.2,0.9-0.2c0.3,0,0.6,0.1,0.8,0.3c0.2,0.2,0.3,0.4,0.3,0.7
			c0,0.2,0,0.4-0.1,0.5c-0.1,0.2-0.3,0.4-0.5,0.6l-0.2,0.2c-0.4,0.4-0.6,0.7-0.7,1h1.5v0.4H60.8z"/>
		<path d="M60.9,46.2v-0.4h1V43l-1,0.2v-0.3l1.5-0.5v3.4h1v0.4H60.9z"/>
	</g>
	<g>
		<path d="M20,40.1v-0.4c0.2-0.4,0.5-0.8,0.9-1.2l0.2-0.2c0.3-0.3,0.5-0.6,0.5-0.9c0-0.2-0.1-0.4-0.2-0.5c-0.1-0.1-0.3-0.2-0.5-0.2
			c-0.2,0-0.5,0.1-0.8,0.3v-0.4c0.3-0.1,0.6-0.2,0.9-0.2c0.3,0,0.6,0.1,0.8,0.3c0.2,0.2,0.3,0.4,0.3,0.7c0,0.2,0,0.4-0.1,0.5
			c-0.1,0.2-0.3,0.4-0.5,0.6l-0.2,0.2c-0.4,0.4-0.6,0.7-0.7,1h1.5v0.4H20z"/>
		<path d="M21.1,46.3c-0.4,0-0.7-0.2-0.9-0.5c-0.2-0.3-0.3-0.8-0.3-1.4s0.1-1.1,0.3-1.4c0.2-0.3,0.5-0.5,0.9-0.5
			c0.4,0,0.7,0.2,0.9,0.5c0.2,0.3,0.3,0.8,0.3,1.4s-0.1,1.1-0.3,1.4C21.8,46.1,21.5,46.3,21.1,46.3z M21.1,45.9
			c0.5,0,0.7-0.5,0.7-1.6c0-1-0.2-1.6-0.7-1.6c-0.5,0-0.7,0.5-0.7,1.6C20.4,45.4,20.6,45.9,21.1,45.9z"/>
	</g>
</g>
</svg>
