<?xml version="1.0" encoding="UTF-8"?>
<svg xmlns="http://www.w3.org/2000/svg" xmlns:xlink="http://www.w3.org/1999/xlink" width="301pt" height="119pt" viewBox="0 0 301 119" version="1.1">
<g id="surface10">
<path style=" stroke:none;fill-rule:nonzero;fill:rgb(29.803922%,26.666667%,51.764706%);fill-opacity:1;" d="M 0 117.207031 L 0 1.792969 L 301 1.792969 L 301 117.207031 Z M 1.503906 3.296875 L 1.503906 115.703125 L 299.496094 115.703125 L 299.496094 3.296875 Z M 1.503906 3.296875 "/>
<path style=" stroke:none;fill-rule:nonzero;fill:rgb(29.803922%,26.666667%,51.764706%);fill-opacity:1;" d="M 20.136719 76.632812 L 280.875 76.632812 L 280.875 77.222656 L 20.136719 77.222656 Z M 20.136719 76.632812 "/>
<path style=" stroke:none;fill-rule:nonzero;fill:rgb(29.803922%,26.666667%,51.764706%);fill-opacity:1;" d="M 112.171875 94.941406 C 112.171875 93.707031 112.460938 92.75 113.019531 92.046875 C 113.578125 91.359375 114.351562 91 115.355469 91 C 116.34375 91 117.132812 91.34375 117.691406 92.046875 C 118.25 92.734375 118.535156 93.707031 118.535156 94.941406 C 118.535156 96.175781 118.25 97.136719 117.691406 97.824219 C 117.132812 98.527344 116.34375 98.871094 115.355469 98.871094 C 114.367188 98.871094 113.589844 98.527344 113.03125 97.824219 C 112.445312 97.136719 112.171875 96.175781 112.171875 94.941406 Z M 113.632812 94.941406 C 113.632812 95.800781 113.777344 96.460938 114.066406 96.90625 C 114.351562 97.351562 114.78125 97.578125 115.339844 97.578125 C 115.898438 97.578125 116.328125 97.351562 116.617188 96.90625 C 116.902344 96.460938 117.046875 95.800781 117.046875 94.941406 C 117.046875 94.066406 116.902344 93.40625 116.617188 92.949219 C 116.328125 92.492188 115.898438 92.273438 115.339844 92.273438 C 114.78125 92.273438 114.351562 92.503906 114.066406 92.949219 C 113.777344 93.40625 113.632812 94.066406 113.632812 94.941406 Z M 113.632812 94.941406 "/>
<path style=" stroke:none;fill-rule:nonzero;fill:rgb(29.803922%,26.666667%,51.764706%);fill-opacity:1;" d="M 119.453125 98.753906 L 119.453125 91.113281 L 120.988281 91.113281 L 123.179688 94.957031 C 123.351562 95.257812 123.511719 95.558594 123.652344 95.859375 C 123.796875 96.160156 123.925781 96.476562 124.054688 96.777344 C 124.011719 96.546875 123.984375 96.304688 123.96875 96.046875 C 123.953125 95.789062 123.941406 95.515625 123.941406 95.214844 L 123.941406 91.097656 L 125.273438 91.097656 L 125.273438 98.742188 L 123.941406 98.742188 L 121.546875 94.796875 C 121.417969 94.570312 121.273438 94.3125 121.132812 93.996094 C 120.988281 93.679688 120.828125 93.335938 120.6875 92.964844 C 120.714844 93.179688 120.742188 93.40625 120.757812 93.652344 C 120.773438 93.894531 120.785156 94.195312 120.785156 94.527344 L 120.785156 98.753906 Z M 119.453125 98.753906 "/>
<path style=" stroke:none;fill-rule:nonzero;fill:rgb(29.803922%,26.666667%,51.764706%);fill-opacity:1;" d="M 129.515625 98.753906 L 129.515625 91.113281 L 132.28125 91.113281 C 133.113281 91.113281 133.757812 91.285156 134.1875 91.628906 C 134.632812 91.972656 134.847656 92.476562 134.847656 93.136719 C 134.847656 93.507812 134.761719 93.824219 134.574219 94.082031 C 134.390625 94.339844 134.117188 94.570312 133.730469 94.753906 C 134.160156 94.898438 134.488281 95.128906 134.703125 95.445312 C 134.917969 95.757812 135.035156 96.144531 135.035156 96.621094 C 135.035156 97.335938 134.804688 97.882812 134.332031 98.238281 C 133.875 98.597656 133.15625 98.769531 132.210938 98.769531 L 129.515625 98.769531 Z M 130.921875 94.167969 L 132.097656 94.167969 C 132.539062 94.167969 132.882812 94.097656 133.097656 93.9375 C 133.328125 93.78125 133.429688 93.550781 133.429688 93.234375 C 133.429688 92.90625 133.3125 92.664062 133.097656 92.519531 C 132.871094 92.375 132.511719 92.289062 132.011719 92.289062 L 130.921875 92.289062 Z M 130.921875 97.578125 L 132.097656 97.578125 C 132.613281 97.578125 133 97.492188 133.226562 97.308594 C 133.472656 97.121094 133.585938 96.835938 133.585938 96.433594 C 133.585938 96.058594 133.472656 95.789062 133.226562 95.601562 C 132.984375 95.414062 132.640625 95.328125 132.152344 95.328125 L 130.90625 95.328125 L 130.90625 97.578125 Z M 130.921875 97.578125 "/>
<path style=" stroke:none;fill-rule:nonzero;fill:rgb(29.803922%,26.666667%,51.764706%);fill-opacity:1;" d="M 136.253906 98.753906 L 136.253906 91.113281 L 141.210938 91.113281 L 141.210938 92.359375 L 137.6875 92.359375 L 137.6875 94.167969 L 140.25 94.167969 L 140.25 95.386719 L 137.6875 95.386719 L 137.6875 97.449219 L 141.371094 97.449219 L 141.371094 98.753906 Z M 136.253906 98.753906 "/>
<path style=" stroke:none;fill-rule:nonzero;fill:rgb(29.803922%,26.666667%,51.764706%);fill-opacity:1;" d="M 142.257812 98.753906 L 142.257812 91.113281 L 143.691406 91.113281 L 143.691406 94.140625 L 146.617188 94.140625 L 146.617188 91.113281 L 148.050781 91.113281 L 148.050781 98.753906 L 146.617188 98.753906 L 146.617188 95.429688 L 143.691406 95.429688 L 143.691406 98.753906 Z M 142.257812 98.753906 "/>
<path style=" stroke:none;fill-rule:nonzero;fill:rgb(29.803922%,26.666667%,51.764706%);fill-opacity:1;" d="M 148.652344 98.753906 L 150.957031 91.113281 L 152.75 91.113281 L 155.058594 98.753906 L 153.625 98.753906 L 153.152344 97.078125 L 150.5 97.078125 L 150.011719 98.753906 Z M 150.84375 95.859375 L 152.792969 95.859375 L 151.820312 92.433594 Z M 150.84375 95.859375 "/>
<path style=" stroke:none;fill-rule:nonzero;fill:rgb(29.803922%,26.666667%,51.764706%);fill-opacity:1;" d="M 155.644531 98.753906 L 155.644531 91.113281 L 157.109375 91.113281 L 157.109375 97.449219 L 160.332031 97.449219 L 160.332031 98.753906 Z M 155.644531 98.753906 "/>
<path style=" stroke:none;fill-rule:nonzero;fill:rgb(29.803922%,26.666667%,51.764706%);fill-opacity:1;" d="M 161.105469 98.753906 L 161.105469 91.113281 L 165.9375 91.113281 L 165.9375 92.359375 L 162.570312 92.359375 L 162.570312 94.152344 L 165.121094 94.152344 L 165.121094 95.402344 L 162.570312 95.402344 L 162.570312 98.769531 L 161.105469 98.769531 Z M 161.105469 98.753906 "/>
<path style=" stroke:none;fill-rule:nonzero;fill:rgb(29.803922%,26.666667%,51.764706%);fill-opacity:1;" d="M 169.191406 94.941406 C 169.191406 93.707031 169.476562 92.75 170.035156 92.046875 C 170.59375 91.359375 171.371094 91 172.371094 91 C 173.363281 91 174.148438 91.34375 174.710938 92.046875 C 175.269531 92.734375 175.554688 93.707031 175.554688 94.941406 C 175.554688 96.175781 175.269531 97.136719 174.710938 97.824219 C 174.148438 98.527344 173.363281 98.871094 172.371094 98.871094 C 171.382812 98.871094 170.609375 98.527344 170.050781 97.824219 C 169.476562 97.136719 169.191406 96.175781 169.191406 94.941406 Z M 170.652344 94.941406 C 170.652344 95.800781 170.796875 96.460938 171.082031 96.90625 C 171.371094 97.351562 171.800781 97.578125 172.359375 97.578125 C 172.917969 97.578125 173.347656 97.351562 173.632812 96.90625 C 173.921875 96.460938 174.0625 95.800781 174.0625 94.941406 C 174.0625 94.066406 173.921875 93.40625 173.632812 92.949219 C 173.347656 92.492188 172.917969 92.273438 172.359375 92.273438 C 171.800781 92.273438 171.371094 92.503906 171.082031 92.949219 C 170.796875 93.40625 170.652344 94.066406 170.652344 94.941406 Z M 170.652344 94.941406 "/>
<path style=" stroke:none;fill-rule:nonzero;fill:rgb(29.803922%,26.666667%,51.764706%);fill-opacity:1;" d="M 176.488281 98.753906 L 176.488281 91.113281 L 181.316406 91.113281 L 181.316406 92.359375 L 177.949219 92.359375 L 177.949219 94.152344 L 180.5 94.152344 L 180.5 95.402344 L 177.949219 95.402344 L 177.949219 98.769531 L 176.488281 98.769531 Z M 176.488281 98.753906 "/>
<path style=" stroke:none;fill-rule:evenodd;fill:rgb(42.352941%,13.333333%,23.921569%);fill-opacity:1;" d="M 199.03125 101.105469 C 201.597656 102.082031 204.378906 101.09375 205.925781 99.1875 C 204.636719 100.503906 202.53125 101.191406 200.609375 100.433594 C 197.726562 99.273438 196.726562 96.949219 197.542969 94.382812 C 198.359375 91.832031 200.867188 90.269531 203.578125 91.140625 C 205.539062 91.773438 206.902344 93.40625 207.1875 95.242188 C 207.03125 92.792969 205.296875 90.511719 202.6875 89.679688 C 199.347656 88.605469 195.765625 90.3125 194.761719 93.449219 C 193.757812 96.589844 195.75 99.859375 199.03125 101.105469 "/>
<path style=" stroke:none;fill-rule:evenodd;fill:rgb(77.647059%,11.764706%,14.117647%);fill-opacity:1;" d="M 204.9375 94.769531 C 205.136719 97.652344 202.945312 100.144531 200.066406 100.347656 C 197.988281 100.492188 196.023438 99.257812 195.0625 97.535156 C 196.136719 99.929688 198.703125 101.652344 201.453125 101.464844 C 204.996094 101.222656 207.691406 98.140625 207.445312 94.597656 C 207.21875 91.054688 204.738281 91.902344 204.9375 94.769531 "/>
<path style=" stroke:none;fill-rule:evenodd;fill:rgb(42.352941%,13.333333%,23.921569%);fill-opacity:1;" d="M 198.746094 103.601562 C 202.402344 103.445312 205.441406 100.976562 206.5 97.679688 C 205.496094 100.074219 203.175781 101.808594 200.410156 101.925781 C 196.597656 102.097656 193.355469 99.113281 193.183594 95.316406 C 193.011719 91.5 195.992188 88.261719 199.808594 88.089844 C 202.574219 87.972656 205.023438 89.492188 206.242188 91.789062 C 204.894531 88.589844 201.65625 86.398438 198 86.570312 C 193.3125 86.769531 189.644531 90.769531 189.859375 95.457031 C 190.058594 100.144531 194.042969 103.800781 198.746094 103.601562 "/>
<path style=" stroke:none;fill-rule:evenodd;fill:rgb(55.294118%,34.117647%,38.823529%);fill-opacity:1;" d="M 208.105469 94.023438 C 208.035156 92.445312 207.503906 91.359375 206.972656 90.339844 C 206.714844 90.699219 206.484375 91.027344 206.269531 91.316406 C 205.007812 89.550781 202.886719 88.445312 200.582031 88.605469 C 197.8125 88.792969 195.578125 90.710938 194.832031 93.222656 C 195.550781 91.386719 197.269531 90.039062 199.363281 89.894531 C 205.570312 89.894531 205.007812 95.6875 203.417969 98.183594 C 202.070312 100.40625 199.820312 102.054688 197.339844 102.167969 C 194.34375 102.296875 191.722656 100.648438 190.402344 98.097656 C 191.765625 101.59375 195.335938 104.03125 199.289062 103.859375 C 204.378906 103.644531 208.335938 99.230469 208.105469 94.023438 "/>
<path style=" stroke:none;fill-rule:evenodd;fill:rgb(77.647059%,11.764706%,14.117647%);fill-opacity:1;" d="M 208.449219 97.421875 C 208.535156 96.804688 208.621094 96.144531 208.648438 95.457031 C 208.648438 90.238281 204.421875 86.007812 199.203125 86.007812 C 194.675781 86.007812 190.847656 89.191406 189.988281 93.449219 C 191.0625 90.125 193.929688 87.746094 197.328125 87.746094 C 201.640625 87.746094 205.125 91.585938 205.125 96.316406 C 205.125 97.234375 204.609375 104.132812 210.929688 103.488281 C 210.527344 103.371094 207.519531 103.386719 208.449219 97.421875 "/>
<path style=" stroke:none;fill-rule:nonzero;fill:rgb(42.352941%,13.333333%,23.921569%);fill-opacity:1;" d="M 230.035156 90.855469 L 229.234375 89.222656 L 226.78125 92.71875 L 224.359375 89.222656 L 222.339844 89.222656 L 225.75 94.023438 L 223.355469 97.363281 L 224.171875 98.984375 L 226.753906 95.285156 L 229.320312 98.984375 L 231.339844 98.984375 L 227.800781 93.996094 Z M 230.035156 90.855469 "/>
<path style=" stroke:none;fill-rule:nonzero;fill:rgb(42.352941%,13.333333%,23.921569%);fill-opacity:1;" d="M 218.453125 89.222656 L 216.804688 89.222656 L 211.773438 99 L 213.507812 99 L 214.726562 96.5625 L 220.503906 96.5625 L 221.707031 99 L 223.457031 99 Z M 219.800781 95.144531 L 215.457031 95.144531 L 217.621094 90.796875 Z M 219.800781 95.144531 "/>
<path style=" stroke:none;fill-rule:nonzero;fill:rgb(42.352941%,13.333333%,23.921569%);fill-opacity:1;" d="M 233.417969 97.566406 L 233.417969 94.625 L 239.4375 94.625 L 239.4375 93.207031 L 233.417969 93.207031 L 233.417969 90.640625 L 240.628906 90.640625 L 240.628906 89.222656 L 231.871094 89.222656 L 231.871094 98.984375 L 240.785156 98.984375 L 240.785156 97.566406 Z M 233.417969 97.566406 "/>
<path style=" stroke:none;fill-rule:nonzero;fill:rgb(42.352941%,13.333333%,23.921569%);fill-opacity:1;" d="M 242.878906 97.566406 L 242.878906 89.222656 L 241.332031 89.222656 L 241.332031 98.984375 L 250.261719 98.984375 L 250.261719 97.566406 Z M 242.878906 97.566406 "/>
<path style=" stroke:none;fill-rule:nonzero;fill:rgb(42.352941%,13.333333%,23.921569%);fill-opacity:1;" d="M 255.234375 88.992188 C 251.835938 88.992188 249.542969 91.070312 249.542969 94.167969 C 249.542969 97.636719 252.496094 99.230469 255.234375 99.230469 C 257.972656 99.230469 260.925781 97.652344 260.925781 94.167969 C 260.925781 91.070312 258.628906 88.992188 255.234375 88.992188 M 255.234375 97.796875 C 252.652344 97.796875 251.121094 96.359375 251.121094 93.953125 C 251.121094 91.832031 252.8125 90.355469 255.234375 90.355469 C 257.65625 90.355469 259.347656 91.832031 259.347656 93.953125 C 259.347656 96.792969 257.226562 97.796875 255.234375 97.796875 "/>
<path style=" stroke:none;fill-rule:nonzero;fill:rgb(42.352941%,13.333333%,23.921569%);fill-opacity:1;" d="M 266.027344 93.207031 C 263.976562 93.019531 262.730469 92.835938 262.730469 91.816406 C 262.730469 90.539062 264.609375 90.355469 265.726562 90.355469 C 268.046875 90.355469 268.921875 91.359375 269.335938 91.84375 L 269.539062 92.074219 L 270.671875 91.15625 L 270.554688 91 C 270.210938 90.527344 268.878906 88.992188 265.753906 88.992188 C 262.789062 88.992188 261.152344 90.066406 261.152344 92.003906 C 261.152344 94.226562 263.648438 94.46875 265.855469 94.683594 C 267.632812 94.855469 269.308594 95.011719 269.308594 96.144531 C 269.308594 97.363281 267.589844 97.796875 266.113281 97.796875 C 263.402344 97.796875 262.542969 96.664062 262.042969 95.972656 L 261.914062 95.800781 L 260.867188 96.691406 L 260.710938 96.835938 L 260.851562 96.992188 C 261.640625 97.882812 262.84375 99.214844 265.984375 99.214844 C 269.59375 99.214844 270.886719 97.4375 270.886719 95.945312 C 270.898438 93.464844 268.304688 93.40625 266.027344 93.207031 "/>
<path style=" stroke:none;fill-rule:nonzero;fill:rgb(0%,0%,0%);fill-opacity:1;" d="M 39.503906 91.070312 C 39.503906 91.488281 39.417969 91.917969 39.246094 92.347656 C 39.074219 92.777344 38.828125 93.164062 38.511719 93.507812 C 38.199219 93.851562 37.796875 94.125 37.324219 94.339844 C 36.851562 94.554688 36.320312 94.667969 35.71875 94.667969 L 32.550781 94.667969 L 32.550781 99.574219 L 31.003906 99.574219 L 31.003906 87.386719 L 35.476562 87.386719 C 35.976562 87.386719 36.464844 87.457031 36.953125 87.601562 C 37.4375 87.746094 37.867188 87.960938 38.242188 88.261719 C 38.613281 88.5625 38.914062 88.933594 39.160156 89.40625 C 39.375 89.867188 39.503906 90.425781 39.503906 91.070312 Z M 37.882812 91.027344 C 37.882812 90.28125 37.652344 89.722656 37.210938 89.351562 C 36.765625 88.976562 36.191406 88.804688 35.503906 88.804688 L 32.550781 88.804688 L 32.550781 93.25 L 35.574219 93.25 C 35.960938 93.25 36.292969 93.179688 36.59375 93.050781 C 36.878906 92.921875 37.125 92.75 37.324219 92.535156 C 37.511719 92.316406 37.652344 92.089844 37.753906 91.832031 C 37.839844 91.558594 37.882812 91.285156 37.882812 91.027344 Z M 37.882812 91.027344 "/>
<path style=" stroke:none;fill-rule:nonzero;fill:rgb(0%,0%,0%);fill-opacity:1;" d="M 41.4375 95.714844 L 41.4375 95.859375 C 41.4375 96.203125 41.480469 96.519531 41.582031 96.835938 C 41.667969 97.136719 41.808594 97.40625 41.996094 97.636719 C 42.183594 97.867188 42.414062 98.039062 42.699219 98.167969 C 42.984375 98.296875 43.300781 98.367188 43.671875 98.367188 C 43.960938 98.367188 44.277344 98.296875 44.648438 98.152344 C 45.019531 98.011719 45.351562 97.808594 45.636719 97.535156 L 46.570312 98.570312 C 46.152344 98.957031 45.695312 99.242188 45.179688 99.414062 C 44.664062 99.585938 44.148438 99.671875 43.601562 99.671875 C 43.15625 99.671875 42.714844 99.617188 42.285156 99.488281 C 41.839844 99.359375 41.453125 99.144531 41.109375 98.8125 C 40.765625 98.484375 40.476562 98.039062 40.261719 97.464844 C 40.046875 96.890625 39.933594 96.160156 39.933594 95.257812 C 39.933594 94.410156 40.046875 93.695312 40.261719 93.105469 C 40.476562 92.535156 40.765625 92.074219 41.121094 91.730469 C 41.464844 91.386719 41.867188 91.140625 42.296875 91 C 42.726562 90.855469 43.144531 90.785156 43.558594 90.785156 C 44.03125 90.785156 44.492188 90.871094 44.90625 91.042969 C 45.320312 91.214844 45.695312 91.457031 46.011719 91.789062 C 46.324219 92.117188 46.570312 92.519531 46.753906 92.992188 C 46.941406 93.464844 47.027344 94.011719 47.027344 94.613281 L 47.027344 95.730469 L 41.4375 95.730469 Z M 43.488281 92.144531 C 42.886719 92.144531 42.414062 92.347656 42.054688 92.761719 C 41.695312 93.179688 41.496094 93.75 41.4375 94.511719 L 45.523438 94.511719 C 45.492188 93.722656 45.292969 93.136719 44.921875 92.75 C 44.5625 92.347656 44.089844 92.144531 43.488281 92.144531 Z M 43.488281 92.144531 "/>
<path style=" stroke:none;fill-rule:nonzero;fill:rgb(0%,0%,0%);fill-opacity:1;" d="M 51.828125 90.8125 C 52.460938 90.8125 53.019531 90.941406 53.507812 91.183594 C 53.992188 91.445312 54.394531 91.800781 54.695312 92.261719 C 54.898438 92.578125 55.039062 92.964844 55.140625 93.40625 C 55.242188 93.851562 55.285156 94.367188 55.285156 94.925781 C 55.285156 95.671875 55.242188 96.304688 55.15625 96.804688 C 55.070312 97.308594 54.941406 97.738281 54.738281 98.082031 C 54.4375 98.597656 54.007812 98.984375 53.476562 99.257812 C 52.933594 99.53125 52.316406 99.671875 51.628906 99.671875 C 50.996094 99.671875 50.4375 99.558594 49.953125 99.34375 C 49.464844 99.128906 49.0625 98.796875 48.761719 98.355469 C 48.53125 97.996094 48.359375 97.566406 48.261719 97.0625 C 48.160156 96.5625 48.117188 95.960938 48.117188 95.257812 C 48.117188 94.769531 48.144531 94.3125 48.21875 93.894531 C 48.273438 93.480469 48.390625 93.105469 48.5625 92.761719 C 48.847656 92.132812 49.277344 91.644531 49.851562 91.316406 C 50.410156 90.984375 51.070312 90.8125 51.828125 90.8125 Z M 51.785156 92.132812 C 51.355469 92.132812 50.96875 92.246094 50.640625 92.460938 C 50.308594 92.675781 50.050781 92.976562 49.878906 93.363281 C 49.75 93.636719 49.664062 93.925781 49.636719 94.253906 C 49.609375 94.570312 49.578125 94.925781 49.566406 95.316406 C 49.566406 95.703125 49.578125 96.046875 49.609375 96.347656 C 49.636719 96.664062 49.707031 96.933594 49.824219 97.191406 C 49.980469 97.566406 50.222656 97.851562 50.539062 98.066406 C 50.855469 98.28125 51.226562 98.382812 51.65625 98.382812 C 52.128906 98.382812 52.546875 98.253906 52.90625 98.011719 C 53.277344 97.765625 53.535156 97.378906 53.707031 96.835938 C 53.765625 96.621094 53.808594 96.390625 53.820312 96.101562 C 53.835938 95.832031 53.851562 95.457031 53.851562 95 C 53.851562 94.65625 53.835938 94.367188 53.808594 94.097656 C 53.777344 93.839844 53.722656 93.59375 53.621094 93.394531 C 53.464844 92.964844 53.207031 92.648438 52.890625 92.445312 C 52.558594 92.230469 52.203125 92.132812 51.785156 92.132812 Z M 51.785156 92.132812 "/>
<path style=" stroke:none;fill-rule:nonzero;fill:rgb(0%,0%,0%);fill-opacity:1;" d="M 57.949219 90.882812 L 57.949219 91.84375 L 58.007812 91.859375 C 58.351562 91.472656 58.722656 91.199219 59.125 91.042969 C 59.527344 90.882812 59.941406 90.796875 60.371094 90.796875 C 60.988281 90.796875 61.503906 90.925781 61.90625 91.171875 C 62.308594 91.429688 62.621094 91.757812 62.867188 92.175781 C 63.09375 92.589844 63.253906 93.050781 63.351562 93.578125 C 63.4375 94.097656 63.480469 94.625 63.480469 95.171875 C 63.480469 95.730469 63.4375 96.289062 63.339844 96.820312 C 63.238281 97.363281 63.066406 97.839844 62.808594 98.269531 C 62.550781 98.683594 62.207031 99.027344 61.761719 99.285156 C 61.316406 99.542969 60.773438 99.671875 60.085938 99.671875 C 59.65625 99.671875 59.253906 99.601562 58.910156 99.472656 C 58.550781 99.328125 58.25 99.113281 57.992188 98.8125 L 57.964844 98.8125 L 57.964844 103.042969 L 56.53125 103.042969 L 56.53125 90.898438 L 57.949219 90.898438 Z M 57.949219 95.257812 C 57.949219 95.585938 57.964844 95.929688 58.007812 96.289062 C 58.050781 96.648438 58.136719 96.976562 58.265625 97.265625 C 58.394531 97.550781 58.59375 97.796875 58.851562 97.980469 C 59.109375 98.167969 59.453125 98.269531 59.898438 98.269531 C 60.359375 98.269531 60.714844 98.183594 60.988281 97.996094 C 61.261719 97.808594 61.460938 97.578125 61.605469 97.292969 C 61.746094 97.007812 61.835938 96.691406 61.890625 96.332031 C 61.933594 95.972656 61.964844 95.617188 61.964844 95.273438 C 61.964844 94.925781 61.949219 94.582031 61.90625 94.226562 C 61.878906 93.867188 61.789062 93.535156 61.660156 93.234375 C 61.53125 92.933594 61.332031 92.691406 61.074219 92.503906 C 60.816406 92.316406 60.457031 92.21875 60 92.21875 C 59.554688 92.21875 59.195312 92.316406 58.925781 92.519531 C 58.652344 92.71875 58.453125 92.964844 58.308594 93.265625 C 58.164062 93.566406 58.0625 93.894531 58.019531 94.253906 C 57.976562 94.597656 57.949219 94.925781 57.949219 95.257812 Z M 57.949219 95.257812 "/>
<path style=" stroke:none;fill-rule:nonzero;fill:rgb(0%,0%,0%);fill-opacity:1;" d="M 66.894531 99.574219 C 66.261719 99.574219 65.746094 99.429688 65.359375 99.128906 C 64.957031 98.828125 64.757812 98.3125 64.757812 97.566406 L 64.757812 86.871094 L 66.191406 86.871094 L 66.191406 97.449219 C 66.191406 97.996094 66.492188 98.269531 67.078125 98.269531 L 67.496094 98.269531 L 67.496094 99.585938 L 66.894531 99.585938 Z M 66.894531 99.574219 "/>
<path style=" stroke:none;fill-rule:nonzero;fill:rgb(0%,0%,0%);fill-opacity:1;" d="M 69.574219 95.714844 L 69.574219 95.859375 C 69.574219 96.203125 69.617188 96.519531 69.71875 96.835938 C 69.804688 97.136719 69.945312 97.40625 70.132812 97.636719 C 70.320312 97.867188 70.546875 98.039062 70.835938 98.167969 C 71.121094 98.296875 71.4375 98.367188 71.808594 98.367188 C 72.097656 98.367188 72.410156 98.296875 72.785156 98.152344 C 73.15625 98.011719 73.488281 97.808594 73.773438 97.535156 L 74.707031 98.570312 C 74.289062 98.957031 73.832031 99.242188 73.316406 99.414062 C 72.800781 99.585938 72.28125 99.671875 71.738281 99.671875 C 71.292969 99.671875 70.851562 99.617188 70.417969 99.488281 C 69.976562 99.359375 69.589844 99.144531 69.246094 98.8125 C 68.898438 98.484375 68.613281 98.039062 68.398438 97.464844 C 68.183594 96.890625 68.070312 96.160156 68.070312 95.257812 C 68.070312 94.410156 68.183594 93.695312 68.398438 93.105469 C 68.613281 92.535156 68.898438 92.074219 69.257812 91.730469 C 69.601562 91.386719 70.003906 91.140625 70.433594 91 C 70.863281 90.855469 71.28125 90.785156 71.695312 90.785156 C 72.167969 90.785156 72.628906 90.871094 73.042969 91.042969 C 73.457031 91.214844 73.832031 91.457031 74.144531 91.789062 C 74.460938 92.117188 74.707031 92.519531 74.890625 92.992188 C 75.078125 93.464844 75.164062 94.011719 75.164062 94.613281 L 75.164062 95.730469 L 69.574219 95.730469 Z M 71.625 92.144531 C 71.023438 92.144531 70.546875 92.347656 70.191406 92.761719 C 69.832031 93.179688 69.632812 93.75 69.574219 94.511719 L 73.660156 94.511719 C 73.628906 93.722656 73.429688 93.136719 73.058594 92.75 C 72.699219 92.347656 72.226562 92.144531 71.625 92.144531 Z M 71.625 92.144531 "/>
<path style=" stroke:none;fill-rule:nonzero;fill:rgb(94.117647%,29.019608%,17.254902%);fill-opacity:1;" d="M 85.066406 97.078125 C 84.765625 97.894531 84.265625 98.527344 83.578125 98.984375 C 82.890625 99.445312 82.042969 99.671875 81.054688 99.671875 C 80.324219 99.671875 79.691406 99.542969 79.148438 99.300781 C 78.605469 99.058594 78.144531 98.726562 77.785156 98.324219 C 77.414062 97.925781 77.15625 97.4375 76.96875 96.890625 C 76.796875 96.347656 76.699219 95.757812 76.699219 95.15625 L 76.699219 91.800781 C 76.699219 91.199219 76.785156 90.640625 76.96875 90.097656 C 77.140625 89.550781 77.414062 89.078125 77.785156 88.664062 C 78.144531 88.246094 78.605469 87.917969 79.148438 87.671875 C 79.691406 87.429688 80.324219 87.300781 81.054688 87.300781 C 82.042969 87.300781 82.875 87.53125 83.5625 88.003906 C 84.238281 88.476562 84.738281 89.09375 85.054688 89.878906 L 83.621094 90.527344 C 83.421875 89.996094 83.105469 89.578125 82.675781 89.265625 C 82.246094 88.949219 81.714844 88.792969 81.082031 88.792969 C 80.609375 88.792969 80.195312 88.878906 79.835938 89.050781 C 79.492188 89.222656 79.191406 89.449219 78.960938 89.738281 C 78.734375 90.023438 78.546875 90.355469 78.433594 90.726562 C 78.316406 91.097656 78.261719 91.488281 78.261719 91.859375 L 78.261719 95.027344 C 78.261719 95.429688 78.316406 95.832031 78.433594 96.203125 C 78.546875 96.578125 78.71875 96.921875 78.960938 97.207031 C 79.191406 97.492188 79.492188 97.738281 79.835938 97.910156 C 80.179688 98.097656 80.597656 98.183594 81.082031 98.183594 C 81.714844 98.183594 82.246094 98.011719 82.6875 97.679688 C 83.132812 97.351562 83.449219 96.90625 83.648438 96.359375 Z M 85.066406 97.078125 "/>
<path style=" stroke:none;fill-rule:nonzero;fill:rgb(94.117647%,29.019608%,17.254902%);fill-opacity:1;" d="M 87.0625 95.714844 L 87.0625 95.859375 C 87.0625 96.203125 87.105469 96.519531 87.203125 96.835938 C 87.289062 97.136719 87.433594 97.40625 87.621094 97.636719 C 87.804688 97.867188 88.035156 98.039062 88.320312 98.167969 C 88.609375 98.296875 88.925781 98.367188 89.296875 98.367188 C 89.582031 98.367188 89.898438 98.296875 90.269531 98.152344 C 90.644531 98.011719 90.972656 97.808594 91.261719 97.535156 L 92.191406 98.570312 C 91.777344 98.957031 91.316406 99.242188 90.800781 99.414062 C 90.285156 99.585938 89.769531 99.671875 89.226562 99.671875 C 88.78125 99.671875 88.335938 99.617188 87.90625 99.488281 C 87.460938 99.359375 87.074219 99.144531 86.730469 98.8125 C 86.386719 98.484375 86.101562 98.039062 85.886719 97.464844 C 85.671875 96.890625 85.554688 96.160156 85.554688 95.257812 C 85.554688 94.410156 85.671875 93.695312 85.886719 93.105469 C 86.101562 92.535156 86.386719 92.074219 86.746094 91.730469 C 87.089844 91.386719 87.492188 91.140625 87.921875 91 C 88.351562 90.855469 88.765625 90.785156 89.183594 90.785156 C 89.65625 90.785156 90.113281 90.871094 90.53125 91.042969 C 90.945312 91.214844 91.316406 91.457031 91.632812 91.789062 C 91.949219 92.117188 92.191406 92.519531 92.378906 92.992188 C 92.566406 93.464844 92.652344 94.011719 92.652344 94.613281 L 92.652344 95.730469 L 87.0625 95.730469 Z M 89.109375 92.144531 C 88.507812 92.144531 88.035156 92.347656 87.675781 92.761719 C 87.320312 93.179688 87.117188 93.75 87.0625 94.511719 L 91.144531 94.511719 C 91.117188 93.722656 90.917969 93.136719 90.542969 92.75 C 90.183594 92.347656 89.710938 92.144531 89.109375 92.144531 Z M 89.109375 92.144531 "/>
<path style=" stroke:none;fill-rule:nonzero;fill:rgb(94.117647%,29.019608%,17.254902%);fill-opacity:1;" d="M 98.425781 92.546875 C 98.082031 92.332031 97.683594 92.21875 97.195312 92.21875 C 96.621094 92.21875 96.148438 92.390625 95.773438 92.75 C 95.402344 93.09375 95.214844 93.621094 95.214844 94.324219 L 95.214844 99.574219 L 93.78125 99.574219 L 93.78125 90.882812 L 95.214844 90.882812 L 95.214844 91.988281 L 95.289062 91.988281 C 95.589844 91.542969 95.933594 91.230469 96.304688 91.054688 C 96.679688 90.882812 97.09375 90.796875 97.566406 90.796875 C 97.867188 90.796875 98.15625 90.828125 98.414062 90.898438 C 98.671875 90.957031 98.886719 91.054688 99.042969 91.171875 Z M 98.425781 92.546875 "/>
<path style=" stroke:none;fill-rule:nonzero;fill:rgb(94.117647%,29.019608%,17.254902%);fill-opacity:1;" d="M 102.65625 99.574219 C 102.054688 99.574219 101.582031 99.402344 101.207031 99.058594 C 100.835938 98.710938 100.648438 98.210938 100.648438 97.535156 L 100.648438 92.132812 L 99.617188 92.132812 L 99.617188 90.882812 L 100.648438 90.882812 L 100.648438 88.734375 L 102.082031 88.734375 L 102.082031 90.882812 L 103.414062 90.882812 L 103.414062 92.132812 L 102.082031 92.132812 L 102.082031 97.179688 C 102.082031 97.449219 102.140625 97.695312 102.238281 97.925781 C 102.339844 98.152344 102.582031 98.269531 102.941406 98.269531 L 103.703125 98.269531 L 103.703125 99.585938 L 102.65625 99.585938 Z M 102.65625 99.574219 "/>
<path style=" stroke:none;fill-rule:evenodd;fill:rgb(7.45098%,5.490196%,24.313725%);fill-opacity:1;" d="M 64.097656 47.039062 C 69.703125 49.164062 75.78125 47.011719 79.191406 42.839844 C 76.355469 45.734375 71.753906 47.242188 67.566406 45.5625 C 61.261719 43.027344 59.054688 37.9375 60.84375 32.332031 C 62.636719 26.738281 68.125 23.339844 74.058594 25.234375 C 78.359375 26.609375 81.328125 30.195312 81.957031 34.195312 C 81.613281 28.816406 77.816406 23.84375 72.109375 22.007812 C 64.785156 19.671875 56.960938 23.382812 54.769531 30.265625 C 52.546875 37.175781 56.933594 44.316406 64.097656 47.039062 "/>
<path style=" stroke:none;fill-rule:evenodd;fill:rgb(29.803922%,26.666667%,51.764706%);fill-opacity:1;" d="M 77.011719 33.191406 C 77.441406 39.484375 72.65625 44.960938 66.363281 45.390625 C 61.804688 45.707031 57.503906 43.011719 55.414062 39.253906 C 57.761719 44.488281 63.367188 48.246094 69.417969 47.84375 C 77.171875 47.3125 83.0625 40.558594 82.53125 32.816406 C 82 25.0625 76.582031 26.898438 77.011719 33.191406 "/>
<path style=" stroke:none;fill-rule:evenodd;fill:rgb(7.45098%,5.490196%,24.313725%);fill-opacity:1;" d="M 63.46875 52.503906 C 71.480469 52.144531 78.101562 46.753906 80.425781 39.527344 C 78.21875 44.761719 73.144531 48.5625 67.109375 48.832031 C 58.765625 49.207031 51.671875 42.695312 51.300781 34.367188 C 50.925781 26.035156 57.433594 18.941406 65.777344 18.566406 C 71.808594 18.308594 77.199219 21.636719 79.851562 26.667969 C 76.914062 19.671875 69.832031 14.882812 61.820312 15.226562 C 51.558594 15.671875 43.542969 24.417969 44.003906 34.683594 C 44.460938 44.949219 53.207031 52.949219 63.46875 52.503906 "/>
<path style=" stroke:none;fill-rule:evenodd;fill:rgb(61.960784%,58.431373%,72.54902%);fill-opacity:1;" d="M 83.964844 31.554688 C 83.808594 28.101562 82.644531 25.734375 81.5 23.511719 C 80.941406 24.316406 80.425781 25.019531 79.953125 25.636719 C 77.199219 21.765625 72.554688 19.371094 67.496094 19.714844 C 61.445312 20.128906 56.53125 24.332031 54.910156 29.820312 C 56.488281 25.820312 60.242188 22.855469 64.800781 22.550781 C 78.375 22.550781 77.171875 35.210938 73.6875 40.703125 C 70.71875 45.550781 65.820312 49.175781 60.386719 49.40625 C 53.835938 49.691406 48.101562 46.082031 45.222656 40.515625 C 48.203125 48.1875 56 53.492188 64.671875 53.105469 C 75.792969 52.605469 84.464844 42.925781 83.964844 31.554688 "/>
<path style=" stroke:none;fill-rule:evenodd;fill:rgb(29.803922%,26.666667%,51.764706%);fill-opacity:1;" d="M 84.722656 38.984375 C 84.910156 37.621094 85.097656 36.1875 85.167969 34.695312 C 85.167969 23.285156 75.910156 14.035156 64.5 14.035156 C 54.59375 14.035156 46.210938 20.988281 44.332031 30.324219 C 46.683594 23.054688 52.976562 17.835938 60.402344 17.835938 C 69.832031 17.835938 77.472656 26.238281 77.472656 36.601562 C 77.472656 38.609375 76.324219 53.707031 90.171875 52.300781 C 89.269531 52 82.660156 52.058594 84.722656 38.984375 "/>
<path style=" stroke:none;fill-rule:nonzero;fill:rgb(29.803922%,26.666667%,51.764706%);fill-opacity:1;" d="M 97.910156 44.804688 L 94.285156 44.804688 L 94.285156 22.292969 L 107.386719 22.292969 C 113.234375 22.292969 116.199219 24.53125 116.199219 28.945312 C 116.199219 33.390625 113.234375 35.644531 107.386719 35.644531 L 97.898438 35.644531 L 97.898438 44.804688 Z M 97.910156 32.300781 L 106.710938 32.300781 C 111.699219 32.300781 112.703125 31.027344 112.703125 28.960938 C 112.703125 26.882812 111.699219 25.59375 106.710938 25.59375 L 97.910156 25.59375 Z M 97.910156 32.300781 "/>
<path style=" stroke:none;fill-rule:nonzero;fill:rgb(29.803922%,26.666667%,51.764706%);fill-opacity:1;" d="M 141.613281 44.804688 L 137.113281 44.804688 L 130.191406 35.285156 L 122.507812 35.285156 L 122.507812 44.804688 L 118.878906 44.804688 L 118.878906 22.292969 L 131.808594 22.292969 C 139.21875 22.292969 140.78125 25.835938 140.78125 28.804688 C 140.78125 32.890625 137.558594 34.726562 134.445312 35.140625 Z M 122.507812 31.945312 L 131.222656 31.945312 C 135.636719 31.945312 137.285156 31.082031 137.285156 28.761719 C 137.285156 26.453125 135.652344 25.605469 131.222656 25.605469 L 122.507812 25.605469 Z M 122.507812 31.945312 "/>
<path style=" stroke:none;fill-rule:nonzero;fill:rgb(29.803922%,26.666667%,51.764706%);fill-opacity:1;" d="M 145.167969 22.28125 L 148.792969 22.28125 L 148.792969 44.789062 L 145.167969 44.789062 Z M 145.167969 22.28125 "/>
<path style=" stroke:none;fill-rule:nonzero;fill:rgb(29.803922%,26.666667%,51.764706%);fill-opacity:1;" d="M 176.703125 44.804688 L 173.363281 44.804688 L 156.894531 26.421875 L 156.894531 44.804688 L 153.394531 44.804688 L 153.394531 22.28125 L 157.824219 22.28125 L 173.089844 39.15625 L 173.089844 22.28125 L 176.703125 22.28125 Z M 176.703125 44.804688 "/>
<path style=" stroke:none;fill-rule:nonzero;fill:rgb(29.803922%,26.666667%,51.764706%);fill-opacity:1;" d="M 192.625 45.335938 C 184.742188 45.335938 179.839844 40.832031 179.839844 33.59375 C 179.839844 26.292969 184.726562 21.75 192.597656 21.75 C 198.144531 21.75 202.53125 24.160156 204.308594 28.203125 L 204.507812 28.660156 L 201.324219 30.121094 L 201.125 29.636719 C 199.460938 25.765625 195.59375 24.945312 192.640625 24.945312 C 186.777344 24.945312 183.539062 28.128906 183.539062 33.894531 C 183.539062 38.96875 187.035156 41.992188 192.871094 41.992188 C 196.824219 41.992188 199.691406 40.386719 201.410156 37.207031 L 201.640625 36.773438 L 204.851562 38.339844 L 204.609375 38.796875 C 202.359375 43.199219 198.429688 45.335938 192.625 45.335938 "/>
<path style=" stroke:none;fill-rule:nonzero;fill:rgb(29.803922%,26.666667%,51.764706%);fill-opacity:1;" d="M 228.113281 44.804688 L 207.574219 44.804688 L 207.574219 22.28125 L 227.757812 22.28125 L 227.757812 25.605469 L 211.203125 25.605469 L 211.203125 31.441406 L 225.046875 31.441406 L 225.046875 34.769531 L 211.203125 34.769531 L 211.203125 41.464844 L 228.113281 41.464844 Z M 228.113281 44.804688 "/>
<path style=" stroke:none;fill-rule:nonzero;fill:rgb(29.803922%,26.666667%,51.764706%);fill-opacity:1;" d="M 249.742188 44.804688 L 230.179688 44.804688 L 230.179688 42.195312 L 230.238281 42.082031 C 230.765625 41.046875 232.359375 37.921875 238.121094 35.054688 C 239.152344 34.539062 240.125 34.09375 241.015625 33.691406 C 244.382812 32.171875 246.230469 31.328125 246.230469 28.675781 C 246.230469 26.453125 243.96875 24.960938 240.597656 24.960938 C 236.027344 24.960938 234.40625 27.242188 233.519531 29.21875 L 233.304688 29.691406 L 230.292969 28.273438 L 230.4375 27.84375 C 230.78125 26.824219 232.875 21.765625 240.296875 21.765625 C 246.304688 21.765625 249.742188 24.246094 249.742188 28.574219 C 249.742188 33.363281 246.144531 34.925781 242.648438 36.460938 L 242.492188 36.53125 C 239.09375 38.023438 236.558594 39.140625 234.421875 41.621094 L 249.742188 41.621094 Z M 249.742188 44.804688 "/>
<path style=" stroke:none;fill-rule:nonzero;fill:rgb(29.803922%,26.666667%,51.764706%);fill-opacity:1;" d="M 257.011719 24.773438 C 257.011719 26.164062 255.894531 27.269531 254.472656 27.269531 C 253.054688 27.269531 251.921875 26.164062 251.921875 24.773438 C 251.921875 23.382812 253.054688 22.292969 254.488281 22.292969 C 255.894531 22.292969 257.011719 23.382812 257.011719 24.773438 Z M 252.539062 24.773438 C 252.539062 25.878906 253.371094 26.753906 254.472656 26.753906 C 255.550781 26.769531 256.367188 25.878906 256.367188 24.789062 C 256.367188 23.683594 255.550781 22.796875 254.445312 22.796875 C 253.382812 22.796875 252.539062 23.683594 252.539062 24.773438 Z M 254.074219 26.066406 L 253.5 26.066406 L 253.5 23.585938 C 253.730469 23.554688 254.042969 23.511719 254.460938 23.511719 C 254.933594 23.511719 255.148438 23.585938 255.304688 23.714844 C 255.464844 23.8125 255.5625 24 255.5625 24.246094 C 255.5625 24.546875 255.335938 24.746094 255.046875 24.832031 L 255.046875 24.859375 C 255.289062 24.933594 255.40625 25.132812 255.492188 25.464844 C 255.5625 25.835938 255.621094 25.980469 255.679688 26.066406 L 255.074219 26.066406 C 255.003906 25.980469 254.960938 25.765625 254.875 25.464844 C 254.832031 25.203125 254.675781 25.089844 254.359375 25.089844 L 254.085938 25.089844 L 254.085938 26.066406 Z M 254.085938 24.675781 L 254.359375 24.675781 C 254.675781 24.675781 254.933594 24.574219 254.933594 24.316406 C 254.933594 24.085938 254.761719 23.945312 254.402344 23.945312 C 254.246094 23.945312 254.144531 23.957031 254.085938 23.972656 Z M 254.085938 24.675781 "/>
<path style=" stroke:none;fill-rule:nonzero;fill:rgb(29.803922%,26.666667%,51.764706%);fill-opacity:1;" d="M 57.003906 61.75 L 58.808594 61.75 L 61.117188 69.40625 L 59.667969 69.40625 L 59.195312 67.730469 L 56.558594 67.730469 L 56.070312 69.40625 L 54.710938 69.40625 Z M 58.851562 66.511719 L 57.863281 63.085938 L 56.890625 66.511719 Z M 58.851562 66.511719 "/>
<path style=" stroke:none;fill-rule:nonzero;fill:rgb(29.803922%,26.666667%,51.764706%);fill-opacity:1;" d="M 67.367188 67.484375 C 66.992188 68.804688 66.003906 69.523438 64.542969 69.523438 C 62.566406 69.523438 61.53125 68.203125 61.53125 65.609375 C 61.53125 63.054688 62.664062 61.652344 64.628906 61.652344 C 66.003906 61.652344 66.90625 62.351562 67.210938 63.644531 L 65.875 63.972656 C 65.691406 63.242188 65.230469 62.855469 64.542969 62.855469 C 63.496094 62.855469 62.996094 63.773438 62.996094 65.609375 C 62.996094 67.371094 63.480469 68.230469 64.570312 68.230469 C 65.273438 68.230469 65.832031 67.800781 66.035156 67.097656 Z M 67.367188 67.484375 "/>
<path style=" stroke:none;fill-rule:nonzero;fill:rgb(29.803922%,26.666667%,51.764706%);fill-opacity:1;" d="M 73.859375 67.484375 C 73.488281 68.804688 72.496094 69.523438 71.035156 69.523438 C 69.058594 69.523438 68.027344 68.203125 68.027344 65.609375 C 68.027344 63.054688 69.160156 61.652344 71.121094 61.652344 C 72.496094 61.652344 73.402344 62.351562 73.703125 63.644531 L 72.367188 63.972656 C 72.183594 63.242188 71.722656 62.855469 71.035156 62.855469 C 69.988281 62.855469 69.488281 63.773438 69.488281 65.609375 C 69.488281 67.371094 69.976562 68.230469 71.066406 68.230469 C 71.765625 68.230469 72.324219 67.800781 72.527344 67.097656 Z M 73.859375 67.484375 "/>
<path style=" stroke:none;fill-rule:nonzero;fill:rgb(29.803922%,26.666667%,51.764706%);fill-opacity:1;" d="M 74.992188 61.75 L 77.585938 61.75 C 79.507812 61.75 80.453125 62.480469 80.453125 64.03125 C 80.453125 65.035156 79.953125 65.707031 79.046875 65.964844 L 80.738281 69.394531 L 79.191406 69.394531 L 77.714844 66.28125 L 76.398438 66.28125 L 76.398438 69.394531 L 74.992188 69.394531 Z M 77.65625 65.089844 C 78.574219 65.089844 79.003906 64.761719 79.003906 64.03125 C 79.003906 63.285156 78.5625 62.96875 77.65625 62.96875 L 76.410156 62.96875 L 76.410156 65.089844 Z M 77.65625 65.089844 "/>
<path style=" stroke:none;fill-rule:nonzero;fill:rgb(29.803922%,26.666667%,51.764706%);fill-opacity:1;" d="M 82.058594 61.75 L 87.03125 61.75 L 87.03125 63 L 83.492188 63 L 83.492188 64.804688 L 86.070312 64.804688 L 86.070312 66.023438 L 83.492188 66.023438 L 83.492188 68.101562 L 87.191406 68.101562 L 87.191406 69.40625 L 82.058594 69.40625 Z M 82.058594 61.75 "/>
<path style=" stroke:none;fill-rule:nonzero;fill:rgb(29.803922%,26.666667%,51.764706%);fill-opacity:1;" d="M 88.351562 61.75 L 90.6875 61.75 C 93.050781 61.75 94.269531 63.042969 94.269531 65.550781 C 94.269531 68.101562 93.050781 69.40625 90.628906 69.40625 L 88.351562 69.40625 Z M 90.585938 68.144531 C 92.164062 68.144531 92.824219 67.371094 92.824219 65.550781 C 92.824219 63.816406 92.121094 63.027344 90.574219 63.027344 L 89.796875 63.027344 L 89.796875 68.144531 Z M 90.585938 68.144531 "/>
<path style=" stroke:none;fill-rule:nonzero;fill:rgb(29.803922%,26.666667%,51.764706%);fill-opacity:1;" d="M 95.703125 61.75 L 97.152344 61.75 L 97.152344 69.40625 L 95.703125 69.40625 Z M 95.703125 61.75 "/>
<path style=" stroke:none;fill-rule:nonzero;fill:rgb(29.803922%,26.666667%,51.764706%);fill-opacity:1;" d="M 100.375 63.011719 L 98.371094 63.011719 L 98.371094 61.75 L 103.84375 61.75 L 103.84375 63.011719 L 101.839844 63.011719 L 101.839844 69.394531 L 100.390625 69.394531 L 100.390625 63.011719 Z M 100.375 63.011719 "/>
<path style=" stroke:none;fill-rule:nonzero;fill:rgb(29.803922%,26.666667%,51.764706%);fill-opacity:1;" d="M 104.933594 61.75 L 109.90625 61.75 L 109.90625 63 L 106.367188 63 L 106.367188 64.804688 L 108.949219 64.804688 L 108.949219 66.023438 L 106.367188 66.023438 L 106.367188 68.101562 L 110.066406 68.101562 L 110.066406 69.40625 L 104.933594 69.40625 Z M 104.933594 61.75 "/>
<path style=" stroke:none;fill-rule:nonzero;fill:rgb(29.803922%,26.666667%,51.764706%);fill-opacity:1;" d="M 111.242188 61.75 L 113.578125 61.75 C 115.941406 61.75 117.160156 63.042969 117.160156 65.550781 C 117.160156 68.101562 115.941406 69.40625 113.519531 69.40625 L 111.242188 69.40625 Z M 113.476562 68.144531 C 115.054688 68.144531 115.714844 67.371094 115.714844 65.550781 C 115.714844 63.816406 115.011719 63.027344 113.460938 63.027344 L 112.6875 63.027344 L 112.6875 68.144531 Z M 113.476562 68.144531 "/>
<path style=" stroke:none;fill-rule:nonzero;fill:rgb(29.803922%,26.666667%,51.764706%);fill-opacity:1;" d="M 122.980469 63.011719 L 120.972656 63.011719 L 120.972656 61.75 L 126.449219 61.75 L 126.449219 63.011719 L 124.441406 63.011719 L 124.441406 69.394531 L 122.980469 69.394531 Z M 122.980469 63.011719 "/>
<path style=" stroke:none;fill-rule:nonzero;fill:rgb(29.803922%,26.666667%,51.764706%);fill-opacity:1;" d="M 127.496094 61.75 L 130.089844 61.75 C 132.011719 61.75 132.957031 62.480469 132.957031 64.03125 C 132.957031 65.035156 132.453125 65.707031 131.550781 65.964844 L 133.242188 69.394531 L 131.695312 69.394531 L 130.21875 66.28125 L 128.898438 66.28125 L 128.898438 69.394531 L 127.496094 69.394531 Z M 130.160156 65.089844 C 131.078125 65.089844 131.507812 64.761719 131.507812 64.03125 C 131.507812 63.285156 131.0625 62.96875 130.160156 62.96875 L 128.914062 62.96875 L 128.914062 65.089844 Z M 130.160156 65.089844 "/>
<path style=" stroke:none;fill-rule:nonzero;fill:rgb(29.803922%,26.666667%,51.764706%);fill-opacity:1;" d="M 136.007812 61.75 L 137.816406 61.75 L 140.121094 69.40625 L 138.675781 69.40625 L 138.203125 67.730469 L 135.566406 67.730469 L 135.078125 69.40625 L 133.714844 69.40625 Z M 137.84375 66.511719 L 136.867188 63.085938 L 135.894531 66.511719 Z M 137.84375 66.511719 "/>
<path style=" stroke:none;fill-rule:nonzero;fill:rgb(29.803922%,26.666667%,51.764706%);fill-opacity:1;" d="M 141.15625 61.75 L 142.601562 61.75 L 142.601562 69.40625 L 141.15625 69.40625 Z M 141.15625 61.75 "/>
<path style=" stroke:none;fill-rule:nonzero;fill:rgb(29.803922%,26.666667%,51.764706%);fill-opacity:1;" d="M 144.4375 61.75 L 145.96875 61.75 L 148.164062 65.59375 C 148.480469 66.152344 148.78125 66.753906 149.023438 67.429688 C 148.953125 66.957031 148.921875 66.4375 148.921875 65.867188 L 148.921875 61.75 L 150.257812 61.75 L 150.257812 69.40625 L 148.921875 69.40625 L 146.53125 65.464844 C 146.285156 65.046875 146 64.445312 145.667969 63.628906 C 145.742188 64.101562 145.769531 64.617188 145.769531 65.191406 L 145.769531 69.421875 L 144.4375 69.421875 Z M 144.4375 61.75 "/>
<path style=" stroke:none;fill-rule:nonzero;fill:rgb(29.803922%,26.666667%,51.764706%);fill-opacity:1;" d="M 152.089844 61.75 L 153.539062 61.75 L 153.539062 69.40625 L 152.089844 69.40625 Z M 152.089844 61.75 "/>
<path style=" stroke:none;fill-rule:nonzero;fill:rgb(29.803922%,26.666667%,51.764706%);fill-opacity:1;" d="M 155.375 61.75 L 156.90625 61.75 L 159.101562 65.59375 C 159.414062 66.152344 159.714844 66.753906 159.960938 67.429688 C 159.886719 66.957031 159.859375 66.4375 159.859375 65.867188 L 159.859375 61.75 L 161.191406 61.75 L 161.191406 69.40625 L 159.859375 69.40625 L 157.464844 65.464844 C 157.222656 65.046875 156.9375 64.445312 156.605469 63.628906 C 156.675781 64.101562 156.707031 64.617188 156.707031 65.191406 L 156.707031 69.421875 L 155.375 69.421875 Z M 155.375 61.75 "/>
<path style=" stroke:none;fill-rule:nonzero;fill:rgb(29.803922%,26.666667%,51.764706%);fill-opacity:1;" d="M 167.371094 68.605469 C 166.882812 69.234375 166.238281 69.535156 165.347656 69.535156 C 163.542969 69.535156 162.441406 68.058594 162.441406 65.507812 C 162.441406 63.070312 163.628906 61.664062 165.605469 61.664062 C 166.96875 61.664062 167.929688 62.351562 168.300781 63.601562 L 166.996094 63.929688 C 166.695312 63.214844 166.238281 62.871094 165.578125 62.871094 C 164.488281 62.871094 163.902344 63.800781 163.902344 65.59375 C 163.902344 67.355469 164.503906 68.273438 165.535156 68.273438 C 166.351562 68.273438 166.925781 67.699219 167.054688 66.726562 L 165.621094 66.726562 L 165.621094 65.523438 L 168.472656 65.523438 L 168.472656 69.40625 L 167.457031 69.40625 Z M 167.371094 68.605469 "/>
<path style=" stroke:none;fill-rule:nonzero;fill:rgb(29.803922%,26.666667%,51.764706%);fill-opacity:1;" d="M 175.8125 61.652344 C 177.777344 61.652344 178.996094 63.097656 178.996094 65.578125 C 178.996094 68.058594 177.777344 69.507812 175.8125 69.507812 C 173.847656 69.507812 172.628906 68.058594 172.628906 65.578125 C 172.628906 63.097656 173.847656 61.652344 175.8125 61.652344 Z M 175.8125 68.230469 C 176.929688 68.230469 177.53125 67.34375 177.53125 65.59375 C 177.53125 63.828125 176.929688 62.925781 175.8125 62.925781 C 174.695312 62.925781 174.09375 63.828125 174.09375 65.59375 C 174.105469 67.34375 174.695312 68.230469 175.8125 68.230469 Z M 175.8125 68.230469 "/>
<path style=" stroke:none;fill-rule:nonzero;fill:rgb(29.803922%,26.666667%,51.764706%);fill-opacity:1;" d="M 180.226562 61.75 L 182.820312 61.75 C 184.742188 61.75 185.6875 62.480469 185.6875 64.03125 C 185.6875 65.035156 185.1875 65.707031 184.285156 65.964844 L 185.976562 69.394531 L 184.425781 69.394531 L 182.949219 66.28125 L 181.632812 66.28125 L 181.632812 69.394531 L 180.226562 69.394531 Z M 182.894531 65.089844 C 183.8125 65.089844 184.242188 64.761719 184.242188 64.03125 C 184.242188 63.285156 183.796875 62.96875 182.894531 62.96875 L 181.644531 62.96875 L 181.644531 65.089844 Z M 182.894531 65.089844 "/>
<path style=" stroke:none;fill-rule:nonzero;fill:rgb(29.803922%,26.666667%,51.764706%);fill-opacity:1;" d="M 191.722656 68.605469 C 191.234375 69.234375 190.589844 69.535156 189.703125 69.535156 C 187.894531 69.535156 186.792969 68.058594 186.792969 65.507812 C 186.792969 63.070312 187.980469 61.664062 189.960938 61.664062 C 191.320312 61.664062 192.28125 62.351562 192.65625 63.601562 L 191.351562 63.929688 C 191.050781 63.214844 190.589844 62.871094 189.929688 62.871094 C 188.839844 62.871094 188.253906 63.800781 188.253906 65.59375 C 188.253906 67.355469 188.855469 68.273438 189.886719 68.273438 C 190.703125 68.273438 191.277344 67.699219 191.40625 66.726562 L 189.972656 66.726562 L 189.972656 65.523438 L 192.828125 65.523438 L 192.828125 69.40625 L 191.808594 69.40625 Z M 191.722656 68.605469 "/>
<path style=" stroke:none;fill-rule:nonzero;fill:rgb(29.803922%,26.666667%,51.764706%);fill-opacity:1;" d="M 195.777344 61.75 L 197.585938 61.75 L 199.894531 69.40625 L 198.445312 69.40625 L 197.972656 67.730469 L 195.335938 67.730469 L 194.847656 69.40625 L 193.484375 69.40625 Z M 197.613281 66.511719 L 196.640625 63.085938 L 195.664062 66.511719 Z M 197.613281 66.511719 "/>
<path style=" stroke:none;fill-rule:nonzero;fill:rgb(29.803922%,26.666667%,51.764706%);fill-opacity:1;" d="M 200.753906 61.75 L 202.285156 61.75 L 204.480469 65.59375 C 204.792969 66.152344 205.09375 66.753906 205.339844 67.429688 C 205.269531 66.957031 205.238281 66.4375 205.238281 65.867188 L 205.238281 61.75 L 206.570312 61.75 L 206.570312 69.40625 L 205.238281 69.40625 L 202.84375 65.464844 C 202.601562 65.046875 202.316406 64.445312 201.984375 63.628906 C 202.058594 64.101562 202.085938 64.617188 202.085938 65.191406 L 202.085938 69.421875 L 200.753906 69.421875 Z M 200.753906 61.75 "/>
<path style=" stroke:none;fill-rule:nonzero;fill:rgb(29.803922%,26.666667%,51.764706%);fill-opacity:1;" d="M 208.421875 61.75 L 209.867188 61.75 L 209.867188 69.40625 L 208.421875 69.40625 Z M 208.421875 61.75 "/>
<path style=" stroke:none;fill-rule:nonzero;fill:rgb(29.803922%,26.666667%,51.764706%);fill-opacity:1;" d="M 211.03125 68.144531 L 214.726562 63 L 211.273438 63 L 211.273438 61.75 L 216.320312 61.75 L 216.320312 62.957031 L 212.5625 68.144531 L 216.375 68.144531 L 216.375 69.40625 L 211.015625 69.40625 L 211.015625 68.144531 Z M 211.03125 68.144531 "/>
<path style=" stroke:none;fill-rule:nonzero;fill:rgb(29.803922%,26.666667%,51.764706%);fill-opacity:1;" d="M 218.96875 61.75 L 220.777344 61.75 L 223.085938 69.40625 L 221.636719 69.40625 L 221.164062 67.730469 L 218.527344 67.730469 L 218.039062 69.40625 L 216.675781 69.40625 Z M 220.804688 66.511719 L 219.832031 63.085938 L 218.855469 66.511719 Z M 220.804688 66.511719 "/>
<path style=" stroke:none;fill-rule:nonzero;fill:rgb(29.803922%,26.666667%,51.764706%);fill-opacity:1;" d="M 224.589844 63.011719 L 222.582031 63.011719 L 222.582031 61.75 L 228.058594 61.75 L 228.058594 63.011719 L 226.050781 63.011719 L 226.050781 69.394531 L 224.601562 69.394531 L 224.601562 63.011719 Z M 224.589844 63.011719 "/>
<path style=" stroke:none;fill-rule:nonzero;fill:rgb(29.803922%,26.666667%,51.764706%);fill-opacity:1;" d="M 229.261719 61.75 L 230.710938 61.75 L 230.710938 69.40625 L 229.261719 69.40625 Z M 229.261719 61.75 "/>
<path style=" stroke:none;fill-rule:nonzero;fill:rgb(29.803922%,26.666667%,51.764706%);fill-opacity:1;" d="M 235.28125 61.652344 C 237.246094 61.652344 238.464844 63.097656 238.464844 65.578125 C 238.464844 68.058594 237.246094 69.507812 235.28125 69.507812 C 233.316406 69.507812 232.101562 68.058594 232.101562 65.578125 C 232.101562 63.097656 233.304688 61.652344 235.28125 61.652344 Z M 235.28125 68.230469 C 236.398438 68.230469 237 67.34375 237 65.59375 C 237 63.828125 236.398438 62.925781 235.28125 62.925781 C 234.164062 62.925781 233.5625 63.828125 233.5625 65.59375 C 233.5625 67.34375 234.164062 68.230469 235.28125 68.230469 Z M 235.28125 68.230469 "/>
<path style=" stroke:none;fill-rule:nonzero;fill:rgb(29.803922%,26.666667%,51.764706%);fill-opacity:1;" d="M 239.667969 61.75 L 241.203125 61.75 L 243.394531 65.59375 C 243.710938 66.152344 244.011719 66.753906 244.253906 67.429688 C 244.183594 66.957031 244.152344 66.4375 244.152344 65.867188 L 244.152344 61.75 L 245.488281 61.75 L 245.488281 69.40625 L 244.152344 69.40625 L 241.761719 65.464844 C 241.515625 65.046875 241.230469 64.445312 240.898438 63.628906 C 240.972656 64.101562 241 64.617188 241 65.191406 L 241 69.421875 L 239.667969 69.421875 Z M 239.667969 61.75 "/>
</g>
</svg>
