<?xml version="1.0" encoding="UTF-8"?>
<svg width="24px" height="22px" viewBox="0 0 24 22" version="1.1" xmlns="http://www.w3.org/2000/svg" xmlns:xlink="http://www.w3.org/1999/xlink">
    <!-- Generator: Sketch 59.1 (86144) - https://sketch.com -->
    <title>icon/Devops/dropdown/hover</title>
    <desc>Created with Sketch.</desc>
    <g id="icon/Devops/dropdown/hover" stroke="none" stroke-width="1" fill="none" fill-rule="evenodd">
        <g id="Group-3" transform="translate(1.000000, 2.000000)">
            <g id="Group">
                <g id="Group-2" transform="translate(5.641026, 14.770492)" stroke="#3F51B5">
                    <rect id="Rectangle-Copy" fill="#FFFFFF" x="1.42857143" y="0" width="7.23809524" height="1.97615499"></rect>
                    <line x1="0.0238095238" y1="2.02615499" x2="10.452381" y2="2.02615499" id="Line" stroke-linecap="square"></line>
                </g>
                <rect id="Rectangle" stroke="#3F51B5" fill="#FFFFFF" x="0" y="7.10542736e-15" width="22" height="14.7741111"></rect>
                <g id="gears" transform="translate(4.380952, 0.846924)" fill="#3F51B5" fill-rule="nonzero">
                    <path d="M8.34170814,11.7002961 L7.26237634,10.8473364 L7.13640092,10.9184339 C6.87420123,11.0665363 6.59064977,11.1823599 6.29343318,11.2625292 L6.15357911,11.3002932 L6.00091398,12.65832 L4.67475576,12.65832 L4.52209063,11.3002932 L4.38223656,11.2625292 C4.08480645,11.1823599 3.80125499,11.0665363 3.53926882,10.9184339 L3.41329339,10.8473364 L2.3339616,11.7002961 L1.39640553,10.7739181 L2.25987097,9.70766561 L2.187702,9.58319213 C2.0378126,9.32411851 1.9205914,9.04394769 1.83945469,8.75048564 L1.80166206,8.61187704 L0.42703533,8.46103206 L0.42703533,7.15089594 L1.80166206,7.00005096 L1.83988172,6.86165333 C1.92101843,6.56819128 2.03823963,6.28802046 2.18812903,6.02894684 L2.260298,5.90447336 L1.39683257,4.83822088 L2.33438863,3.91184282 L3.41372043,4.76480262 L3.53969585,4.69370506 C3.80189555,4.54560271 4.085447,4.42977908 4.38266359,4.34960972 L4.52251767,4.31184574 L4.67496928,2.953608 L6.0011275,2.953608 L6.15379263,4.31163476 L6.2936467,4.34939875 C6.5910768,4.42956811 6.87462826,4.54539174 7.13661444,4.69349408 L7.26258986,4.76459165 L8.34192166,3.91163185 L9.27947773,4.8380099 L8.41601229,5.90426239 L8.48818126,6.02873587 C8.63807066,6.28780949 8.75529186,6.5679803 8.83642857,6.86144236 L9.24851767,6.75047108 C9.17101075,6.46966735 9.06382488,6.19983416 8.92930876,5.94603485 L9.85170507,4.80657508 L8.37373579,3.34622689 L7.22052688,4.25762593 C7.00636866,4.14686563 6.78046697,4.05467087 6.54666513,3.98272942 L6.3831106,2.531664 L4.29298618,2.531664 L4.12964516,3.98272942 C3.8956298,4.05467087 3.66994163,4.14686563 3.45578341,4.25762593 L2.3025745,3.34622689 L0.824605223,4.80657508 L1.74700154,5.94603485 C1.63490476,6.15763976 1.54159754,6.38084814 1.46878802,6.61186248 L0,6.77325606 L0,8.83867194 L1.46878802,9.00006552 C1.54159754,9.23107986 1.63469124,9.45407726 1.74700154,9.66589315 L0.824605223,10.8053529 L2.3025745,12.2657011 L3.45578341,11.3543021 C3.66994163,11.4650624 3.89584332,11.5572571 4.12964516,11.6291986 L4.29277266,13.080264 L6.38289708,13.080264 L6.5462381,11.6291986 C6.78025346,11.5572571 7.00594163,11.4650624 7.22009985,11.3543021 L8.37330876,12.2657011 L9.71612135,10.9386872 L9.41420737,10.6403728 L8.34170814,11.7002961 Z" id="Path"></path>
                    <path d="M7.32749923,7.03886981 L7.72528264,6.88528219 C7.33860215,5.90679406 6.40147312,5.2743 5.33794163,5.2743 C3.92509524,5.2743 2.77572965,6.40996228 2.77572965,7.805964 C2.77572965,9.20196572 3.92509524,10.337628 5.33794163,10.337628 C5.83650538,10.337628 6.31990937,10.1960658 6.73562826,9.92813135 L6.50246697,9.57454227 C6.15614132,9.79775065 5.753447,9.915684 5.33794163,9.915684 C4.16060522,9.915684 3.20276498,8.96926361 3.20276498,7.805964 C3.20276498,6.64266439 4.16060522,5.696244 5.33794163,5.696244 C6.22425346,5.696244 7.00551459,6.22325206 7.32749923,7.03886981 Z" id="Path"></path>
                    <path d="M13.2380952,6.30700794 L13.2380952,4.24159206 L11.7693072,4.08019848 C11.6964977,3.84918414 11.603404,3.62618674 11.4910937,3.41437085 L12.41349,2.27491108 L10.9355207,0.814562892 L9.78231183,1.72596193 C9.56815361,1.61520163 9.34225192,1.52300687 9.10845008,1.45106542 L8.94532258,0 L6.85519816,0 L6.69185714,1.45106542 C6.45784178,1.52300687 6.23215361,1.61520163 6.01799539,1.72596193 L4.86478648,0.814562892 L3.52197389,2.14157677 L3.82388786,2.43989118 L4.8963871,1.37996785 L5.97571889,2.23292765 L6.10169432,2.16183008 C6.36389401,2.01372774 6.64744547,1.89790411 6.94466206,1.81773475 L7.08451613,1.77997076 L7.23718126,0.421944 L8.56333948,0.421944 L8.71600461,1.77997076 L8.85585868,1.81773475 C9.15328879,1.89790411 9.43684025,2.01372774 9.69882642,2.16183008 L9.82480184,2.23292765 L10.9041336,1.37996785 L11.8416897,2.3063459 L10.9782243,3.37259839 L11.0503932,3.49707187 C11.2002826,3.75614549 11.3175038,4.0363163 11.3986406,4.32977836 L11.4368602,4.46817599 L12.8110599,4.61923194 L12.8110599,5.92936806 L11.4364332,6.08021304 L11.3982135,6.21861067 C11.3170768,6.51207272 11.1998556,6.79224354 11.0499662,7.05131716 L10.9777972,7.17579064 L11.8412627,8.24204312 L10.9037066,9.16842117 L9.82437481,8.31546138 L9.69839939,8.38655894 C9.43619969,8.53466129 9.15264823,8.65048491 8.85543164,8.73065427 L8.71557757,8.76841826 L8.56312596,10.126656 L7.23696774,10.126656 L7.08430261,8.76862923 L6.94444854,8.73086525 C6.64701843,8.65069589 6.36346697,8.53487226 6.1014808,8.38676991 L5.97550538,8.31567235 L4.89617358,9.16863215 L3.95861751,8.24225409 L4.82208295,7.17600161 L4.74991398,7.05152813 C4.60002458,6.79245451 4.48280338,6.5122837 4.40166667,6.21882164 L3.98957757,6.32979292 C4.06708449,6.61059665 4.17427035,6.88042984 4.30878648,7.13422915 L3.38639017,8.27368892 L4.86435945,9.73403711 L6.01756836,8.82263807 C6.23172657,8.93339837 6.45762826,9.02559313 6.69143011,9.09753458 L6.85498464,10.5486 L8.94510906,10.5486 L9.10845008,9.09753458 C9.34246544,9.02559313 9.56815361,8.93339837 9.78231183,8.82263807 L10.9355207,9.73403711 L12.41349,8.27368892 L11.4910937,7.13422915 C11.6031905,6.92262424 11.6964977,6.69941586 11.7693072,6.46840152 L13.2380952,6.30700794 Z" id="Path"></path>
                    <path d="M7.90015361,7.805964 C9.313,7.805964 10.4623656,6.67030172 10.4623656,5.2743 C10.4623656,3.87829828 9.313,2.742636 7.90015361,2.742636 C7.48998618,2.742636 7.09818126,2.83546368 6.73541475,3.01879835 L6.92971582,3.39453948 C7.23184332,3.24200672 7.55831183,3.16458 7.90015361,3.16458 C9.07749002,3.16458 10.0353303,4.11100039 10.0353303,5.2743 C10.0353303,6.43759961 9.07749002,7.38402 7.90015361,7.38402 C7.01384178,7.38402 6.23258065,6.85701194 5.91059601,6.04139419 L5.5128126,6.19498181 C5.89949309,7.17346994 6.83662212,7.805964 7.90015361,7.805964 Z" id="Path"></path>
                </g>
            </g>
        </g>
    </g>
</svg>