<?xml version="1.0" encoding="UTF-8"?>
<svg width="80px" height="80px" viewBox="0 0 80 80" version="1.1" xmlns="http://www.w3.org/2000/svg" xmlns:xlink="http://www.w3.org/1999/xlink">
    <!-- Generator: Sketch 63.1 (92452) - https://sketch.com -->
    <title>Retrospective Sessions</title>
    <desc>Created with Sketch.</desc>
    <defs>
        <polygon id="path-1" points="2.11428571e-05 0.10005812 73.88012 0.10005812 73.88012 73.789098 2.11428571e-05 73.789098"></polygon>
    </defs>
    <g id="Retrospective-Sessions" stroke="none" stroke-width="1" fill="none" fill-rule="evenodd">
        <g id="Group-12" transform="translate(3.000000, 3.000000)">
            <g id="Group-3">
                <mask id="mask-2" fill="white">
                    <use xlink:href="#path-1"></use>
                </mask>
                <g id="Clip-2"></g>
                <path d="M2.11428571e-05,67.2397732 C0.470449714,65.6216821 1.51279257,64.4671977 2.86635829,63.4946564 C4.697964,62.17889 6.43759829,60.7366279 8.26349543,59.4128501 C8.821244,59.0084855 8.78804971,58.720286 8.482324,58.2031293 C6.88498114,55.5013915 6.08366686,52.5458188 6.068444,49.4344456 C6.04307257,44.2645652 7.84994114,39.7764969 11.5438097,36.1144456 C12.2254554,35.4385368 12.5091926,34.8598188 12.4159526,33.8362575 C11.5190726,23.9978416 14.6241126,15.5409698 21.673564,8.63388148 C26.6856897,3.72310655 32.8071811,0.966132194 39.8077926,0.193875783 C39.9488154,0.17848547 40.0866669,0.131892877 40.2259983,0.10005812 L45.8489411,0.10005812 C45.9882726,0.132103704 46.1257011,0.179539601 46.2669354,0.194297436 C50.8543011,0.675192023 55.120084,2.10501538 59.0600554,4.49852536 C63.3256269,7.08979031 66.7564783,10.5140296 69.3682554,14.7583829 C69.4735469,14.929363 69.5166783,15.2314769 69.7813869,15.1895225 C70.0194554,15.1517846 70.0249526,14.8595795 70.1042383,14.6685709 C70.3888211,13.9823316 70.6493011,13.2863943 70.9379011,12.6020524 C71.2996554,11.7435681 71.9823583,11.3976023 72.6963526,11.6891749 C73.4308554,11.9891806 73.7080383,12.6998758 73.3786326,13.5404399 C72.6792269,15.3250838 71.9681926,17.1053003 71.2472211,18.8815111 C70.8846211,19.7754142 70.2482211,20.0806906 69.339924,19.7351464 C67.5000726,19.0354142 65.6705811,18.3067989 63.8512383,17.5552034 C63.0492897,17.2239954 62.7606897,16.5095054 63.0541526,15.8023943 C63.338524,15.1167875 64.0472326,14.8625311 64.8715926,15.1652775 C65.539284,15.4102575 66.2014783,15.6708387 67.0387354,15.9906621 C65.922604,14.1697561 64.747484,12.6281949 63.3751011,11.2593003 C57.4508726,5.35047407 50.3339754,2.39975043 41.9032611,2.69532877 C37.6214097,2.84543704 33.5533126,3.84559658 29.8463354,5.94479316 C19.5366554,11.7832034 14.6002211,20.6950382 14.9027754,32.5021493 C14.9245526,33.3517789 14.9945354,33.3812946 15.7499697,32.970816 C19.3254383,31.0272091 23.1341126,30.3386507 27.1669011,30.8545425 C28.222564,30.9894712 28.2183354,30.9947419 28.2177011,29.9218473 C28.2160097,26.9747077 28.2356726,24.0273573 28.2096669,21.0804285 C28.1984611,19.8042974 28.623644,18.7478473 29.526444,17.8556308 C31.4037183,16.0001493 33.2731697,14.1368672 35.1407183,12.2716877 C35.9838954,11.4296479 37.0002326,11.0227533 38.1867697,11.0229641 C42.9445469,11.0238074 47.702324,11.0370895 52.4598897,11.0208558 C54.2790211,11.0147419 55.4492783,12.1435054 55.4403983,14.0017276 C55.3892326,24.736155 55.4156611,35.4705823 55.4152383,46.2050097 C55.4150269,48.3206507 54.4623297,49.2792775 52.3474097,49.2822291 C49.536044,49.2862348 46.7244669,49.288343 43.9131011,49.2792775 C43.4475354,49.2778017 43.157244,49.3423145 43.1293354,49.9269356 C42.9902154,52.8424513 42.2510611,55.6006906 40.7731754,58.133135 C40.4260097,58.727665 40.681204,58.8254883 41.1905354,58.8459385 C43.4031354,58.9342746 45.6100269,58.8830439 47.7959869,58.4965994 C54.1933926,57.3659385 59.6013126,54.4160581 63.9694269,49.6237675 C67.5089526,45.7405595 69.7524211,41.1966222 70.7738326,36.0417105 C71.1205754,34.2926963 71.1290326,32.520702 71.3087469,30.7609356 C71.3943754,29.919739 71.9434554,29.4413744 72.6648497,29.4835396 C73.3898383,29.5257048 73.8433526,30.0706906 73.8695697,30.9097789 C73.917564,32.447967 73.8025469,33.9808843 73.5317069,35.4876593 C71.6229297,46.1065538 65.8380326,53.8769755 56.1076669,58.5952661 C50.8272383,61.1559613 45.1994326,62.0395339 39.3466669,61.2603202 C38.8819469,61.1985481 38.5510611,61.3142917 38.2106611,61.6762803 C34.481484,65.6446621 29.8628269,67.6612148 24.4225583,67.6614256 C21.275444,67.6616365 18.2900726,66.8535396 15.5556669,65.2554769 C15.0433754,64.9561037 14.7532954,64.9033972 14.3407983,65.4648274 C12.8075183,67.5515852 11.2135583,69.5944912 9.61938686,71.6359214 C8.19012971,73.4658929 5.93756971,74.2126393 3.76492971,73.5523316 C1.75466686,72.9413573 0.574261143,71.5127989 2.11428571e-05,69.5398872 L2.11428571e-05,67.2397732 Z" id="Fill-1" fill="#000000" mask="url(#mask-2)"></path>
            </g>
            <path d="M22.6297558,65.9015882 C27.1708876,66.3693019 31.221774,65.1670936 34.8000145,62.3542482 C35.638224,61.6953416 35.6250773,61.6856019 34.8178262,61.0230959 C32.5423833,59.1560525 30.2694849,57.2864684 27.9970106,55.4162491 C27.8235587,55.2737542 27.6528633,55.1266012 27.4925582,54.9703437 C26.8657564,54.3603469 26.77691,53.6114546 27.2567654,53.0393576 C27.7510397,52.4505339 28.5763144,52.3798158 29.2671534,52.9267168 C30.4013762,53.8244559 31.5095175,54.7548016 32.6272008,55.6730787 C34.05362,56.8447977 35.4946703,57.9993664 36.8956442,59.2003043 C37.3748634,59.6110623 37.6267715,59.5077376 37.952683,59.042353 C44.7455088,49.3450763 39.6562435,35.9063024 27.8945934,33.3623553 C25.2132984,32.7824242 22.5404853,32.9096745 19.900751,33.664707 C19.7332363,33.71277 19.5678421,33.7697256 19.4054165,33.8330331 C19.3670365,33.8478543 19.3449839,33.9050216 19.2661036,34.0064408 C20.2976971,34.8571756 21.3295027,35.7096044 22.3630046,36.5597041 C27.0247893,40.3939395 31.6872103,44.2271163 36.3481469,48.0621986 C36.7128624,48.3622214 37.1291045,48.6357777 37.247425,49.1286873 C37.3856776,49.7050189 37.2662969,50.2339228 36.7588759,50.5932302 C36.2024727,50.9870497 35.6136269,50.950632 35.0919989,50.5383919 C33.9961561,49.6732593 32.9208816,48.7810251 31.8420023,47.8936608 C26.9102857,43.8383783 21.9719956,39.7900829 17.0593629,35.7112982 C16.4987189,35.2457019 16.09838,35.2234702 15.5046572,35.6274528 C11.8176381,38.1358291 9.40669913,41.5106084 8.34181474,45.8532098 C8.159457,46.5963854 8.32633554,47.0503365 8.90712374,47.5216496 C12.1605131,50.1627812 15.3850644,52.8388484 18.625307,55.4958599 C19.0911674,55.8778225 19.4639406,56.2987436 19.3842121,56.9432525 C19.2465956,58.0546282 18.0614823,58.5126022 17.1140702,57.7732378 C15.7379054,56.699762 14.4083903,55.5663663 13.0614875,54.4554141 C11.4107259,53.0939842 9.76229672,51.7291666 8,50.2726696 C8.39885455,58.4939699 14.6304002,65.0773197 22.6297558,65.9015882" id="Fill-4" fill="#FFFFFF"></path>
            <path d="M31.0034093,29.8135121 C30.9837218,30.4670547 31.2276386,30.7665595 31.7929783,31.0147267 C36.7757602,33.2028586 40.2233379,36.9204675 42.1585075,42.1209022 C42.5545355,43.1851455 42.8057055,44.2911405 42.9911817,45.4103427 C43.0618491,45.8365939 43.255822,45.9972103 43.662419,45.9961452 C46.5678674,45.9895416 49.4739375,45.9861333 52.379386,46 C52.8570649,46.0023227 53.0106267,45.8035759 52.999436,45.3364251 C52.9563309,43.5362009 52.9698013,41.7351246 52.9385086,39.9340484 C52.8840056,36.8018159 52.9836861,33.6672402 52.9917683,30.5333036 C53.0044097,25.4261713 52.9990215,20.319039 52.9913538,15.2119067 C52.9899031,14.3491794 52.9277324,13.4866652 52.9140548,12.6237249 C52.9070088,12.1932134 52.74122,12.0019222 52.3080968,12.0025613 C47.8653719,12.0095909 43.4228542,12.0115081 38.9801293,12 C38.485457,11.9987269 38.3702338,12.2396515 38.3739641,12.6844353 C38.386191,14.0175087 38.3839114,15.3503691 38.3752075,16.6834424 C38.3631878,18.4889921 37.4351851,19.4443827 35.7008272,19.5830581 C34.3778327,19.6885025 33.0625059,19.6390821 31.7455213,19.5619692 C31.1702342,19.5280992 30.9915968,19.7647633 31.0003007,20.3352284 C31.0255835,21.9639723 31.0092119,23.5933552 31.0092119,25.222525 L31.0179158,25.222525 C31.0179158,26.7530671 31.0492084,28.2844612 31.0034093,29.8135121" id="Fill-6" fill="#FFCB7C"></path>
            <path d="M4.63465674,70.7920211 C5.73606086,71.2284637 7.09274608,70.9752846 7.81547616,70.0581197 C9.53044691,67.8818392 11.1859512,65.6587364 12.8728877,63.4602101 C13.0606319,63.2152938 13.0402434,63.0311828 12.8127841,62.8443176 C12.2149336,62.3532138 11.6593468,61.8186777 11.1778807,61.212531 C10.940652,60.9140128 10.7327317,60.9572333 10.4496288,61.1737596 C8.32327741,62.7989785 6.18099754,64.4042819 4.05507096,66.0301363 C3.3427475,66.5752658 2.98042675,67.3140401 3.00081525,68.2233661 C2.9895591,69.4248542 3.59824098,70.3812143 4.63465674,70.7920211" id="Fill-8" fill="#FFBD57"></path>
            <path d="M24.7468987,51.9980908 C25.2692298,51.9618167 25.6796783,51.7234124 25.8769563,51.2144817 C26.1013573,50.6354063 26.0329139,50.0757792 25.5546578,49.6527264 C24.6593844,48.861032 23.7458877,48.0911896 22.8385361,47.3143545 C21.356938,46.0458517 19.8742805,44.7782229 18.391623,43.5110312 C18.0320304,43.2037935 17.6442551,42.9441929 17.1520137,43.0104042 C16.6311659,43.0801118 16.2690304,43.3862569 16.0912471,43.9004321 C15.8912145,44.480163 16.0217443,45.0054827 16.4663084,45.3870169 C18.9275157,47.498566 21.4016487,49.5939447 23.8755699,51.6897605 C24.1220085,51.8986647 24.4146411,52.0166649 24.7468987,51.9980908" id="Fill-12" fill="#000000"></path>
            <path d="M24.9990935,60.5012676 C24.9667087,60.0424359 24.788923,59.6991273 24.4945962,59.4308155 C24.0780005,59.0514059 23.6651499,58.6638445 23.2199146,58.3249612 C22.5385129,57.8067375 21.7562118,57.9229594 21.29181,58.5692833 C20.8417279,59.1960427 20.9115645,60.0014438 21.5063865,60.5601937 C21.9540452,60.9810612 22.4252764,61.3781719 22.9154539,61.7417436 C23.3600283,62.0717764 23.8563742,62.0834219 24.3322319,61.7885585 C24.8067677,61.4946267 25.0156163,61.0385898 24.9990935,60.5012676" id="Fill-14" fill="#000000"></path>
            <path d="M43.524402,27.9986673 C45.7338419,27.9986673 47.9432818,27.9991456 50.1527217,27.99795 C50.3876584,27.9977109 50.625286,28.0103833 50.8569108,27.9754745 C51.4822357,27.8807903 51.9417595,27.3255964 51.9945426,26.6312455 C52.0487747,25.9165709 51.6960592,25.3161868 51.0593497,25.1143851 C50.7923291,25.0297431 50.5037813,25.0043984 50.2249622,25.0041593 C45.7824852,24.9979426 41.3400082,24.9996163 36.8977382,25.0032029 C36.6402393,25.003442 36.3777725,25.0067894 36.1264834,25.062261 C35.4225013,25.2171988 34.9600796,25.8622948 35.0027201,26.5891636 C35.0463956,27.3310958 35.5613934,27.9080479 36.2616496,27.9857559 C36.4481501,28.0063186 36.6375484,27.9981891 36.8254977,27.9981891 C39.0585348,27.9989064 41.2913649,27.9986673 43.524402,27.9986673" id="Fill-16" fill="#000000"></path>
            <path d="M43.5297907,31.9974805 C45.4654552,31.9981976 47.4009068,32.0017831 49.3361456,31.9970024 C50.4129814,31.994373 50.9933401,31.4845088 51,30.5532239 C51.0067527,29.6315004 50.4338453,29.0461008 49.3702092,29.0284121 C47.1205208,28.9908834 44.8704065,29.0025962 42.6205052,29.0002058 C41.0961587,28.9987716 39.5720252,29.0049865 38.0476787,29.0140699 C37.7826213,29.0157432 37.5137316,29.0229142 37.253145,29.0704824 C36.4745787,29.212709 35.9708631,29.8377886 36.0013074,30.593621 C36.0330292,31.3822014 36.6238199,31.9860068 37.4330435,31.9917436 C39.4651506,32.0065639 41.4974706,31.9967634 43.5297907,31.9974805" id="Fill-18" fill="#000000"></path>
            <path d="M46.5219213,36.9954471 C47.5349293,36.9954471 48.5479373,37.0079002 49.5607272,36.9916154 C50.4398306,36.9774859 50.9697789,36.4508641 50.9987843,35.6050121 C51.0290982,34.7289854 50.4906446,34.1879946 49.5930039,34.0886094 C47.5183548,33.8589458 45.4476312,34.1535092 43.3742905,34.1089654 C42.5259372,34.0907648 41.9903187,34.7167718 42.0001326,35.5611869 C42.0097284,36.3998543 42.5516713,36.9679066 43.4091842,36.9846704 C44.4463998,37.0045474 45.4842696,36.9894601 46.5219213,36.9894601 L46.5219213,36.9954471 Z" id="Fill-20" fill="#000000"></path>
            <path d="M47.0141184,39.0092311 C46.416898,39.0085201 45.8188689,38.985769 45.2224571,39.0144449 C44.5391108,39.0476237 44.0724945,39.5599985 44.0073946,40.2899312 C43.9396665,41.0471179 44.3415873,41.7457678 45.0322119,41.8490959 C46.3554372,42.0472205 47.6922082,42.0564631 49.0144227,41.8398532 C49.6710821,41.7322593 50.0465182,41.0601524 49.9953683,40.3193181 C49.9444206,39.5827497 49.4850825,39.0535485 48.8057797,39.0165778 C48.2097723,38.9843471 47.611541,39.0099421 47.0141184,39.0092311" id="Fill-22" fill="#000000"></path>
        </g>
    </g>
</svg>